<?xml version="1.0" encoding="UTF-8" standalone="no"?>
<!-- Created with Inkscape (http://www.inkscape.org/) -->

<svg
   width="210mm"
   height="227.618mm"
   viewBox="0 0 210 227.618"
   version="1.1"
   id="svg1"
   xmlns:inkscape="http://www.inkscape.org/namespaces/inkscape"
   xmlns:sodipodi="http://sodipodi.sourceforge.net/DTD/sodipodi-0.dtd"
   xmlns="http://www.w3.org/2000/svg"
   xmlns:svg="http://www.w3.org/2000/svg">
  <sodipodi:namedview
     id="namedview1"
     pagecolor="#ffffff"
     bordercolor="#000000"
     borderopacity="0.25"
     inkscape:showpageshadow="2"
     inkscape:pageopacity="0.0"
     inkscape:pagecheckerboard="0"
     inkscape:deskcolor="#d1d1d1"
     inkscape:document-units="mm" />
  <defs
     id="defs1" />
  <g
     inkscape:label="Layer 1"
     inkscape:groupmode="layer"
     id="layer1">
    <g
       id="g112"
       transform="matrix(1.8954139,0,0,1.8954139,-369.9157,-336.03219)"
       style="stroke-width:0.527589">
      <path
         style="fill:#ebebeb;stroke-width:0.139591"
         d="m 297.29641,239.17169 c -0.67151,0.40613 -1.41605,0.71384 -2.22276,0.89958 -2.08651,0.48366 -4.16931,0.0683 -5.84333,-0.9988 -1.6375,-1.03955 -2.88713,-2.70087 -3.36126,-4.74028 -0.95435,-4.12908 1.61316,-8.25023 5.74225,-9.20459 4.12591,-0.95779 8.2468,1.61317 9.20459,5.74226 0.76861,3.32263 -0.74904,6.63786 -3.51949,8.30183 z"
         id="path1" />
      <path
         style="fill:#ffffff;stroke-width:0.139591"
         d="m 295.68483,231.75065 c -0.0153,1.28905 -1.07262,2.32146 -2.36167,2.30638 -1.28905,-0.0153 -2.32145,-1.07262 -2.3061,-2.36167 0.0153,-1.28905 1.07262,-2.32146 2.36167,-2.30611 1.28905,0.0151 2.32145,1.07262 2.3061,2.3614 z"
         id="path2" />
      <path
         style="fill:#ffffff;stroke-width:0.139591"
         d="m 297.30779,238.20887 -0.0114,0.96282 c -0.67151,0.40613 -1.41605,0.71384 -2.22276,0.89958 -2.08651,0.48366 -4.16931,0.0683 -5.84333,-0.9988 l 0.0114,-0.95938 c 0.0265,-2.22197 1.85235,-4.01161 4.08093,-3.98515 2.22859,0.0265 4.01162,1.85922 3.98516,4.08093 z"
         id="path3" />
      <path
         style="fill:#ebebeb;stroke-width:0.139591"
         d="m 211.02981,216.33577 c -0.43974,0.26617 -0.92736,0.46751 -1.456,0.58922 -1.36684,0.31671 -2.73103,0.0447 -3.82746,-0.65405 -1.07262,-0.68104 -1.89125,-1.76927 -2.2016,-3.10488 -0.62521,-2.70457 1.05648,-5.40412 3.76132,-6.02933 2.70245,-0.62732 5.40173,1.05648 6.02906,3.76132 0.5035,2.17593 -0.49054,4.34763 -2.30532,5.43772 z"
         id="path4" />
      <path
         style="fill:#ffffff;stroke-width:0.139591"
         d="m 209.97412,211.47484 c -0.0101,0.84429 -0.70247,1.52056 -1.54702,1.51077 -0.84428,-0.0101 -1.52056,-0.70273 -1.5105,-1.54702 0.0101,-0.84428 0.70273,-1.52056 1.54702,-1.51077 0.84428,0.0101 1.52056,0.70247 1.5105,1.54702 z"
         id="path5" />
      <path
         style="fill:#ffffff;stroke-width:0.139591"
         d="m 211.03722,215.705 -0.007,0.63077 c -0.43974,0.26617 -0.92736,0.46751 -1.456,0.58922 -1.36684,0.31671 -2.73103,0.0447 -3.82746,-0.65405 l 0.007,-0.62838 c 0.0172,-1.45548 1.21338,-2.62784 2.67309,-2.61038 1.45971,0.0169 2.62758,1.21735 2.61038,2.67282 z"
         id="path6" />
      <rect
         x="200.10596"
         y="194.26846"
         style="fill:none;stroke:#ebebeb;stroke-width:0.139591;stroke-miterlimit:10"
         width="33.241985"
         height="22.658651"
         id="rect7" />
      <path
         style="fill:#a6a6a6;stroke-width:0.139591"
         d="m 202.59357,195.61307 c 0,0.3683 -0.29871,0.66701 -0.66701,0.66701 -0.3683,0 -0.66702,-0.29845 -0.66702,-0.66701 0,-0.3683 0.29872,-0.66701 0.66702,-0.66701 0.3683,0 0.66701,0.29845 0.66701,0.66701 z"
         id="path7" />
      <path
         style="fill:#ebebeb;stroke-width:0.139591"
         d="m 205.31666,195.61307 c 0,0.3683 -0.29845,0.66701 -0.66701,0.66701 -0.3683,0 -0.66702,-0.29845 -0.66702,-0.66701 0,-0.3683 0.29845,-0.66701 0.66702,-0.66701 0.36856,0 0.66701,0.29845 0.66701,0.66701 z"
         id="path8" />
      <path
         style="fill:#facd60;fill-opacity:1;stroke-width:0.139591"
         d="m 208.04002,195.61307 c 0,0.3683 -0.29845,0.66701 -0.66702,0.66701 -0.3683,0 -0.66701,-0.29845 -0.66701,-0.66701 0,-0.3683 0.29871,-0.66701 0.66701,-0.66701 0.3683,0 0.66702,0.29845 0.66702,0.66701 z"
         id="path9" />
      <line
         style="fill:none;stroke:#ebebeb;stroke-width:0.139591;stroke-miterlimit:10"
         x1="200.10596"
         y1="196.91931"
         x2="233.34795"
         y2="196.91931"
         id="line9" />
      <rect
         x="170.78294"
         y="250.83011"
         transform="rotate(-7.7646505)"
         style="fill:#ebebeb;stroke-width:0.139587"
         width="17.618576"
         height="11.173265"
         id="rect10" />
      <g
         id="g12"
         transform="matrix(0.26458333,0,0,0.26458333,184.41458,177.28697)"
         style="stroke-width:0.527589">
					<path
   style="fill:#ffffff;stroke-width:0.527589"
   d="m 136.628,173.065 c -2.318,2.912 -4.7,5.723 -7.043,8.597 -2.371,2.823 -4.751,5.648 -7.145,8.446 -2.498,2.923 -5.01,5.82 -7.523,8.704 -0.078,0.093 -0.146,0.185 -0.225,0.278 -2.227,2.543 -4.464,5.087 -6.701,7.63 l -0.334,0.361 -0.409,-0.26 c -2.836,-1.852 -5.663,-3.706 -8.491,-5.572 -0.098,-0.055 -0.199,-0.124 -0.299,-0.193 -3.204,-2.104 -6.4,-4.223 -9.591,-6.384 -3.044,-2.043 -6.094,-4.127 -9.133,-6.213 -3.027,-2.142 -6.075,-4.212 -9.088,-6.398 3.132,1.798 6.229,3.711 9.338,5.567 3.105,1.898 6.21,3.796 9.301,5.737 3.441,2.141 6.887,4.321 10.327,6.531 0.01,-10e-4 0.01,-10e-4 0.022,0.011 2.575,1.64 5.152,3.294 7.73,4.948 2.03,-2.282 4.069,-4.579 6.113,-6.836 0.006,-0.028 0.006,-0.028 0.016,-0.03 2.725,-3.036 5.451,-6.059 8.202,-9.058 2.46,-2.684 4.932,-5.356 7.417,-8.003 2.509,-2.62 4.98,-5.292 7.516,-7.863 z"
   id="path10" />

					<path
   style="fill:#ffffff;stroke-width:0.527589"
   d="m 99.842,200.837 c -0.027,0.024 -0.043,0.056 -0.07,0.08 -0.306,0.345 -0.613,0.689 -0.92,1.024 -1.464,1.623 -2.976,3.191 -4.523,4.725 -1.882,1.892 -3.823,3.721 -5.774,5.541 -1.966,1.792 -3.943,3.576 -5.978,5.307 -2.035,1.731 -4.094,3.435 -6.248,5.03 1.762,-2.027 3.62,-3.945 5.503,-5.827 1.892,-1.893 3.832,-3.722 5.774,-5.541 1.975,-1.803 3.952,-3.587 5.987,-5.318 1.618,-1.381 3.269,-2.747 4.969,-4.049 0.392,-0.306 0.786,-0.602 1.189,-0.899 0.027,-0.024 0.064,-0.049 0.091,-0.073 z"
   id="path11" />

					<path
   style="fill:#ffffff;stroke-width:0.527589"
   d="m 141.993,213.589 c -2.503,-0.961 -4.952,-2.05 -7.367,-3.174 -2.424,-1.123 -4.807,-2.312 -7.19,-3.511 -2.368,-1.231 -4.728,-2.474 -7.047,-3.793 -1.891,-1.064 -3.767,-2.161 -5.602,-3.334 -0.397,-0.249 -0.785,-0.499 -1.172,-0.749 -0.032,-0.016 -0.056,-0.043 -0.089,-0.058 0.032,0.016 0.075,0.03 0.106,0.036 0.47,0.188 0.928,0.368 1.388,0.558 1.986,0.799 3.932,1.674 5.871,2.57 2.424,1.123 4.806,2.312 7.182,3.522 2.368,1.231 4.728,2.474 7.047,3.793 2.329,1.308 4.632,2.66 6.873,4.14 z"
   id="path12" />

				</g>
      <rect
         x="275.25635"
         y="193.75385"
         style="fill:#ebebeb;stroke-width:0.139591"
         width="21.606405"
         height="13.702241"
         id="rect14" />
      <g
         id="g16"
         transform="matrix(0.26458333,0,0,0.26458333,184.41458,177.28697)"
         style="stroke-width:0.527589">
					<path
   style="fill:#ffffff;stroke-width:0.527589"
   d="m 425.001,62.237 c -3.299,3.154 -6.659,6.175 -9.983,9.279 -3.348,3.038 -6.708,6.075 -10.08,9.079 -3.52,3.138 -7.052,6.242 -10.584,9.329 -0.11,0.1 -0.208,0.2 -0.319,0.3 -3.127,2.72 -6.267,5.441 -9.406,8.161 l -0.466,0.384 -0.454,-0.384 c -3.139,-2.72 -6.267,-5.441 -9.394,-8.178 -0.11,-0.083 -0.221,-0.184 -0.331,-0.284 -3.544,-3.088 -7.076,-6.192 -10.596,-9.346 -3.36,-2.987 -6.72,-6.025 -10.068,-9.062 -3.323,-3.104 -6.684,-6.125 -9.982,-9.279 3.507,2.704 6.953,5.541 10.424,8.311 3.458,2.82 6.916,5.641 10.35,8.512 3.826,3.171 7.652,6.392 11.466,9.646 0.012,0 0.012,0 0.025,0.017 2.857,2.42 5.715,4.857 8.572,7.293 2.845,-2.437 5.703,-4.89 8.56,-7.293 0.012,-0.033 0.012,-0.033 0.025,-0.033 3.814,-3.238 7.628,-6.459 11.466,-9.646 3.434,-2.854 6.88,-5.691 10.338,-8.495 3.484,-2.77 6.93,-5.607 10.437,-8.311 z"
   id="path14" />

					<path
   style="fill:#ffffff;stroke-width:0.527589"
   d="m 375.702,89.886 c -0.037,0.024 -0.061,0.061 -0.098,0.086 -0.429,0.368 -0.858,0.736 -1.288,1.091 -2.048,1.729 -4.145,3.385 -6.279,4.991 -2.6,1.987 -5.261,3.887 -7.934,5.776 -2.686,1.852 -5.384,3.691 -8.143,5.457 -2.759,1.766 -5.543,3.495 -8.425,5.077 2.477,-2.171 5.053,-4.194 7.652,-6.168 2.612,-1.987 5.273,-3.888 7.935,-5.776 2.698,-1.864 5.396,-3.703 8.155,-5.469 2.195,-1.41 4.427,-2.796 6.708,-4.096 0.527,-0.307 1.054,-0.601 1.594,-0.895 0.037,-0.025 0.086,-0.05 0.123,-0.074 z"
   id="path15" />

					<path
   style="fill:#ffffff;stroke-width:0.527589"
   d="m 424.805,112.365 c -2.882,-1.582 -5.678,-3.311 -8.425,-5.077 -2.759,-1.766 -5.457,-3.606 -8.155,-5.457 -2.673,-1.889 -5.335,-3.79 -7.934,-5.776 -2.121,-1.607 -4.218,-3.25 -6.254,-4.979 -0.442,-0.368 -0.871,-0.736 -1.3,-1.104 -0.037,-0.024 -0.061,-0.061 -0.098,-0.086 0.037,0.024 0.086,0.049 0.123,0.061 0.54,0.307 1.067,0.601 1.594,0.907 2.281,1.3 4.501,2.686 6.709,4.096 2.759,1.766 5.457,3.605 8.143,5.469 2.673,1.889 5.335,3.79 7.934,5.776 2.61,1.976 5.186,3.999 7.663,6.17 z"
   id="path16" />

				</g>
      <g
         id="Shadow"
         transform="matrix(0.26458333,0,0,0.26458333,184.41458,177.28697)"
         style="stroke-width:0.527589">
	<ellipse
   style="fill:#ebebeb;stroke-width:0.527589"
   cx="236.095"
   cy="442.79199"
   rx="143.186"
   ry="11.086"
   id="ellipse19" />

</g>
      <g
         id="Lamp"
         transform="matrix(0.26458333,0,0,0.26458333,184.41458,177.28697)"
         style="stroke-width:0.527589">
	<line
   style="fill:none;stroke:#c7c7c7;stroke-width:0.527589;stroke-miterlimit:10"
   x1="284.064"
   y1="137.55901"
   x2="284.064"
   y2="0"
   id="line19" />
<polygon
   style="fill:#facd60;fill-opacity:1;stroke-width:0.527589"
   points="324.885,176.909 292.918,154.782 275.209,154.782 243.243,176.909 246.526,184.126 321.611,184.126 "
   id="polygon19" />
<polygon
   style="fill:#facd60;fill-opacity:1;stroke-width:0.527589"
   points="295.137,133.464 272.991,133.464 275.209,154.782 292.918,154.782 "
   id="polygon20" />
<polygon
   style="opacity:0.1;stroke-width:0.527589"
   points="324.888,176.912 243.246,176.912 246.529,184.13 321.615,184.13 "
   id="polygon21" />
<polygon
   style="opacity:0.1;stroke-width:0.527589"
   points="274.971,152.494 293.294,151.168 292.918,154.782 275.209,154.782 "
   id="polygon22" />
<line
   style="fill:none;stroke:#c7c7c7;stroke-width:0.527589;stroke-miterlimit:10"
   x1="215.933"
   y1="94.274002"
   x2="215.933"
   y2="0"
   id="line22" />
<polygon
   style="fill:#facd60;fill-opacity:1;stroke-width:0.527589"
   points="256.754,133.623 224.787,111.497 207.078,111.497 175.111,133.623 178.395,140.841 253.48,140.841 "
   id="polygon23" />
<polygon
   style="fill:#facd60;fill-opacity:1;stroke-width:0.527589"
   points="227.006,90.179 204.86,90.179 207.078,111.497 224.787,111.497 "
   id="polygon24" />
<polygon
   style="opacity:0.1;stroke-width:0.527589"
   points="256.757,133.627 175.115,133.627 178.398,140.844 253.484,140.844 "
   id="polygon25" />
<polygon
   style="opacity:0.1;stroke-width:0.527589"
   points="224.787,111.497 207.078,111.497 206.822,109.031 225.168,107.841 "
   id="polygon26" />

</g>
      <g
         id="Chair"
         transform="matrix(0.26458333,0,0,0.26458333,184.41458,177.28697)"
         style="stroke-width:0.527589">
	<g
   id="g29"
   style="stroke-width:0.527589">
		<path
   style="fill:#facd60;fill-opacity:1;stroke-width:0.527589"
   d="m 83.418,427.276 166.591,0.717 c 40.491,-31.795 44.673,-78.902 15.786,-107.455 -17.483,-17.271 -39.683,-13.787 -60.823,-16.534 -0.02,0 -0.041,-0.01 -0.061,-0.01 -7.363,-0.96 -14.584,-2.677 -21.443,-6.292 -21.766,-11.484 -34.037,-38.572 -52.349,-61.358 -2.283,-2.858 -4.666,-5.636 -7.171,-8.313 -15.059,-16.079 -45.031,-16.603 -60.708,6.003 -39.832,57.438 -21.585,142.93 20.178,193.242 z"
   id="path28" />

		<path
   style="opacity:0.1;stroke-width:0.527589"
   d="m 79.721,295.853 c 4.363,68.347 83.295,93.86 132.594,73.387 42.865,-17.806 28.836,-58.439 -7.343,-65.236 -0.02,0 -0.041,-0.01 -0.061,-0.01 -7.363,-0.96 -14.584,-2.677 -21.443,-6.292 -21.766,-11.484 -34.037,-38.572 -52.349,-61.358 -27.279,-14.171 -54.6,9.463 -51.398,59.509 z"
   id="path29" />

	</g>

</g>
      <g
         id="Plant"
         transform="matrix(0.26458333,0,0,0.26458333,184.41458,177.28697)"
         style="stroke-width:0.527589">
	<g
   id="g50"
   style="stroke-width:0.527589">
		<g
   id="g43"
   style="stroke-width:0.527589">
			<g
   id="g33"
   style="stroke-width:0.527589">
				<path
   style="fill:#263238;stroke-width:0.527589"
   d="m 387.299,313.702 c 0.346,-5.052 0.964,-10.11 2.138,-15.041 1.061,-4.453 2.565,-9.006 5.374,-12.686 2.565,-3.361 6.25,-6.038 10.533,-6.563 4.125,-0.505 8,1.333 11.085,3.932 3.823,3.22 6.751,7.483 9.499,11.615 3.074,4.622 5.689,9.425 8.206,14.363 0.083,0.162 -0.167,0.3 -0.248,0.137 -2.076,-4.172 -4.63,-8.228 -7.338,-12.018 -2.56,-3.581 -5.294,-7.15 -8.451,-10.231 -2.831,-2.764 -6.43,-5.35 -10.533,-5.48 -4.082,-0.13 -7.85,2.162 -10.308,5.309 -2.748,3.518 -4.146,7.911 -5.193,12.192 -1.15,4.699 -1.724,9.505 -2.116,14.321 -0.806,9.908 -1.025,19.874 -1.249,29.809 -0.127,5.622 -0.203,11.245 -0.254,16.869 -0.026,2.849 -0.049,5.698 -0.07,8.547 -0.02,2.745 0.123,5.529 -0.329,8.241 -0.092,0.553 -0.998,0.5 -1.091,-0.027 -0.453,-2.567 -0.342,-5.206 -0.378,-7.808 -0.037,-2.7 -0.072,-5.401 -0.096,-8.102 -0.047,-5.25 -0.074,-10.501 -0.059,-15.751 0.032,-10.536 0.158,-21.114 0.878,-31.628 z"
   id="path30" />

				<g
   id="g32"
   style="stroke-width:0.527589">
					<path
   style="fill:#facd60;fill-opacity:1;stroke-width:0.527589"
   d="m 401.456,306.231 c 0.526,-2.801 1.472,-6.453 3.069,-8.623 2.868,-3.901 5.965,-2.204 3.102,2.115 -3.126,4.716 -3.578,8.442 -4.027,10.65 0,0 4.822,6.888 10.641,10.279 -0.249,-2.648 -0.996,-6.721 -0.48,-10.65 1.118,-8.509 6.265,-8.031 4.993,-1.272 -1.023,5.421 -1.443,11.175 -1.165,13.671 1.749,1.325 4.728,2.463 6.22,3.046 -0.334,-0.985 -0.688,-2.17 -1.08,-3.604 -2.065,-7.629 3.021,-10.01 3.184,-5.717 0.124,3.528 1.491,8.996 1.979,10.822 2.792,0.937 5.105,1.577 6.52,2.075 5.88,2.065 9.541,6.52 9.541,6.52 2.667,-2.371 4.818,-5.249 6.501,-8.413 -1.778,-1.53 -4.589,-3.805 -8.489,-6.558 -7.314,-5.163 -4.771,-11.683 1.032,-7.629 4.187,2.925 7.428,8.346 8.901,11.128 2.017,-4.818 3.078,-10.105 3.317,-15.229 -5.745,-5.392 -19.952,-12.906 -15.669,-12.906 3.853,0 12.476,5.65 15.641,7.83 -0.086,-1.52 -0.249,-3.002 -0.488,-4.426 -5.411,-3.547 -22.992,-9.063 -20.191,-10.65 3.078,-1.74 15.344,3.939 19.053,5.736 -0.812,-2.639 -1.912,-4.933 -3.25,-6.73 -7.476,-10.01 -20.958,-13.458 -26.839,-11.55 -4.162,1.35 -2.946,11.91 -3.84,11.55 -16.721,-6.73 -24.325,-1.975 -18.176,18.535 z m 40.985,-1.156 c 1.185,-1.434 6.673,2.782 5.086,5.086 -1.587,2.304 -6.616,-3.251 -5.086,-5.086 z m -28.671,-9.006 c 1.444,0.918 -0.688,6.252 -2.916,4.637 -1.893,-1.377 1.462,-5.565 2.916,-4.637 z"
   id="path31" />

					<path
   style="fill:#263238;stroke-width:0.527589"
   d="m 415.959,297.703 c 0.755,-1.492 1.543,-2.976 2.403,-4.41 0.819,-1.366 1.692,-2.819 2.762,-4.006 -0.239,-0.293 -0.469,-0.592 -0.714,-0.88 -0.1,-0.117 0.072,-0.283 0.174,-0.166 0.281,0.319 0.547,0.647 0.819,0.971 0.053,0.031 0.096,0.076 0.116,0.137 1.034,1.238 2.007,2.513 2.936,3.815 1.643,0.347 3.267,0.874 4.856,1.406 1.64,0.549 3.265,1.119 4.859,1.792 0.167,0.071 0.084,0.344 -0.082,0.271 -1.579,-0.699 -3.181,-1.375 -4.818,-1.928 -1.548,-0.523 -3.123,-0.926 -4.692,-1.369 0.511,0.72 1.012,1.447 1.493,2.185 2.945,0.847 5.825,2.191 8.586,3.502 2.901,1.378 5.694,2.98 8.473,4.587 0.157,0.091 0.008,0.335 -0.149,0.241 -2.721,-1.629 -5.557,-3.018 -8.428,-4.362 -2.689,-1.259 -5.473,-2.293 -8.184,-3.491 6.827,10.654 10.923,22.95 16.396,34.332 0.08,0.166 -0.179,0.302 -0.248,0.137 -1.671,-3.993 -3.596,-7.882 -5.416,-11.809 -1.634,-3.526 -3.229,-7.07 -4.865,-10.595 -0.479,-1.032 -0.971,-2.061 -1.472,-3.089 0.299,5.691 0.178,11.48 1.11,17.105 0.033,0.201 -0.266,0.238 -0.279,0.031 -0.395,-6.081 -1.466,-12.068 -1.423,-18.183 0,-0.035 0.024,-0.051 0.033,-0.079 -1.159,-2.325 -2.393,-4.62 -3.726,-6.851 -2.263,5.326 -4.641,10.732 -5.696,16.451 -0.032,0.175 -0.319,0.097 -0.271,-0.082 1.538,-5.733 2.964,-11.473 5.725,-16.771 -1.459,-2.411 -3.051,-4.735 -4.809,-6.932 -0.758,1.415 -1.732,2.754 -2.594,4.106 -0.843,1.322 -1.67,2.652 -2.449,4.013 -1.665,2.909 -3.127,5.875 -4.27,9.026 -0.063,0.173 -0.342,0.083 -0.271,-0.082 1.302,-3.03 2.623,-6.078 4.115,-9.023 z"
   id="path32" />

				</g>

			</g>

			<g
   id="g36"
   style="stroke-width:0.527589">
				<path
   style="fill:#263238;stroke-width:0.527589"
   d="m 362.139,310.659 c 4.381,-4.394 9.474,-10.162 16.245,-10.15 6.535,0.011 11.345,5.273 14.108,10.701 2.89,5.677 3.927,12.108 4.744,18.358 0.978,7.484 1.519,15.028 1.732,22.571 0.119,4.19 0.102,8.386 -0.001,12.576 -0.105,4.228 -0.207,8.518 -0.96,12.689 -0.122,0.677 -1.207,0.702 -1.248,-0.029 -0.197,-3.528 -0.056,-7.073 -0.036,-10.605 0.019,-3.478 -0.036,-6.957 -0.163,-10.433 -0.258,-7.032 -0.77,-14.052 -1.595,-21.041 -0.721,-6.104 -1.293,-12.38 -3.12,-18.277 -1.647,-5.317 -4.736,-11.4 -10.128,-13.736 -7.357,-3.188 -14.544,2.635 -19.359,7.554 -0.127,0.131 -0.347,-0.049 -0.219,-0.178 z"
   id="path33" />

				<g
   id="g35"
   style="stroke-width:0.527589">
					<path
   style="fill:#facd60;fill-opacity:1;stroke-width:0.527589"
   d="m 339.786,320.477 v 0.01 c 0.033,0.898 0.085,1.786 0.146,2.654 2,-1.407 4.514,-2.685 7.18,-2.975 6.219,-0.661 5.822,4.067 1.668,4.266 -3.963,0.189 -6.62,0.862 -8.533,1.709 1.014,8.211 3.273,14.813 3.612,14.902 0.339,0.08 7.941,-0.465 16.43,-2.077 -1.545,-3.295 -5.066,-7.673 -3.274,-8.027 1.839,-0.365 3.758,3.544 4.753,7.727 4.095,-0.827 8.312,-1.909 11.95,-3.289 -2.735,-2.367 -6.963,-5.315 -5.348,-6.569 1.615,-1.264 4.971,2.892 6.982,5.907 1.998,-0.852 3.771,-1.807 5.165,-2.879 -3.685,-5.413 -12.667,-6.516 -11.495,-10.429 1.197,-3.991 9.576,1.514 13.349,8.761 4.432,-4.595 5.73,-11.099 5.263,-16.656 -3.859,-0.448 -11.286,0.367 -10.748,-2.406 0.506,-2.637 5.904,-2.244 10.297,-0.626 -0.541,-2.52 -1.458,-4.668 -2.579,-6.108 -4.068,-5.223 -16.481,1.419 -16.481,1.419 0,0 1.328,-12.477 -3.407,-14.634 -2.729,-1.238 -7.543,-1.229 -12.375,1.615 2.71,0.225 5.986,1.083 7.301,2.963 1.684,2.398 -0.972,3.702 -2.661,2.596 -1.186,-0.786 -3.409,-3.254 -7.416,-3.58 -1.556,1.29 -3.076,2.932 -4.482,4.961 -0.458,0.644 -0.884,1.325 -1.309,2.063 3.904,-1.622 9.071,-2.453 14.532,0.263 5.382,2.672 2.376,8.261 -2.255,6.09 -4.582,-2.145 -9.04,-4.306 -13.948,-3.076 -1.802,4.154 -2.4,9.073 -2.36,13.914 1.841,-1.332 4.56,-2.926 7.972,-3.826 5.35,-1.404 6.967,1.792 1.09,2.389 -3.734,0.38 -6.876,1.745 -9.019,2.948 z m 6.509,-8.589 c -0.37,-1.734 3.425,-2.231 4.057,-0.825 0.527,1.199 -3.696,2.559 -4.057,0.825 z m 32.465,9.6 c 0.357,-0.945 2.897,0.129 2.666,1.308 -0.318,1.575 -3.014,-0.363 -2.666,-1.308 z m -17.924,6.081 c 1.85,-0.739 4.74,3.861 2.723,4.914 -2.017,1.054 -4.235,-4.306 -2.723,-4.914 z"
   id="path34" />

					<path
   style="fill:#263238;stroke-width:0.527589"
   d="m 344.585,340.095 c 2.788,-4.662 5.545,-9.349 8.472,-13.926 1.364,-2.132 2.792,-4.221 4.275,-6.271 -0.224,-0.045 -0.447,-0.111 -0.664,-0.157 -0.368,-0.078 -0.739,-0.149 -1.11,-0.214 -0.856,-0.149 -1.72,-0.273 -2.585,-0.36 -0.814,-0.083 -1.63,-0.126 -2.449,-0.137 -0.851,-0.011 -1.78,-0.039 -2.616,0.138 -0.105,0.022 -0.121,-0.143 -0.022,-0.139 0.871,0.035 1.762,-0.08 2.636,-0.092 0.847,-0.012 1.695,0.01 2.541,0.06 0.795,0.047 1.585,0.126 2.372,0.247 0.435,0.067 0.868,0.143 1.3,0.228 0.257,0.051 0.529,0.088 0.783,0.165 1.51,-2.077 3.078,-4.113 4.698,-6.106 -4.889,-2.246 -9.919,-4.096 -15.265,-4.872 -0.09,-0.013 -0.055,-0.152 0.034,-0.137 5.325,0.851 10.667,2.227 15.486,4.697 0.891,-1.094 1.788,-2.183 2.69,-3.268 1.009,-1.213 2.088,-2.398 3,-3.686 0.06,-0.084 0.183,0.009 0.113,0.083 -1.266,1.351 -2.411,2.842 -3.539,4.332 0.009,0.004 0.017,-0.002 0.026,0.004 2.014,1.347 3.865,2.954 5.675,4.558 1.854,1.644 3.666,3.344 5.424,5.091 0.065,0.064 -0.033,0.167 -0.098,0.102 -1.739,-1.728 -3.541,-3.377 -5.427,-4.944 -1.884,-1.565 -3.867,-3.003 -5.762,-4.553 -0.01,-0.008 -0.007,-0.019 -0.014,-0.028 -0.433,0.573 -0.864,1.145 -1.299,1.708 -0.22,0.285 -0.436,0.572 -0.656,0.857 -0.011,0.025 -0.027,0.042 -0.047,0.062 -0.726,0.944 -1.448,1.89 -2.165,2.841 0.878,1.176 1.527,2.565 2.155,3.888 0.625,1.316 1.168,2.675 1.669,4.042 1.037,2.831 1.734,5.784 2.326,8.736 0.018,0.089 -0.119,0.13 -0.135,0.041 -0.559,-2.938 -1.48,-5.772 -2.539,-8.564 -0.541,-1.426 -1.158,-2.816 -1.795,-4.202 -0.579,-1.261 -1.281,-2.473 -1.823,-3.748 -0.626,0.832 -1.248,1.666 -1.86,2.507 -0.178,0.244 -0.347,0.495 -0.524,0.74 0.027,0.055 0.01,0.125 -0.061,0.128 -0.01,0 -0.019,-0.002 -0.029,-0.001 -1.916,2.675 -3.739,5.413 -5.513,8.183 0.121,0.178 0.172,0.398 0.243,0.606 0.114,0.336 0.221,0.675 0.32,1.016 0.199,0.684 0.359,1.375 0.486,2.076 0.119,0.658 0.212,1.32 0.278,1.985 0.072,0.733 0.003,1.543 0.167,2.257 0.026,0.112 -0.155,0.119 -0.136,0.003 0.109,-0.666 -0.062,-1.442 -0.155,-2.106 -0.101,-0.72 -0.236,-1.436 -0.401,-2.144 -0.15,-0.641 -0.323,-1.279 -0.513,-1.909 -0.095,-0.316 -0.197,-0.63 -0.305,-0.941 -0.057,-0.165 -0.138,-0.339 -0.194,-0.515 -0.83,1.302 -1.653,2.608 -2.462,3.923 -1.605,2.607 -3.196,5.223 -4.797,7.832 -0.08,0.132 -0.289,0.018 -0.209,-0.116 z"
   id="path35" />

				</g>

			</g>

			<g
   id="g42"
   style="stroke-width:0.527589">
				<path
   style="fill:#263238;stroke-width:0.527589"
   d="m 387.59,375.898 c 0.072,-2.642 0.491,-5.303 0.776,-7.93 0.286,-2.64 0.586,-5.278 0.868,-7.918 0.543,-5.088 0.846,-10.29 2.043,-15.278 1.029,-4.291 2.919,-8.401 6.215,-11.426 1.667,-1.53 3.788,-2.784 6.096,-2.909 2.361,-0.128 4.537,0.69 6.473,1.996 2.204,1.487 3.904,3.596 5.443,5.735 1.587,2.205 2.99,4.483 4.244,6.892 0.047,0.091 -0.095,0.147 -0.145,0.062 -2.316,-4.015 -5.508,-7.479 -9.182,-10.289 -1.692,-1.294 -3.633,-2.265 -5.788,-2.412 -2.137,-0.146 -4.042,0.874 -5.612,2.239 -3.082,2.678 -4.865,6.618 -5.927,10.487 -1.259,4.586 -1.666,9.412 -2.295,14.114 -0.374,2.795 -0.73,5.593 -1.099,8.388 -0.367,2.781 -0.599,5.633 -1.19,8.376 -0.128,0.589 -0.937,0.466 -0.92,-0.127 z"
   id="path36" />

				<g
   id="g41"
   style="stroke-width:0.527589">
					<path
   style="fill:#facd60;fill-opacity:1;stroke-width:0.527589"
   d="m 400.586,355.379 c 0.762,1.064 1.735,2.032 2.874,2.935 -0.435,-2.579 -0.961,-7.16 0.341,-9.599 2.021,-3.788 4.414,-1.899 3.21,1.394 -1.737,4.701 -1.964,7.877 -1.946,9.337 2.562,1.686 5.653,3.048 8.777,4.141 -0.277,-1.267 -0.451,-2.841 -0.289,-4.518 0.403,-4.049 3.504,-3.974 2.698,0.239 -0.354,1.821 -0.429,3.573 -0.425,4.947 7.073,2.218 13.678,3.085 13.678,3.085 2.633,-3.507 4.48,-6.877 5.661,-10.078 -3.296,-0.826 -9.97,-1.014 -9.827,-3.369 0.19,-3.17 6.655,-0.729 10.436,1.57 0.93,-3.035 1.257,-5.899 1.142,-8.528 -1.477,-0.484 -4.207,-1.084 -9.09,-1.506 -6.788,-0.586 -6.454,-4.434 -1.535,-4.346 3.629,0.067 8.218,2.288 10.394,3.443 -1.416,-9.231 -8.458,-15.148 -14.105,-15.373 -9.492,-0.384 -6.077,11.43 -6.077,11.43 0,0 -6.431,-4.526 -12.501,-4.407 -6.055,0.13 -9.906,10.173 -3.416,19.203 z m 25.354,-17.077 c -0.211,-1.328 4.025,-1.648 4.245,0.057 0.254,1.914 -4.03,1.296 -4.245,-0.057 z m 6.816,13.858 c -0.087,-0.869 1.742,-1.021 2.155,0.074 0.277,0.713 -2.082,0.784 -2.155,-0.074 z m -22.793,0.809 c 1.431,0.201 2.244,5.317 -0.218,5.216 -1.879,-0.079 -0.995,-5.389 0.218,-5.216 z"
   id="path37" />

					<g
   id="g40"
   style="stroke-width:0.527589">
						<path
   style="fill:#263238;stroke-width:0.527589"
   d="m 411.942,358.65 c 0.236,-0.637 0.447,-1.283 0.648,-1.934 -0.185,0.658 -0.349,1.318 -0.471,1.982 -0.025,0.13 -0.224,0.078 -0.177,-0.048 z"
   id="path38" />

						<path
   style="fill:#263238;stroke-width:0.527589"
   d="m 414.448,350.428 c 0.445,-1.311 0.944,-2.607 1.454,-3.894 0.272,-0.688 0.554,-1.369 0.855,-2.045 0.254,-0.569 0.465,-1.215 0.846,-1.713 -0.291,-0.544 -0.564,-1.095 -0.768,-1.657 -0.02,-0.054 0.049,-0.095 0.087,-0.051 0.724,0.845 1.285,1.909 1.849,2.868 0.264,0.448 0.514,0.903 0.773,1.354 0.533,0.032 1.075,0.152 1.597,0.248 0.569,0.104 1.136,0.22 1.701,0.347 0.565,0.127 1.129,0.258 1.692,0.393 0.559,0.134 1.115,0.32 1.683,0.406 0.132,0.02 0.078,0.227 -0.048,0.176 -0.562,-0.227 -1.185,-0.334 -1.776,-0.462 -0.545,-0.118 -1.091,-0.214 -1.643,-0.293 -0.551,-0.079 -1.105,-0.147 -1.659,-0.203 -0.415,-0.042 -0.837,-0.063 -1.255,-0.102 0.226,0.398 0.461,0.792 0.682,1.194 0.035,0.063 0.066,0.128 0.1,0.192 0.456,-0.038 0.914,0.08 1.363,0.161 0.491,0.088 0.98,0.181 1.466,0.289 0.99,0.219 1.977,0.453 2.954,0.726 2.054,0.573 4.083,1.229 6.109,1.891 0.112,0.037 0.041,0.208 -0.071,0.17 -2.01,-0.687 -4.064,-1.236 -6.136,-1.703 -0.971,-0.219 -1.941,-0.442 -2.916,-0.644 -0.488,-0.101 -0.975,-0.208 -1.463,-0.311 -0.376,-0.079 -0.771,-0.124 -1.134,-0.25 1.044,1.93 2.029,3.891 2.932,5.891 1.968,4.356 3.626,8.843 5.314,13.312 0.042,0.111 -0.13,0.184 -0.169,0.072 -1.578,-4.467 -3.571,-8.765 -5.655,-13.015 -0.379,-0.773 -0.77,-1.54 -1.153,-2.31 -0.032,0.156 -0.071,0.313 -0.1,0.472 -0.098,0.528 -0.191,1.056 -0.28,1.586 -0.178,1.059 -0.358,2.117 -0.517,3.179 -0.32,2.148 -0.839,4.418 -0.765,6.597 0.005,0.137 -0.204,0.129 -0.183,0 0.17,-1.052 0.17,-2.15 0.236,-3.212 0.069,-1.111 0.151,-2.222 0.28,-3.327 0.124,-1.066 0.26,-2.131 0.437,-3.19 0.088,-0.529 0.181,-1.058 0.278,-1.586 0.071,-0.384 0.087,-0.819 0.298,-1.148 -0.556,-1.115 -1.107,-2.233 -1.67,-3.345 -0.528,-1.043 -1.061,-2.084 -1.603,-3.12 -0.229,-0.437 -0.478,-0.88 -0.722,-1.326 -0.139,0.549 -0.419,1.078 -0.63,1.598 -0.243,0.599 -0.488,1.197 -0.733,1.795 -0.544,1.324 -1.05,2.662 -1.556,4.001 -0.717,1.898 -1.51,3.843 -2.102,5.82 0.58,-1.942 1.071,-3.917 1.721,-5.831 z"
   id="path39" />

						<path
   style="fill:#263238;stroke-width:0.527589"
   d="m 412.59,356.716 c 0.043,-0.154 0.092,-0.306 0.138,-0.459 -0.046,0.153 -0.091,0.306 -0.138,0.459 z"
   id="path40" />

					</g>

				</g>

			</g>

		</g>

		<g
   id="g49"
   style="stroke-width:0.527589">
			<g
   id="g44"
   style="stroke-width:0.527589">
				<polygon
   style="fill:#37474f;stroke-width:0.527589"
   points="371.718,370.759 372.386,384.89 374.104,421.308 411.678,421.308 413.396,384.89 414.064,370.759 "
   id="polygon43" />

				<polygon
   style="fill:#263238;stroke-width:0.527589"
   points="371.718,370.759 372.386,384.89 413.396,384.89 414.064,370.759 "
   id="polygon44" />

			</g>

			
				<rect
   x="369.04599"
   y="365.047"
   transform="rotate(180,392.8906,370.75915)"
   style="fill:#37474f;stroke-width:0.527589"
   width="47.688999"
   height="11.425"
   id="rect44" />

			<g
   id="g46"
   style="stroke-width:0.527589">
				<rect
   x="402.04001"
   y="421.30899"
   style="fill:#37474f;stroke-width:0.527589"
   width="6.5960002"
   height="5.9809999"
   id="rect45" />

				<rect
   x="402.04001"
   y="421.30899"
   style="fill:#263238;stroke-width:0.527589"
   width="6.5960002"
   height="2.9909999"
   id="rect46" />

			</g>

			<g
   id="g48"
   style="stroke-width:0.527589">
				<rect
   x="377.14499"
   y="421.30899"
   style="fill:#37474f;stroke-width:0.527589"
   width="6.5900002"
   height="5.9809999"
   id="rect47" />

				<rect
   x="377.14499"
   y="421.30899"
   style="fill:#263238;stroke-width:0.527589"
   width="6.5900002"
   height="2.9909999"
   id="rect48" />

			</g>

		</g>

	</g>

</g>
      <g
         id="Floor"
         transform="matrix(0.26458333,0,0,0.26458333,184.41458,177.28697)"
         style="stroke-width:0.527589">
	<g
   id="g51"
   style="stroke-width:0.527589">
		<polygon
   style="fill:#263238;stroke-width:0.527589"
   points="145.313,427.774 92.969,427.686 40.626,427.443 92.969,427.2 145.313,427.111 250,426.944 354.687,427.11 407.031,427.198 459.374,427.443 407.031,427.688 354.687,427.775 250,427.942 "
   id="polygon50" />

	</g>

</g>
      <g
         id="Paper_Plane"
         transform="matrix(0.26458333,0,0,0.26458333,184.41458,177.28697)"
         style="stroke-width:0.527589">
	<path
   style="fill:none;stroke:#263238;stroke-width:0.395692;stroke-miterlimit:10;stroke-dasharray:2.11036, 2.63795"
   d="m 211.695,289.42 c 0,0 44.27,18.02 74.028,-2.598 41.588,-28.814 33.49,-79.44 21.518,-88.307 -11.971,-8.868 -26.46,6.321 -10.934,20.802 15.146,14.128 42.317,13.782 55.556,-8.387 13.24,-22.169 2.372,-49.26 33.522,-59.879"
   id="path51" />
<polygon
   style="fill:#ffc727;stroke-width:0.527589"
   points="375.56,156.459 391.625,143.913 453.047,121.637 383.213,135.442 "
   id="polygon51" />
<polygon
   style="opacity:0.1;stroke-width:0.527589"
   points="375.56,156.459 391.625,143.913 453.047,121.637 383.213,135.442 "
   id="polygon52" />
<polygon
   style="fill:#263238;stroke-width:0.527589"
   points="375.56,156.459 391.625,143.913 393.687,148.81 "
   id="polygon53" />
<polygon
   style="fill:#facd60;fill-opacity:1;stroke-width:0.527589"
   points="453.047,121.637 402.667,170.801 391.625,143.913 "
   id="polygon54" />
<polygon
   style="fill:#facd60;fill-opacity:1;stroke-width:0.527589"
   points="357.687,118.962 453.047,121.637 383.213,135.442 "
   id="polygon55" />

</g>
      <g
         id="Character"
         transform="matrix(0.26458333,0,0,0.26458333,184.41458,177.28697)"
         style="stroke-width:0.527589">
	<g
   id="Capa_4"
   style="stroke-width:0.527589">
	</g>

	<g
   id="g127"
   style="stroke-width:0.527589">
		<g
   id="g59"
   style="stroke-width:0.527589">
			<g
   id="g57"
   style="stroke-width:0.527589">
				<path
   style="fill:#d3766a;stroke-width:0.527589"
   d="m 236.55,438.039 c -2.57,-0.942 -60.626,-47.34 -61.722,-50.509 -0.422,-1.199 5.842,-10.049 13.715,-20.527 1.7,-2.263 3.469,-4.589 5.279,-6.942 11.732,-15.287 24.538,-31.233 24.538,-31.233 l 38.926,30.925 -25.61,30.382 -5.617,6.674 c 0,0 14.282,27.706 15.111,31.311 0.817,3.594 -2.05,10.861 -4.62,9.919 z"
   id="path56" />

				<path
   style="fill:#263238;stroke-width:0.527589"
   d="m 236.545,438.036 c -2.564,-0.942 -60.618,-47.333 -61.715,-50.505 -0.346,-0.978 3.733,-7.024 9.505,-14.871 8.443,10.089 37.876,40.13 45.914,44.149 5.104,2.552 4.09,-2.457 2.182,-7.442 3.923,7.835 8.288,16.803 8.741,18.747 0.812,3.601 -2.051,10.864 -4.627,9.922 z"
   id="path57" />

			</g>

			<path
   style="fill:#37474f;stroke-width:0.527589"
   d="m 296.603,300.288 c -2.668,20.224 -52.507,78.604 -58.266,85.3 -0.849,0.987 -1.312,1.524 -1.312,1.524 l -41.226,-31.681 0.475,-0.612 36.304,-47.535 c 0,0 -60.033,35.031 -90.071,19.129 -13.484,-7.138 -23.486,-19.829 -23.486,-19.829 l 39.203,-20.902 c 0,0 10.848,3.507 17.781,2.495 23.899,-3.498 77.449,-23.829 90.153,-23.317 16.39,0.673 32.892,16.873 30.445,35.428 z"
   id="path58" />

			<path
   style="fill:#263238;stroke-width:0.527589"
   d="m 245.615,289.613 c -1.407,1.426 -2.532,3.209 -3.745,4.8 -1.283,1.683 -2.587,3.349 -3.868,5.033 -0.013,0.017 -0.025,0.033 -0.038,0.05 0.227,-0.493 0.45,-0.989 0.686,-1.477 0.809,-1.675 1.456,-3.406 2.413,-5.007 0.058,-0.098 -0.091,-0.189 -0.151,-0.092 -0.983,1.591 -2.124,3.102 -2.965,4.776 -0.396,0.788 -0.771,1.584 -1.12,2.394 -0.191,0.443 -0.388,0.888 -0.559,1.339 -0.078,0.206 -0.177,0.425 -0.236,0.648 -0.574,0.781 -1.141,1.566 -1.693,2.365 -1.222,1.771 -2.301,3.642 -3.539,5.399 -0.066,0.094 0.083,0.181 0.151,0.092 1.253,-1.652 2.658,-3.191 3.931,-4.831 1.295,-1.669 2.525,-3.384 3.738,-5.112 1.184,-1.687 2.344,-3.39 3.527,-5.078 1.191,-1.7 2.604,-3.376 3.57,-5.215 0.034,-0.065 -0.047,-0.14 -0.102,-0.084 z"
   id="path59" />

		</g>

		<g
   id="g117"
   style="stroke-width:0.527589">
			<g
   id="g62"
   style="stroke-width:0.527589">
				<path
   style="fill:#263238;stroke-width:0.527589"
   d="m 112.486,231.287 c -0.544,12.062 -3.231,26.449 1.881,37.872 4.018,8.946 12.449,14.969 21.175,18.839 19.196,8.495 46.073,9.598 59.521,-9.456 5.368,-7.612 6.287,-23.468 -2.619,-29.271 -4.576,-2.97 -10.015,-3.658 -15.182,-5.057 -6.818,-1.825 -11.738,-5.654 -14.893,-12.004 -6.164,-12.367 -4.934,-21.425 -6.112,-34.803 -0.226,-2.481 -0.807,-4.928 -3.259,-7.021 -2.07,-2.14 -4.886,-3.605 -7.938,-4.406 -2.592,-1.04 -5.318,-1.648 -8.128,-1.344 -5.926,0.619 -11.613,6.084 -16.197,9.487 -4.638,3.45 -6.772,7.05 -7.131,12.871 -0.491,8.09 -0.745,16.196 -1.118,24.293 z"
   id="path60" />

				<path
   style="fill:#263238;stroke-width:0.527589"
   d="m 110.995,236.973 c 1.211,-11.024 2.637,-22.007 3.992,-33.01 0.008,-0.066 0.112,-0.066 0.106,0.003 -0.852,9.085 -1.579,18.172 -2.551,27.25 -0.952,8.895 -2.542,17.977 -2.71,26.925 -0.379,20.087 20.276,28.264 37.357,27.281 0.777,-0.045 0.761,1.198 -0.027,1.218 -15.023,0.391 -32.952,-4.741 -37.487,-21.067 -2.48,-8.93 0.329,-19.589 1.32,-28.6 z"
   id="path61" />

				<path
   style="fill:#263238;stroke-width:0.527589"
   d="m 155.288,196.352 c 0.005,-0.215 0.322,-0.204 0.331,0.007 0.504,11.047 0.054,23.974 6.344,33.594 3.078,4.708 7.585,8.452 12.799,10.576 4.145,1.689 8.544,1.836 12.882,2.689 16.96,3.331 17.123,26.232 4.8,35.164 -0.259,0.188 -0.592,-0.25 -0.34,-0.451 8.674,-6.912 11.535,-19.476 4.462,-28.7 -5.676,-7.403 -16.578,-5.054 -24.319,-9.05 -16.041,-8.281 -17.299,-27.788 -16.959,-43.829 z"
   id="path62" />

			</g>

			<g
   id="g67"
   style="stroke-width:0.527589">
				<path
   style="fill:#d3766a;stroke-width:0.527589"
   d="m 137.929,244.328 c 7.339,10.538 32.411,39.498 49.809,43.463 9.588,2.185 55.915,8.665 62.264,2.888 7.437,-6.765 3.987,-32.273 -1.925,-32.505 -18.044,-0.709 -51.437,2.822 -59.778,0.98 -3.774,-0.833 -23.773,-13.732 -45.13,-24.051 -8.075,-3.901 -9.976,2.425 -5.24,9.225 z"
   id="path63" />

				<g
   id="g66"
   style="stroke-width:0.527589">
					<g
   id="g64"
   style="stroke-width:0.527589">
						<path
   style="fill:#ebebeb;stroke-width:0.527589"
   d="m 155.851,269.595 7.007,-25.797 c 0,0 -11.749,-6.519 -18.759,-9.209 -9.277,-3.56 -12.774,-0.95 -7.085,9.822 3.806,7.206 18.837,25.184 18.837,25.184 z"
   id="path64" />

					</g>

					<g
   id="g65"
   style="stroke-width:0.527589">
						<path
   style="fill:#263238;stroke-width:0.527589"
   d="m 154.116,266.313 c 0.76,-3.825 1.573,-7.629 2.557,-11.404 0.491,-1.883 1.008,-3.757 1.556,-5.624 0.547,-1.864 1.287,-3.678 1.806,-5.547 0.029,-0.103 0.192,-0.05 0.158,0.051 -0.616,1.837 -0.987,3.777 -1.502,5.646 -0.517,1.876 -1.024,3.754 -1.52,5.635 -0.991,3.757 -1.991,7.515 -2.896,11.293 -0.026,0.106 -0.18,0.052 -0.159,-0.05 z"
   id="path65" />

					</g>

					<path
   style="fill:#263238;stroke-width:0.527589"
   d="m 161.755,247.858 -5.903,21.74 c 0,0 -15.026,-17.984 -18.842,-25.187 -1.753,-3.327 -2.636,-5.879 -2.743,-7.704 z"
   id="path66" />

				</g>

			</g>

			<g
   id="g71"
   style="stroke-width:0.527589">
				<path
   style="fill:#ebebeb;stroke-width:0.527589"
   d="m 100.202,315.713 c 2.304,0.742 67.842,-18.22 67.842,-18.22 l -7.739,-22.755 c 0,0 3.821,-7.317 2.047,-14.356 -2.37,-9.403 -19.777,-24.863 -21.143,-25.772 -5.491,-3.64 -10.64,-3.578 -15.188,-1.161 -18.951,10.068 -25.819,82.264 -25.819,82.264 z"
   id="path67" />

				<path
   style="fill:#263238;stroke-width:0.527589"
   d="m 150.2,242.803 c 1.687,1.965 3.499,3.833 5.243,5.756 -0.814,-1.434 -1.62,-2.872 -2.486,-4.276 -0.017,-0.028 0.02,-0.061 0.042,-0.033 1.26,1.676 2.415,3.409 3.324,5.292 1.291,1.468 2.525,2.982 3.613,4.613 1.306,1.957 2.399,4.052 2.977,6.345 0.577,2.288 0.576,4.699 0.199,7.019 -0.437,2.69 -1.301,5.281 -2.213,7.841 -0.121,0.339 -0.6,0.126 -0.508,-0.206 1.231,-4.443 2.626,-9.136 1.639,-13.769 -0.975,-4.576 -3.848,-8.467 -6.635,-12.11 -1.679,-2.194 -3.383,-4.396 -5.332,-6.36 -0.08,-0.081 0.062,-0.2 0.137,-0.112 z"
   id="path68" />

				<g
   id="g70"
   style="stroke-width:0.527589">
					<path
   style="fill:#263238;stroke-width:0.527589"
   d="m 139.279,273.099 c 2.819,-0.486 5.674,-0.881 8.537,-0.945 1.425,-0.032 2.841,0.002 4.264,0.066 0.709,0.032 1.416,0.041 2.125,0.045 0.728,0.004 1.503,-0.018 2.214,-0.193 0.064,-0.016 0.089,0.079 0.026,0.099 -0.68,0.211 -1.332,0.411 -2.036,0.53 -0.669,0.113 -1.354,0.155 -2.032,0.177 -1.445,0.046 -2.891,0.025 -4.336,0.057 -2.915,0.063 -5.829,0.127 -8.734,0.401 -0.132,0.012 -0.161,-0.214 -0.028,-0.237 z"
   id="path69" />

					<path
   style="fill:#263238;stroke-width:0.527589"
   d="m 133.168,277.439 c 2.189,-0.861 4.453,-1.631 6.726,-2.239 1.144,-0.306 2.296,-0.543 3.461,-0.751 0.556,-0.099 1.114,-0.189 1.673,-0.271 0.615,-0.091 1.243,-0.099 1.856,-0.199 0.064,-0.01 0.091,0.086 0.026,0.099 -0.576,0.111 -1.135,0.319 -1.703,0.464 -0.571,0.145 -1.143,0.286 -1.714,0.431 -1.143,0.291 -2.283,0.594 -3.429,0.874 -2.294,0.56 -4.573,1.141 -6.847,1.78 -0.123,0.034 -0.162,-0.144 -0.049,-0.188 z"
   id="path70" />

				</g>

			</g>

			<g
   id="g91"
   style="stroke-width:0.527589">
				<g
   id="g72"
   style="stroke-width:0.527589">
					<path
   style="fill:#d3766a;stroke-width:0.527589"
   d="m 130.114,234.729 c 0.26,1.189 5.804,8.96 11.223,8.784 1.765,-0.06 1.865,-9.707 1.865,-9.707 l 0.17,-0.71 2.375,-9.947 -13.293,-8.709 c 0,-0.001 -2.443,19.784 -2.34,20.289 z"
   id="path71" />

					<path
   style="fill:#263238;stroke-width:0.527589"
   d="m 145.748,223.145 -2.376,9.948 c -2.829,-1.109 -8.896,-4.312 -11.737,-11.895 0.407,-3.429 0.758,-6.281 0.803,-6.7 0.011,-0.034 0.011,-0.057 0.011,-0.057 l 1.686,1.019 z"
   id="path72" />

				</g>

				<g
   id="g90"
   style="stroke-width:0.527589">
					<path
   style="fill:#d3766a;stroke-width:0.527589"
   d="m 158.643,204.822 c 4.427,17.393 -5.491,22.009 -9.243,22.959 -3.406,0.863 -15.112,3.368 -21.312,-13.475 -6.2,-16.843 0.487,-24.399 8.172,-26.785 7.685,-2.385 17.956,-0.092 22.383,17.301 z"
   id="path73" />

					<g
   id="g86"
   style="stroke-width:0.527589">
						<path
   style="fill:#263238;stroke-width:0.527589"
   d="m 155.299,202.663 c -0.423,0.027 -0.818,-0.019 -1.239,-0.035 -0.475,-0.019 -0.856,0.015 -1.257,-0.277 -0.215,-0.157 -0.271,-0.544 -0.138,-0.767 0.309,-0.52 0.897,-0.642 1.47,-0.643 0.622,-0.001 1.102,0.158 1.583,0.549 0.467,0.379 0.139,1.137 -0.419,1.173 z"
   id="path74" />

						<path
   style="fill:#263238;stroke-width:0.527589"
   d="m 143.601,206.316 c 0.406,-0.123 0.759,-0.305 1.148,-0.468 0.439,-0.184 0.806,-0.286 1.08,-0.701 0.146,-0.222 0.062,-0.604 -0.14,-0.767 -0.472,-0.379 -1.065,-0.286 -1.602,-0.086 -0.582,0.218 -0.976,0.534 -1.29,1.07 -0.305,0.519 0.268,1.114 0.804,0.952 z"
   id="path75" />

						<g
   id="g78"
   style="stroke-width:0.527589">
							<g
   id="g77"
   style="stroke-width:0.527589">
								<path
   style="fill:#263238;stroke-width:0.527589"
   d="m 146.582,208.507 c -0.018,-0.044 -0.082,0.076 -0.07,0.125 0.284,1.189 0.409,2.599 -0.592,3.219 -0.031,0.019 -0.015,0.078 0.024,0.065 1.282,-0.459 1.098,-2.329 0.638,-3.409 z"
   id="path76" />

								<path
   style="fill:#263238;stroke-width:0.527589"
   d="m 145.256,207.476 c -1.955,0.249 -1.313,4.142 0.499,3.911 1.783,-0.228 1.14,-4.12 -0.499,-3.911 z"
   id="path77" />

							</g>

							<path
   style="fill:#263238;stroke-width:0.527589"
   d="m 144.526,207.808 c -0.304,0.276 -0.572,0.72 -0.975,0.828 -0.467,0.125 -0.892,-0.223 -1.267,-0.564 -0.039,-0.036 -0.067,0.004 -0.059,0.056 0.112,0.748 0.525,1.465 1.343,1.445 0.746,-0.019 1.161,-0.766 1.223,-1.546 0.012,-0.145 -0.143,-0.331 -0.265,-0.219 z"
   id="path78" />

						</g>

						<g
   id="g81"
   style="stroke-width:0.527589">
							<g
   id="g80"
   style="stroke-width:0.527589">
								<path
   style="fill:#263238;stroke-width:0.527589"
   d="m 153.498,206.954 c 0.002,-0.047 0.103,0.042 0.11,0.092 0.151,1.213 0.529,2.577 1.684,2.806 0.036,0.007 0.042,0.068 0,0.069 -1.362,0.022 -1.845,-1.794 -1.794,-2.967 z"
   id="path79" />

								<path
   style="fill:#263238;stroke-width:0.527589"
   d="m 154.378,205.523 c 1.918,-0.452 2.683,3.418 0.905,3.837 -1.748,0.413 -2.513,-3.457 -0.905,-3.837 z"
   id="path80" />

							</g>

							<path
   style="fill:#263238;stroke-width:0.527589"
   d="m 155.236,205.619 c 0.346,0.145 0.722,0.458 1.092,0.41 0.429,-0.056 0.659,-0.536 0.851,-0.991 0.02,-0.047 0.057,-0.021 0.068,0.03 0.167,0.736 0.074,1.554 -0.609,1.837 -0.623,0.258 -1.224,-0.283 -1.546,-0.985 -0.059,-0.131 0.004,-0.359 0.144,-0.301 z"
   id="path81" />

						</g>

						<path
   style="fill:#263238;stroke-width:0.527589"
   d="m 148.189,219.206 c 0.317,0.259 0.643,0.625 1.089,0.622 0.427,-0.003 0.906,-0.239 1.281,-0.424 0.037,-0.018 0.08,0.019 0.059,0.057 -0.274,0.496 -0.912,0.848 -1.485,0.801 -0.559,-0.046 -0.875,-0.498 -1.054,-0.99 -0.027,-0.068 0.064,-0.103 0.11,-0.066 z"
   id="path82" />

						<g
   id="g83"
   style="stroke-width:0.527589">
							<path
   style="fill:#263238;stroke-width:0.527589"
   d="m 152.629,213.694 c 0,0 0.517,1.768 0.644,2.62 0.012,0.08 -0.189,0.148 -0.475,0.208 -0.013,0.006 -0.02,0.013 -0.033,0.006 -1.469,0.458 -3.06,0.163 -4.156,-0.929 -0.071,-0.074 0.024,-0.178 0.109,-0.137 1.245,0.658 2.517,0.686 3.854,0.511 0.025,-0.245 -0.987,-2.999 -0.853,-3.029 0.46,-0.109 1.424,0.072 1.999,0.151 -0.971,-3.715 -2.529,-7.244 -3.44,-10.957 -0.03,-0.133 0.157,-0.202 0.214,-0.088 1.895,3.583 3.106,7.834 4.207,11.644 0.141,0.474 -1.707,0.094 -2.07,0 z"
   id="path83" />

						</g>

						<g
   id="g85"
   style="stroke-width:0.527589">
							<path
   style="fill:#263238;stroke-width:0.527589"
   d="m 152.706,216.19 c 0,0 -0.544,1.313 -1.569,1.995 -0.377,0.253 -0.809,0.423 -1.308,0.415 -1.024,-0.012 -1.268,-0.888 -1.281,-1.687 -0.012,-0.656 0.142,-1.263 0.142,-1.263 0,0 1.732,0.963 4.016,0.54 z"
   id="path84" />

							<path
   style="fill:#ff9cbd;stroke-width:0.527589"
   d="m 151.137,218.185 c -0.377,0.253 -0.809,0.423 -1.308,0.415 -1.024,-0.012 -1.268,-0.888 -1.281,-1.687 1.057,-0.152 2.252,0.292 2.589,1.272 z"
   id="path85" />

						</g>

					</g>

					<path
   style="fill:#263238;stroke-width:0.527589"
   d="m 129.334,215.61 c 1.872,-0.622 5.424,-7.182 3.117,-16.409 0,0 1.499,8.429 1.203,9.804 -0.297,1.374 1.981,-3.686 0.224,-11.154 0,0 4.896,1.863 8.657,1.907 3.761,0.044 5.892,-0.562 6.075,-0.882 0.182,-0.32 -5.4,-0.564 -7.222,-1.797 0,0 10.464,1.836 14.842,1.014 0.507,-0.095 -1.633,-10.458 -9.424,-13.014 -7.79,-2.556 -17.045,4.933 -19.139,8.418 0,0 -3.191,1.36 -5.483,7.231 -2.293,5.871 5.134,15.552 7.15,14.882 z"
   id="path86" />

					<g
   id="g89"
   style="stroke-width:0.527589">
						<g
   id="g88"
   style="stroke-width:0.527589">
							<path
   style="fill:#d3766a;stroke-width:0.527589"
   d="m 131.192,214.939 c 0,0 -4.773,-4.894 -7.055,-3.104 -2.282,1.79 1.94,9.327 5.064,9.939 3.125,0.613 3.749,-2.268 3.749,-2.268 z"
   id="path87" />

							<path
   style="fill:#263238;stroke-width:0.527589"
   d="m 125.401,213.966 c -0.048,0.003 -0.046,0.071 -0.003,0.081 2.202,0.498 3.604,2.234 4.691,4.094 -0.74,-0.663 -1.644,-0.945 -2.548,-0.046 -0.047,0.047 0.018,0.123 0.074,0.101 0.816,-0.32 1.45,-0.273 2.133,0.31 0.483,0.413 0.859,0.974 1.24,1.481 0.127,0.169 0.444,0.015 0.339,-0.186 -0.008,-0.015 -0.017,-0.03 -0.024,-0.045 -0.381,-2.641 -3.032,-5.989 -5.902,-5.79 z"
   id="path88" />

						</g>

					</g>

				</g>

			</g>

			<g
   id="g107"
   style="stroke-width:0.527589">
				<g
   id="g98"
   style="stroke-width:0.527589">
					<path
   style="fill:#d3766a;stroke-width:0.527589"
   d="m 116.641,249.481 c -5.269,29.893 -0.175,52.283 4.903,55.056 13.67,7.465 46.492,-7.676 55.753,-10.684 3.744,-1.216 -13.317,-29.841 -17.137,-28.076 -9.001,4.159 -21.613,11.22 -22.121,11.167 -1.014,-0.105 -2.199,-7.733 -7.423,-29.97 -4.226,-17.99 -11.82,-9.716 -13.975,2.507 z"
   id="path91" />

					<g
   id="g96"
   style="stroke-width:0.527589">
						<path
   style="fill:#d3766a;stroke-width:0.527589"
   d="m 207.141,251.614 c 0.937,3.755 -8.517,5.28 -8.517,5.28 0,0 2.544,0.821 3.746,3.091 1.376,2.6 -2.098,5.898 -2.098,5.898 0,0 2.404,1.364 3.432,3.89 1.067,2.621 -1.964,6.448 -1.964,6.448 0,0 1.541,2.501 0.863,5.321 -1.158,4.822 -8.549,6.72 -12.891,8.799 -4.652,2.227 -12.349,3.045 -15.842,4.617 l -15.133,-27.717 c 0,0 14.62,-15.479 22.964,-17.88 4.628,-1.331 24.007,-3.487 25.44,2.253 z"
   id="path92" />

						<g
   id="g95"
   style="stroke-width:0.527589">
							<path
   style="fill:#263238;stroke-width:0.527589"
   d="m 198.52,256.806 c -5.262,-0.229 -10.568,0.801 -15.678,1.852 -0.114,0.023 -0.075,0.201 0.038,0.176 5.069,-1.104 10.556,-0.879 15.659,-1.779 0.141,-0.024 0.122,-0.242 -0.019,-0.249 z"
   id="path93" />

							<path
   style="fill:#263238;stroke-width:0.527589"
   d="m 200.043,265.535 c -1.192,-0.016 -2.385,0.361 -3.53,0.657 -1.232,0.318 -2.458,0.658 -3.679,1.016 -2.444,0.718 -4.872,1.491 -7.276,2.336 -0.107,0.037 -0.076,0.21 0.038,0.176 2.437,-0.711 4.885,-1.386 7.35,-1.993 1.234,-0.304 2.47,-0.598 3.708,-0.883 1.152,-0.266 2.389,-0.45 3.461,-0.968 0.159,-0.076 0.108,-0.338 -0.072,-0.341 z"
   id="path94" />

							<path
   style="fill:#263238;stroke-width:0.527589"
   d="m 201.635,276.249 c -1.035,-0.056 -2.171,0.452 -3.146,0.761 -1.107,0.35 -2.215,0.694 -3.326,1.032 -2.221,0.676 -4.442,1.35 -6.685,1.948 -0.112,0.03 -0.075,0.206 0.038,0.177 2.282,-0.596 4.572,-1.16 6.849,-1.777 1.118,-0.302 2.235,-0.611 3.349,-0.926 0.948,-0.268 2.163,-0.494 2.96,-1.105 0.045,-0.034 0.013,-0.107 -0.039,-0.11 z"
   id="path95" />

						</g>

					</g>

					<g
   id="g97"
   style="stroke-width:0.527589">
						<path
   style="fill:#263238;stroke-width:0.527589"
   d="m 138.039,276.944 c 3.58,-2.069 7.213,-4.037 10.856,-5.988 l 5.505,-2.851 2.772,-1.394 c 0.952,-0.458 1.81,-0.906 2.907,-1.286 l -0.175,0.097 c 2.439,-2.37 4.888,-4.722 7.472,-6.932 1.286,-1.11 2.588,-2.204 3.934,-3.243 1.352,-1.026 2.727,-2.047 4.236,-2.832 -1.429,0.916 -2.745,1.984 -4.025,3.092 -1.281,1.107 -2.551,2.225 -3.787,3.383 -2.463,2.323 -4.938,4.64 -7.318,7.045 l -0.051,0.052 -0.125,0.045 c -0.851,0.31 -1.83,0.823 -2.745,1.245 l -2.78,1.357 -5.539,2.771 c -3.705,1.824 -7.4,3.671 -11.137,5.439 z"
   id="path96" />

					</g>

				</g>

				<g
   id="g106"
   style="stroke-width:0.527589">
					<g
   id="g99"
   style="stroke-width:0.527589">
						<path
   style="fill:#ebebeb;stroke-width:0.527589"
   d="m 111.56,275.477 23.887,-12 c 0,0 -2.987,-13.1 -5.662,-20.116 -3.541,-9.284 -7.818,-10.146 -12.043,1.279 -2.827,7.646 -6.182,30.837 -6.182,30.837 z"
   id="path98" />

					</g>

					<g
   id="g105"
   style="stroke-width:0.527589">
						<path
   style="fill:#263238;stroke-width:0.527589"
   d="m 112.846,271.995 c 3.356,-1.987 6.731,-3.92 10.199,-5.707 1.729,-0.891 3.471,-1.757 5.226,-2.595 1.753,-0.837 3.598,-1.496 5.336,-2.358 0.096,-0.047 0.166,0.11 0.067,0.152 -1.779,0.767 -3.472,1.786 -5.207,2.65 -1.742,0.867 -3.479,1.743 -5.211,2.629 -3.459,1.769 -6.925,3.533 -10.343,5.38 -0.095,0.052 -0.157,-0.098 -0.067,-0.151 z"
   id="path99" />

						<g
   id="g102"
   style="stroke-width:0.527589">
							<g
   id="g100"
   style="stroke-width:0.527589">
								<path
   style="fill:#263238;stroke-width:0.527589"
   d="m 114.417,274.042 c -0.912,0.558 -1.843,1.08 -2.77,1.61 l -0.324,0.186 0.043,-0.389 c 0.362,-3.303 0.833,-6.59 1.413,-9.859 0.586,-3.268 1.252,-6.525 2.139,-9.733 -0.194,1.653 -0.422,3.296 -0.667,4.937 -0.228,1.644 -0.482,3.282 -0.751,4.918 -0.524,3.274 -1.11,6.539 -1.747,9.796 l -0.281,-0.204 c 0.978,-0.428 1.952,-0.864 2.945,-1.262 z"
   id="path100" />

							</g>

							<g
   id="g101"
   style="stroke-width:0.527589">
								<path
   style="fill:#263238;stroke-width:0.527589"
   d="m 113.609,259.151 c 0.079,0.768 0.063,1.534 0.053,2.3 -0.038,0.765 -0.069,1.53 -0.196,2.292 -0.08,-0.769 -0.063,-1.534 -0.053,-2.3 0.038,-0.765 0.069,-1.53 0.196,-2.292 z"
   id="path101" />

							</g>

						</g>

						<g
   id="g104"
   style="stroke-width:0.527589">
							<path
   style="fill:#263238;stroke-width:0.527589"
   d="m 132.537,264.948 c 0.233,-0.175 2.646,-1.489 2.846,-1.533 -0.39,-1.532 -0.8,-3.059 -1.173,-4.595 -0.186,-0.767 -0.36,-1.541 -0.522,-2.314 -0.178,-0.853 -0.426,-1.812 -0.584,-2.566 -0.025,-0.118 0.122,-0.161 0.158,-0.046 0.303,0.959 0.498,1.685 0.755,2.517 0.229,0.742 0.443,1.495 0.638,2.247 0.414,1.593 0.925,3.273 1.261,4.884 0.026,0.124 -3.062,1.414 -3.34,1.493 -0.048,0.015 -0.076,-0.059 -0.039,-0.087 z"
   id="path102" />

							<g
   id="g103"
   style="stroke-width:0.527589">
								<path
   style="fill:#263238;stroke-width:0.527589"
   d="m 134.445,255.018 c 0.103,0.476 0.11,0.952 0.125,1.429 -0.014,0.476 -0.021,0.952 -0.125,1.429 -0.104,-0.476 -0.111,-0.952 -0.125,-1.429 0.015,-0.477 0.022,-0.953 0.125,-1.429 z"
   id="path103" />

							</g>

						</g>

					</g>

				</g>

			</g>

			<g
   id="g116"
   style="stroke-width:0.527589">
				<g
   id="g111"
   style="stroke-width:0.527589">
					<g
   id="g108"
   style="stroke-width:0.527589">
						<rect
   x="158.853"
   y="292.388"
   style="fill:#c7c7c7;stroke-width:0.527589"
   width="69.539001"
   height="3.119"
   id="rect107" />

					</g>

					<g
   id="g109"
   style="stroke-width:0.527589">
						<polygon
   style="fill:#a6a6a6;stroke-width:0.527589"
   points="228.392,295.507 228.392,292.388 173.732,292.388 171.351,295.507 "
   id="polygon108" />

					</g>

					<g
   id="g110"
   style="stroke-width:0.527589">
						<polygon
   style="fill:#c7c7c7;stroke-width:0.527589"
   points="250.12,249.476 182.349,249.476 176.707,295.504 244.477,295.504 "
   id="polygon109" />

						<path
   style="fill:#ffffff;stroke-width:0.527589"
   d="m 209.288,272.49 c -0.04,2.278 1.774,4.125 4.053,4.125 2.278,0 4.158,-1.847 4.198,-4.125 0.04,-2.278 -1.774,-4.125 -4.053,-4.125 -2.279,0 -4.158,1.847 -4.198,4.125 z"
   id="path109" />

					</g>

				</g>

				<g
   id="g115"
   style="stroke-width:0.527589">
					<path
   style="fill:#d3766a;stroke-width:0.527589"
   d="m 249.57,253.927 c 2.553,3.943 8.86,8.554 9.726,11.937 0.783,3.054 -1.65,4.485 -1.65,4.485 0,0 3.655,1.257 3.935,4.456 0.145,1.646 -2.359,3.323 -2.359,3.323 0,0 2.885,1.135 2.959,3.995 0.059,2.279 -2.458,3.618 -2.458,3.618 0,0 2.26,2.379 1.576,4.72 -1.388,4.747 -20.788,7.311 -24.729,0.561 -1.837,-3.146 2.936,-3.515 2.936,-3.515 0,0 -6.991,-1.127 -7.622,-5.113 -0.631,-3.986 5.599,-4.091 5.599,-4.091 0,0 -6.766,-1.151 -7.003,-5.35 -0.247,-4.371 6.003,-3.409 6.003,-3.409 0,0 -4.7,-2.355 -4.146,-5.61 0.915,-5.376 11.98,0.338 16.109,-1.237 z"
   id="path111" />

					<g
   id="g114"
   style="stroke-width:0.527589">
						<path
   style="fill:#263238;stroke-width:0.527589"
   d="m 259.357,286.011 c 0.064,-0.014 0.095,0.073 0.033,0.098 -6.176,2.398 -13.695,3.141 -20.142,1.45 -0.212,-0.055 -0.213,-0.423 0.031,-0.407 6.978,0.472 13.208,0.334 20.078,-1.141 z"
   id="path112" />

						<path
   style="fill:#263238;stroke-width:0.527589"
   d="m 259.322,278.156 c 0.074,-0.016 0.102,0.107 0.026,0.136 -6.377,2.437 -14.87,3.04 -22.071,0.216 -0.247,-0.097 -0.371,-0.431 -0.079,-0.341 4.932,1.515 15.946,1.349 22.124,-0.011 z"
   id="path113" />

						<path
   style="fill:#263238;stroke-width:0.527589"
   d="m 236.023,269.174 c 7.009,2.44 14.096,2.388 21.367,1.288 0.095,-0.014 0.105,0.121 0.029,0.155 -3.41,1.507 -8.118,1.725 -11.795,1.585 -3.522,-0.134 -6.674,-0.963 -9.686,-2.783 -0.118,-0.07 -0.065,-0.297 0.085,-0.245 z"
   id="path114" />

					</g>

				</g>

			</g>

		</g>

		<g
   id="g126"
   style="stroke-width:0.527589">
			<g
   id="g125"
   style="stroke-width:0.527589">
				<g
   id="g118"
   style="stroke-width:0.527589">
					<path
   style="fill:#d3766a;stroke-width:0.527589"
   d="m 387.054,385.453 c -0.951,2.567 -47.535,60.473 -50.707,61.559 -1.201,0.418 -10.03,-5.875 -20.482,-13.781 -2.258,-1.707 -4.578,-3.484 -6.925,-5.301 -15.249,-11.782 -31.154,-24.639 -31.154,-24.639 l 31.05,-38.826 30.299,25.708 6.656,5.638 c 0,0 27.752,-14.193 31.359,-15.01 3.597,-0.805 10.855,2.085 9.904,4.652 z"
   id="path117" />

					<path
   style="fill:#263238;stroke-width:0.527589"
   d="m 387.059,385.456 c -0.954,2.564 -47.536,60.475 -50.708,61.56 -1.049,0.37 -7.931,-4.401 -16.636,-10.888 8.885,-6.464 42.622,-36.862 47.154,-45.091 2.385,-4.329 -1.097,-4.293 -5.355,-3.101 6.953,-3.423 13.941,-6.75 15.634,-7.132 3.602,-0.81 10.853,2.088 9.911,4.652 z"
   id="path118" />

				</g>

				<g
   id="g124"
   style="stroke-width:0.527589">
					<path
   style="fill:#37474f;stroke-width:0.527589"
   d="m 337.514,384.315 -32.312,43.596 -109.036,-75.66 -10.514,-7.3 c 0,0 -2.977,2.003 -7.458,4.482 -6.225,3.441 -15.347,7.798 -23.417,8.986 -13.536,2.003 -36.138,1.788 -47.546,-13.468 -9.609,-12.846 -4.39,-29.606 -4.39,-29.606 l 14.862,-6.382 c 0,0 35.172,-29.305 57.955,-30.188 9.677,-0.385 23.767,6.949 36.817,14.611 13.038,7.652 125.039,90.929 125.039,90.929 z"
   id="path119" />

					<path
   style="fill:#263238;stroke-width:0.527589"
   d="m 185.651,344.951 c 0,0 -2.977,2.003 -7.458,4.482 -7.923,-9.484 -24.695,-26.711 -25.205,-27.322 z"
   id="path120" />

					<path
   style="fill:#263238;stroke-width:0.527589"
   d="m 130.59,299.154 c -2.103,1.46 -4.136,3.011 -6.21,4.51 -2.04,1.474 -4.147,2.859 -6.086,4.468 -1.972,1.637 -3.842,3.385 -5.7,5.148 -0.896,0.851 -1.786,1.708 -2.652,2.59 -0.859,0.874 -1.82,1.75 -2.532,2.748 -0.066,0.093 0.067,0.204 0.155,0.147 1.004,-0.644 1.906,-1.527 2.818,-2.293 0.985,-0.828 1.958,-1.669 2.937,-2.502 1.891,-1.607 3.818,-3.169 5.704,-4.781 1.874,-1.601 3.61,-3.354 5.465,-4.974 1.986,-1.736 4.08,-3.352 6.144,-4.994 0.038,-0.031 10e-4,-0.097 -0.043,-0.067 z"
   id="path121" />

					<path
   style="fill:#263238;stroke-width:0.527589"
   d="m 329.927,382.75 c -2.098,2.264 -4.039,4.699 -5.994,7.088 -1.963,2.398 -3.913,4.807 -5.85,7.226 -3.875,4.841 -7.784,9.66 -11.592,14.554 -2.093,2.689 -4.157,5.397 -6.103,8.195 -0.087,0.125 0.112,0.265 0.212,0.156 4.169,-4.584 7.98,-9.475 11.847,-14.311 3.874,-4.846 7.735,-9.704 11.536,-14.608 2.08,-2.683 4.224,-5.353 6.136,-8.159 0.076,-0.114 -0.102,-0.238 -0.192,-0.141 z"
   id="path122" />

					<path
   style="fill:#263238;stroke-width:0.527589"
   d="m 240.443,383.195 c -5.425,-4.275 -11.05,-8.311 -16.675,-12.321 -5.596,-3.99 -11.189,-7.991 -16.869,-11.861 -1.631,-1.111 -3.276,-2.199 -4.919,-3.292 -1.639,-1.09 -3.347,-2.097 -4.954,-3.229 -0.093,-0.066 -0.177,0.09 -0.085,0.155 1.476,1.058 2.869,2.244 4.319,3.342 1.385,1.048 2.758,2.109 4.154,3.142 2.724,2.017 5.475,3.995 8.222,5.981 5.571,4.027 11.183,8.004 16.852,11.892 3.219,2.208 6.422,4.423 9.712,6.522 0.195,0.127 0.429,-0.184 0.243,-0.331 z"
   id="path123" />

					<path
   style="fill:#263238;stroke-width:0.527589"
   d="m 275.312,338.212 c -5.014,-4.155 -10.387,-7.891 -15.641,-11.731 -5.315,-3.886 -10.603,-7.807 -15.938,-11.664 -5.294,-3.827 -10.587,-7.653 -15.881,-11.48 -5.131,-3.709 -10.238,-7.479 -15.658,-10.763 -2.966,-1.797 -6.008,-3.463 -9.135,-4.964 -3.037,-1.457 -6.193,-2.941 -9.441,-3.856 -0.097,-0.027 -0.151,0.115 -0.064,0.163 2.672,1.492 5.477,2.748 8.18,4.187 2.672,1.423 5.305,2.921 7.894,4.49 5.38,3.262 10.46,6.967 15.564,10.637 10.6,7.623 21.177,15.277 31.852,22.794 5.973,4.206 11.824,8.646 18.028,12.512 0.195,0.121 0.419,-0.177 0.24,-0.325 z"
   id="path124" />

				</g>

			</g>

		</g>

	</g>

</g>
      <g
         id="Mail_Icon"
         transform="matrix(0.26458333,0,0,0.26458333,184.41458,177.28697)"
         style="stroke-width:0.527589">
	<g
   id="g147"
   style="stroke-width:0.527589">
		
			<circle
   transform="matrix(0.1618,-0.9868,0.9868,0.1618,-32.224,417.8984)"
   style="fill:#facd60;fill-opacity:1;stroke-width:0.527589"
   cx="229.875"
   cy="227.91701"
   id="ellipse127"
   r="31.200001" />

		<g
   id="g145"
   style="stroke-width:0.527589">
			<polygon
   style="fill:#a6a6a6;stroke-width:0.527589"
   points="229.872,205.768 248.054,217.31 248.054,248.067 211.695,248.067 211.695,217.31 "
   id="polygon127" />

			<g
   id="g141"
   style="stroke-width:0.527589">
				<polygon
   style="fill:#ffffff;stroke-width:0.527589"
   points="246.003,215.245 246.003,247.764 213.746,247.764 213.746,207.355 237.697,207.355 "
   id="polygon128" />

				<polygon
   style="fill:#ebebeb;stroke-width:0.527589"
   points="237.697,207.355 246.003,215.245 237.697,215.245 "
   id="polygon129" />

				<g
   id="g129"
   style="stroke-width:0.527589">
					
						<rect
   x="216.89301"
   y="214.30299"
   transform="rotate(180,225.8603,214.83465)"
   style="fill:#dbdbdb;stroke-width:0.527589"
   width="17.934999"
   height="1.063"
   id="rect129" />

				</g>

				<g
   id="g130"
   style="stroke-width:0.527589">
					
						<rect
   x="216.89301"
   y="216.987"
   transform="rotate(180,225.8603,217.51845)"
   style="fill:#dbdbdb;stroke-width:0.527589"
   width="17.934999"
   height="1.063"
   id="rect130" />

				</g>

				<g
   id="g131"
   style="stroke-width:0.527589">
					
						<rect
   x="216.89301"
   y="219.67101"
   transform="rotate(180,225.8603,220.2022)"
   style="fill:#dbdbdb;stroke-width:0.527589"
   width="17.934999"
   height="1.063"
   id="rect131" />

				</g>

				<g
   id="g132"
   style="stroke-width:0.527589">
					
						<rect
   x="216.89301"
   y="222.354"
   transform="rotate(180,230.0317,222.88605)"
   style="fill:#dbdbdb;stroke-width:0.527589"
   width="26.278"
   height="1.063"
   id="rect132" />

				</g>

				<g
   id="g133"
   style="stroke-width:0.527589">
					
						<rect
   x="216.89301"
   y="225.03799"
   transform="rotate(180,230.0317,225.5699)"
   style="fill:#dbdbdb;stroke-width:0.527589"
   width="26.278"
   height="1.063"
   id="rect133" />

				</g>

				<g
   id="g134"
   style="stroke-width:0.527589">
					
						<rect
   x="216.89301"
   y="227.722"
   transform="rotate(180,230.0317,228.25375)"
   style="fill:#dbdbdb;stroke-width:0.527589"
   width="26.278"
   height="1.063"
   id="rect134" />

				</g>

				<g
   id="g135"
   style="stroke-width:0.527589">
					
						<rect
   x="216.89301"
   y="230.40601"
   transform="rotate(180,230.0317,230.9376)"
   style="fill:#dbdbdb;stroke-width:0.527589"
   width="26.278"
   height="1.063"
   id="rect135" />

				</g>

				<g
   id="g136"
   style="stroke-width:0.527589">
					
						<rect
   x="216.89301"
   y="233.09"
   transform="rotate(180,230.0317,233.62135)"
   style="fill:#dbdbdb;stroke-width:0.527589"
   width="26.278"
   height="1.063"
   id="rect136" />

				</g>

				<g
   id="g137"
   style="stroke-width:0.527589">
					
						<rect
   x="216.89301"
   y="235.77299"
   transform="rotate(180,230.0317,236.3052)"
   style="fill:#dbdbdb;stroke-width:0.527589"
   width="26.278"
   height="1.063"
   id="rect137" />

				</g>

				<g
   id="g138"
   style="stroke-width:0.527589">
					
						<rect
   x="216.89301"
   y="238.457"
   transform="rotate(180,230.0317,238.98905)"
   style="fill:#dbdbdb;stroke-width:0.527589"
   width="26.278"
   height="1.063"
   id="rect138" />

				</g>

				<g
   id="g139"
   style="stroke-width:0.527589">
					
						<rect
   x="216.89301"
   y="241.14101"
   transform="rotate(180,230.0317,241.6729)"
   style="fill:#dbdbdb;stroke-width:0.527589"
   width="26.278"
   height="1.063"
   id="rect139" />

				</g>

				<g
   id="g140"
   style="stroke-width:0.527589">
					
						<rect
   x="216.89301"
   y="243.825"
   transform="rotate(180,230.0317,244.3567)"
   style="fill:#dbdbdb;stroke-width:0.527589"
   width="26.278"
   height="1.063"
   id="rect140" />

				</g>

			</g>

			<path
   style="fill:#ebebeb;stroke-width:0.527589"
   d="m 248.054,225.009 v 23.058 h -36.358 v -23.058 c 1.562,0.885 3.096,1.813 4.641,2.719 1.54,0.923 3.08,1.846 4.608,2.785 1.703,1.037 3.407,2.091 5.105,3.156 0.016,-0.011 0.038,-0.022 0.055,-0.033 -0.016,0.011 -0.027,0.027 -0.044,0.038 1.272,0.792 2.544,1.589 3.816,2.386 1.267,-0.797 2.539,-1.6 3.811,-2.386 -0.016,-0.011 -0.027,-0.027 -0.044,-0.038 0.016,0.011 0.038,0.022 0.055,0.027 1.698,-1.059 3.396,-2.113 5.105,-3.156 1.529,-0.934 3.063,-1.862 4.603,-2.779 1.551,-0.906 3.085,-1.835 4.647,-2.719 z"
   id="path141" />

			<g
   id="g144"
   style="stroke-width:0.527589">
				<path
   style="fill:#dbdbdb;stroke-width:0.527589"
   d="m 248.054,225.009 c -1.469,1.032 -2.965,2.02 -4.445,3.036 -1.491,0.994 -2.987,1.987 -4.488,2.97 -1.567,1.027 -3.139,2.042 -4.712,3.052 -0.049,0.033 -0.093,0.066 -0.142,0.098 -1.392,0.89 -2.79,1.78 -4.188,2.67 l -0.207,0.126 -0.202,-0.126 c -1.398,-0.89 -2.79,-1.78 -4.182,-2.675 -0.049,-0.027 -0.098,-0.06 -0.147,-0.093 -1.578,-1.01 -3.151,-2.026 -4.718,-3.058 -1.496,-0.977 -2.992,-1.971 -4.483,-2.965 -1.48,-1.016 -2.976,-2.004 -4.445,-3.036 1.562,0.885 3.096,1.813 4.641,2.719 1.54,0.923 3.08,1.846 4.608,2.785 1.703,1.037 3.407,2.091 5.105,3.156 0.005,0 0.005,0 0.011,0.005 1.272,0.792 2.544,1.589 3.816,2.386 1.267,-0.797 2.539,-1.6 3.811,-2.386 0.006,-0.011 0.006,-0.011 0.011,-0.011 1.698,-1.059 3.396,-2.113 5.105,-3.156 1.529,-0.934 3.063,-1.862 4.603,-2.779 1.552,-0.905 3.086,-1.834 4.648,-2.718 z"
   id="path142" />

				<path
   style="fill:#dbdbdb;stroke-width:0.527589"
   d="m 226.104,233.636 c -0.016,0.011 -0.027,0.027 -0.044,0.038 -0.191,0.164 -0.382,0.328 -0.573,0.486 -0.912,0.77 -1.845,1.507 -2.795,2.222 -1.158,0.884 -2.342,1.731 -3.533,2.572 -1.196,0.825 -2.397,1.644 -3.626,2.43 -1.229,0.786 -2.468,1.556 -3.751,2.26 1.103,-0.966 2.249,-1.867 3.407,-2.746 1.163,-0.884 2.348,-1.731 3.533,-2.572 1.201,-0.83 2.402,-1.649 3.631,-2.435 0.977,-0.628 1.971,-1.245 2.987,-1.824 0.235,-0.136 0.469,-0.267 0.71,-0.399 0.016,-0.01 0.038,-0.021 0.054,-0.032 z"
   id="path143" />

				<path
   style="fill:#dbdbdb;stroke-width:0.527589"
   d="m 247.966,243.644 c -1.283,-0.704 -2.528,-1.474 -3.751,-2.26 -1.228,-0.786 -2.43,-1.605 -3.631,-2.43 -1.19,-0.841 -2.375,-1.687 -3.533,-2.572 -0.945,-0.715 -1.878,-1.447 -2.785,-2.217 -0.197,-0.164 -0.388,-0.328 -0.579,-0.491 -0.016,-0.011 -0.027,-0.027 -0.044,-0.038 0.016,0.011 0.038,0.022 0.055,0.027 0.24,0.137 0.475,0.268 0.71,0.404 1.016,0.579 2.004,1.196 2.987,1.824 1.229,0.786 2.43,1.605 3.625,2.435 1.19,0.841 2.375,1.687 3.533,2.572 1.164,0.879 2.311,1.78 3.413,2.746 z"
   id="path144" />

			</g>

		</g>

		<g
   id="g146"
   style="stroke-width:0.527589">
			
				<circle
   transform="matrix(0.2305,-0.9731,0.9731,0.2305,-38.2965,393.8482)"
   style="fill:#facd60;fill-opacity:1;stroke-width:0.527589"
   cx="229.875"
   cy="221.138"
   id="ellipse145"
   r="7.6469998" />

			<path
   style="fill:#ffffff;stroke-width:0.527589"
   d="m 225.976,221.794 c 1.12,0.903 2.123,1.906 3.103,2.929 l -0.7,0.048 c 0.385,-0.667 0.795,-1.318 1.207,-1.968 0.424,-0.642 0.84,-1.289 1.292,-1.913 0.892,-1.255 1.824,-2.484 2.895,-3.623 -0.604,1.442 -1.348,2.793 -2.131,4.119 -0.386,0.667 -0.808,1.31 -1.221,1.958 -0.426,0.641 -0.853,1.28 -1.306,1.904 l -0.357,0.491 -0.343,-0.443 c -0.868,-1.121 -1.711,-2.261 -2.439,-3.502 z"
   id="path145" />

		</g>

	</g>

</g>
    </g>
  </g>
</svg>
