<svg xmlns="http://www.w3.org/2000/svg" xmlns:xlink="http://www.w3.org/1999/xlink">
    <g transform="matrix(0.7856796677608722,0,0,0.7856796677608722,0,-8.988175069500068)">
        <path d="M23.04 40 l-2.28 -6.08 l-12.6 0 l-2.32 6.08 l-5.68 0 l10.72 -28 l7.12 0 l10.76 28 l-5.72 0 z M9.96 29.08 l8.96 0 l-4.48 -11.84 z M44.6 12 c6.16 0 9.72 5.08 9.72 9.72 c0 4.72 -3.52 9.72 -9.96 9.72 l-7.44 0 l0 8.56 l-5.44 0 l0 -28 l13.12 0 z M44.2 26.560000000000002 c2.96 0 4.8 -2.36 4.8 -4.8 c0 -2.48 -1.88 -4.8 -4.56 -4.8 l-7.52 0 l0 9.6 l7.28 0 z M69.16 40.56 c-6.84 0 -11.36 -4.12 -12.92 -8.48 l5.24 -1.6 c1.12 2.92 3.96 5.24 8 5.24 c3.28 0 5.32 -1.68 5.32 -3.52 c0 -1.48 -1 -2.48 -3.68 -3.36 l-7.16 -2.24 c-3.68 -1.16 -6.36 -3.52 -6.32 -7.12 c-0.04 -4.36 4.2 -8.04 10.04 -8.04 c6.04 0 10.52 3.32 12.04 7.2 l-5.08 1.48 c-1.16 -2.28 -3.76 -3.84 -6.92 -3.84 c-2.76 0 -4.52 1.4 -4.52 3.04 c0 1.24 0.84 2.08 2.68 2.64 l6.96 2.24 c4.28 1.32 7.52 3.12 7.52 7.68 c0 4.8 -4.48 8.68 -11.2 8.68 z M125.76 12 l5.76 0 l-8.48 28 l-5.8 0 l-5.52 -18.8 l-5.52 18.8 l-5.8 0 l-8.52 -28 l5.76 0 l5.76 20.28 l5.84 -20.28 l4.92 0 l5.84 20.28 z M147.88 40.56 c-8.48 0 -14.72 -6.32 -14.72 -14.6 c0 -8.24 6.24 -14.52 14.72 -14.52 c8.44 0 14.68 6.28 14.68 14.52 c0 8.28 -6.24 14.6 -14.68 14.6 z M147.88 35.480000000000004 c5.52 0 9.16 -4.16 9.16 -9.52 c0 -5.24 -3.64 -9.44 -9.16 -9.44 c-5.56 0 -9.16 4.2 -9.16 9.44 c0 5.36 3.6 9.52 9.16 9.52 z M184.36 40 l-6.36 -9.8 l-5.96 0 l0 9.8 l-5.44 0 l0 -28 l13.64 0 c6.08 0 9.6 4.68 9.6 9.12 c0 3.68 -2.16 7.16 -6.12 8.52 l6.96 10.36 l-6.32 0 z M172.04 16.92 l0 8.48 l7.84 0 c2.84 0 4.64 -1.96 4.64 -4.28 c0 -2.24 -1.84 -4.2 -4.44 -4.2 l-8.04 0 z M199.88000000000002 34.96 l13.96 0 l0 5.04 l-19.44 0 l0 -28 l5.48 0 l0 22.96 z M229.52 12 c8.16 0 13.4 5.76 13.4 14 c0 8.08 -5.16 14 -13.4 14 l-12.16 0 l0 -28 l12.16 0 z M229.40000000000003 35.04 c4.8 0 8 -3.76 8 -9.16 c0 -5.32 -3.2 -8.96 -8 -8.96 l-6.6 0 l0 18.12 l6.6 0 z M288.28000000000003 12 l5.76 0 l-8.48 28 l-5.8 0 l-5.52 -18.8 l-5.52 18.8 l-5.8 0 l-8.52 -28 l5.76 0 l5.76 20.28 l5.84 -20.28 l4.92 0 l5.84 20.28 z M296.84000000000003 40 l0 -28 l5.56 0 l0 28 l-5.56 0 z M319.76 12 c8.16 0 13.4 5.76 13.4 14 c0 8.08 -5.16 14 -13.4 14 l-12.16 0 l0 -28 l12.16 0 z M319.64 35.04 c4.8 0 8 -3.76 8 -9.16 c0 -5.32 -3.2 -8.96 -8 -8.96 l-6.6 0 l0 18.12 l6.6 0 z M357.84000000000003 16.96 l-15.28 0 l0 6.4 l13.24 0 l0 4.8 l-13.24 0 l0 6.88 l15.24 0 l0 4.96 l-20.6 0 l0 -28 l20.64 0 l0 4.96 z"></path>
    </g>
    <g transform="matrix(1.5519212224904262,0,0,1.5519212224904262,0,15.246020385894173)">
        <path d="M16.16 40.56 c-8.44 0 -14.72 -6.32 -14.72 -14.6 c0 -8.24 6.28 -14.52 14.6 -14.52 c7.56 0 12.28 4.64 13.56 9.08 l-5.36 1.32 c-0.92 -2.72 -3.92 -5.24 -8.16 -5.24 c-5.52 0 -9.04 4.28 -9.04 9.32 s3.52 9.48 9.04 9.48 c4.24 0 7.24 -2.44 8.16 -5.2 l5.32 1.36 c-1.28 4.48 -6 9 -13.4 9 z M47.16 40.56 c-8.48 0 -14.72 -6.32 -14.72 -14.6 c0 -8.24 6.24 -14.52 14.72 -14.52 c8.44 0 14.68 6.28 14.68 14.52 c0 8.28 -6.24 14.6 -14.68 14.6 z M47.16 35.480000000000004 c5.52 0 9.16 -4.16 9.16 -9.52 c0 -5.24 -3.64 -9.44 -9.16 -9.44 c-5.56 0 -9.16 4.2 -9.16 9.44 c0 5.36 3.6 9.52 9.16 9.52 z M84.36 12 l5.52 0 l0 16.52 c0 7.12 -4.32 12.04 -12.12 12.04 c-7.84 0 -12.12 -4.92 -12.12 -12.04 l0 -16.52 l5.56 0 l0 16.44 c0 4.12 2.2 7.08 6.56 7.08 c4.4 0 6.6 -2.96 6.6 -7.08 l0 -16.44 z M112.60000000000001 40 l-6.36 -9.8 l-5.96 0 l0 9.8 l-5.44 0 l0 -28 l13.64 0 c6.08 0 9.6 4.68 9.6 9.12 c0 3.68 -2.16 7.16 -6.12 8.52 l6.96 10.36 l-6.32 0 z M100.28 16.92 l0 8.48 l7.84 0 c2.84 0 4.64 -1.96 4.64 -4.28 c0 -2.24 -1.84 -4.2 -4.44 -4.2 l-8.04 0 z M122.64 40 l0 -28 l5.56 0 l0 28 l-5.56 0 z M154.04000000000002 16.96 l-15.28 0 l0 6.4 l13.24 0 l0 4.8 l-13.24 0 l0 6.88 l15.24 0 l0 4.96 l-20.6 0 l0 -28 l20.64 0 l0 4.96 z M176.2 40 l-6.36 -9.8 l-5.96 0 l0 9.8 l-5.44 0 l0 -28 l13.64 0 c6.08 0 9.6 4.68 9.6 9.12 c0 3.68 -2.16 7.16 -6.12 8.52 l6.96 10.36 l-6.32 0 z M163.88 16.92 l0 8.48 l7.84 0 c2.84 0 4.64 -1.96 4.64 -4.28 c0 -2.24 -1.84 -4.2 -4.44 -4.2 l-8.04 0 z"></path>
    </g>
</svg>