<?xml version="1.0" encoding="UTF-8" standalone="no"?>
<!-- Created with Inkscape (http://www.inkscape.org/) -->

<svg
   width="47.034393mm"
   height="29.918386mm"
   viewBox="0 0 47.034393 29.918386"
   version="1.1"
   id="svg1"
   xml:space="preserve"
   xmlns:inkscape="http://www.inkscape.org/namespaces/inkscape"
   xmlns:sodipodi="http://sodipodi.sourceforge.net/DTD/sodipodi-0.dtd"
   xmlns:xlink="http://www.w3.org/1999/xlink"
   xmlns="http://www.w3.org/2000/svg"
   xmlns:svg="http://www.w3.org/2000/svg"><sodipodi:namedview
     id="namedview1"
     pagecolor="#ffffff"
     bordercolor="#000000"
     borderopacity="0.25"
     inkscape:showpageshadow="2"
     inkscape:pageopacity="0.0"
     inkscape:pagecheckerboard="0"
     inkscape:deskcolor="#d1d1d1"
     inkscape:document-units="mm" /><defs
     id="defs1"><linearGradient
       id="linearGradient6"
       inkscape:collect="always"><stop
         style="stop-color:#ff7500;stop-opacity:1;"
         offset="0"
         id="stop7" /><stop
         style="stop-color:#ffd41a;stop-opacity:1;"
         offset="1"
         id="stop6" /></linearGradient><linearGradient
       inkscape:collect="always"
       xlink:href="#linearGradient6"
       id="linearGradient7"
       x1="14.0005"
       y1="50.094418"
       x2="87.318268"
       y2="50.094418"
       gradientUnits="userSpaceOnUse" /><linearGradient
       inkscape:collect="always"
       xlink:href="#linearGradient6"
       id="linearGradient2"
       gradientUnits="userSpaceOnUse"
       x1="14.0005"
       y1="50.094418"
       x2="87.318268"
       y2="50.094418" /><linearGradient
       inkscape:collect="always"
       xlink:href="#linearGradient6"
       id="linearGradient3"
       gradientUnits="userSpaceOnUse"
       x1="14.0005"
       y1="50.094418"
       x2="87.318268"
       y2="50.094418" /></defs><g
     inkscape:label="Layer 1"
     inkscape:groupmode="layer"
     id="layer1"
     transform="translate(-62.192827,-110.32676)"><g
       id="g9"><g
         id="g5"
         transform="matrix(0.42108751,0,0,0.41133564,64.727001,104.68032)"
         style="fill:url(#linearGradient7);fill-opacity:1"><path
           fill="#000000"
           d="m 58.387,32.316 c 0,0 -36.86,-5.887 -38.597,-5.597 -1.737,0.29 -3.763,1.342 -4.921,2.793 -1.158,1.452 -1.158,1.839 0,2.224 1.158,0.386 34.448,14.86 34.448,14.86 l -11.77,18.528 h -9.746 c 0,0 -2.895,-0.289 -3.763,1.062 -0.869,1.351 -2.798,3.763 -2.798,3.763 0,0 -1.447,1.353 0.869,1.737 2.316,0.387 12.737,1.641 12.737,1.641 l -1.834,3.088 c 0,0 -1.158,1.93 -0.289,2.316 0.868,0.385 2.219,0.289 2.895,-0.869 0.676,-1.157 2.123,-2.509 2.123,-2.509 l 5.112,10.423 c 0,0 0.772,1.543 2.316,0 1.544,-1.545 2.026,-2.414 2.026,-2.414 0,0 1.352,-2.026 0.386,-4.439 -0.965,-2.41 -3.281,-9.647 -3.281,-9.647 0,0 28.562,-32.327 33.966,-44.195 5.402,-11.868 -0.192,-14.185 -7.43,-8.105 -7.238,6.08 -12.449,15.34 -12.449,15.34 z"
           id="path1"
           style="fill:url(#linearGradient2);fill-opacity:1" /><path
           fill="#000000"
           d="M 61.185,55.185 71.221,42.64 c 0,0 14.377,27.598 15.438,29.432 1.062,1.832 0.675,4.632 0,6.271 -0.675,1.639 -1.735,4.439 -4.246,1.157 C 79.905,76.22 61.185,55.185 61.185,55.185 Z"
           id="path2"
           style="fill:url(#linearGradient3);fill-opacity:1" /></g><text
         xml:space="preserve"
         style="font-style:normal;font-variant:normal;font-weight:bold;font-stretch:normal;font-size:24.3143px;font-family:Arial;-inkscape-font-specification:'Arial, Bold';font-variant-ligatures:normal;font-variant-caps:normal;font-variant-numeric:normal;font-variant-east-asian:normal;letter-spacing:-0.529167px;fill:#f21235;fill-opacity:1;fill-rule:evenodd;stroke:#006ebe;stroke-width:0.5;stroke-linecap:round;stroke-linejoin:round;stroke-dasharray:none;stroke-opacity:0.490798"
         x="64.071793"
         y="130.92137"
         id="text5"
         transform="scale(0.97457593,1.0260873)"><tspan
           sodipodi:role="line"
           id="tspan5"
           style="letter-spacing:-0.529167px;fill:#f21235;fill-opacity:1;stroke:#006ebe;stroke-width:0.5;stroke-linecap:round;stroke-dasharray:none;stroke-opacity:0.490798"
           x="64.071793"
           y="130.92137">APS</tspan></text></g></g></svg>
