<?xml version="1.0" encoding="UTF-8" standalone="no"?>
<!-- Created with Inkscape (http://www.inkscape.org/) -->

<svg
   width="49.436325mm"
   height="50.003052mm"
   viewBox="0 0 49.436325 50.003052"
   version="1.1"
   id="svg1"
   xml:space="preserve"
   xmlns:inkscape="http://www.inkscape.org/namespaces/inkscape"
   xmlns:sodipodi="http://sodipodi.sourceforge.net/DTD/sodipodi-0.dtd"
   xmlns="http://www.w3.org/2000/svg"
   xmlns:svg="http://www.w3.org/2000/svg"><sodipodi:namedview
     id="namedview1"
     pagecolor="#ffffff"
     bordercolor="#000000"
     borderopacity="0.25"
     inkscape:showpageshadow="2"
     inkscape:pageopacity="0.0"
     inkscape:pagecheckerboard="0"
     inkscape:deskcolor="#d1d1d1"
     inkscape:document-units="mm"
     showgrid="true"><inkscape:grid
       id="grid1"
       units="mm"
       originx="-100.9477"
       originy="-80.099221"
       spacingx="1"
       spacingy="0.99999998"
       empcolor="#0099e5"
       empopacity="0.30196078"
       color="#0099e5"
       opacity="0.14901961"
       empspacing="5"
       dotted="false"
       gridanglex="30"
       gridanglez="30"
       visible="true" /></sodipodi:namedview><defs
     id="defs1" /><g
     inkscape:label="Layer 1"
     inkscape:groupmode="layer"
     id="layer1"
     transform="translate(-100.9477,-80.099222)"><path
       id="path24"
       style="font-variation-settings:'wght' 700;fill:none;stroke:#000000;stroke-width:2.5;stroke-linecap:round;stroke-dasharray:none"
       d="m 111.12348,114.18085 c 3.53177,-5.372 10.30244,-4.37689 14.59952,-0.55353 h 9.06416 c 5.32756,2.09389 1.50973,6.51034 0,6.29648 m -23.66368,7.05758 c 2.33546,0.96171 4.74534,1.55147 7.26516,1.59142 5.75807,0.58381 10.97126,0.0778 16.39852,0 2.95547,-0.30397 5.23203,-1.54144 6.71162,-3.87475 3.42236,-3.97134 5.01264,-6.37232 7.26517,-9.34094 1.62214,-3.3433 -2.15594,-5.86447 -4.15152,-3.73636 l -6.01971,6.57324 c -0.94333,0.95139 -1.98087,1.82426 -4.01314,1.86819 H 123.30126 M 102.1977,111.2748 h 6.36567 c 1.34163,0 2.42171,1.08008 2.42171,2.42172 v 12.52376 c 0,1.34163 -1.08008,2.42172 -2.42171,2.42172 h -6.36567 z m 31.41319,-2.90608 h 7.54193 m -9.63355,-26.625486 v 21.380736 l -4.40337,-3.131282 m -4.45227,-18.249454 v 21.380736 l 4.40335,-3.131282 m 19.42369,10.959472 V 90.452094 l -6.09896,-9.102874 h -26.74273 l -6.00568,8.956096 V 111.09893 90.452094 h 38.55382"
       inkscape:export-filename="box2.svg"
       inkscape:export-xdpi="12.7"
       inkscape:export-ydpi="12.7" /></g></svg>
