<?xml version="1.0" encoding="UTF-8" standalone="no"?>
<!-- Created with Inkscape (http://www.inkscape.org/) -->

<svg
   width="48.957096mm"
   height="49.999996mm"
   viewBox="0 0 48.957096 49.999996"
   version="1.1"
   id="svg1"
   xml:space="preserve"
   xmlns:inkscape="http://www.inkscape.org/namespaces/inkscape"
   xmlns:sodipodi="http://sodipodi.sourceforge.net/DTD/sodipodi-0.dtd"
   xmlns="http://www.w3.org/2000/svg"
   xmlns:svg="http://www.w3.org/2000/svg"><sodipodi:namedview
     id="namedview1"
     pagecolor="#ffffff"
     bordercolor="#000000"
     borderopacity="0.25"
     inkscape:showpageshadow="2"
     inkscape:pageopacity="0.0"
     inkscape:pagecheckerboard="0"
     inkscape:deskcolor="#d1d1d1"
     inkscape:document-units="mm"
     showgrid="true"><inkscape:grid
       id="grid1"
       units="mm"
       originx="-57.78278"
       originy="-42.730267"
       spacingx="1"
       spacingy="0.99999998"
       empcolor="#0099e5"
       empopacity="0.30196078"
       color="#0099e5"
       opacity="0.14901961"
       empspacing="5"
       dotted="false"
       gridanglex="30"
       gridanglez="30"
       visible="true" /></sodipodi:namedview><defs
     id="defs1" /><g
     inkscape:label="Layer 1"
     inkscape:groupmode="layer"
     id="layer1"
     transform="translate(-57.782782,-42.730268)"><path
       id="path28"
       style="font-variation-settings:'wght' 700;fill:none;stroke:#000000;stroke-width:1.24985;stroke-linecap:round;stroke-dasharray:none"
       d="m 92.173489,70.311166 v 8.607791 l 4.303905,3.775345 m 9.637556,-4.266145 A 13.677183,13.677183 0 0 1 92.437769,92.105342 13.677183,13.677183 0 0 1 78.760589,78.428157 13.677183,13.677183 0 0 1 92.437769,64.75098 13.677183,13.677183 0 0 1 106.11495,78.428157 M 93.079579,43.355192 v 8.532283 M 67.860265,43.355192 v 8.532283 m -9.211845,5.360992 h 43.7185 M 82.900379,88.454642 H 64.0392 c -3.119845,0 -5.631495,-2.511655 -5.631495,-5.631505 V 53.410235 c 0,-3.119853 2.51165,-5.631502 5.631495,-5.631502 h 32.829964 c 3.119855,0 5.631506,2.511649 5.631506,5.631502 v 15.74615" /></g></svg>
