<?xml version="1.0" encoding="UTF-8" standalone="no"?>
<!-- Created with Inkscape (http://www.inkscape.org/) -->

<svg
   width="48.62952mm"
   height="50mm"
   viewBox="0 0 48.62952 50"
   version="1.1"
   id="svg1"
   xml:space="preserve"
   xmlns:inkscape="http://www.inkscape.org/namespaces/inkscape"
   xmlns:sodipodi="http://sodipodi.sourceforge.net/DTD/sodipodi-0.dtd"
   xmlns="http://www.w3.org/2000/svg"
   xmlns:svg="http://www.w3.org/2000/svg"><sodipodi:namedview
     id="namedview1"
     pagecolor="#ffffff"
     bordercolor="#000000"
     borderopacity="0.25"
     inkscape:showpageshadow="2"
     inkscape:pageopacity="0.0"
     inkscape:pagecheckerboard="0"
     inkscape:deskcolor="#d1d1d1"
     inkscape:document-units="mm"
     showgrid="true"
     inkscape:zoom="1.4022026"
     inkscape:cx="476.39336"
     inkscape:cy="500.28435"
     inkscape:window-width="1920"
     inkscape:window-height="1001"
     inkscape:window-x="-9"
     inkscape:window-y="-9"
     inkscape:window-maximized="1"
     inkscape:current-layer="layer1"><inkscape:grid
       id="grid1"
       units="mm"
       originx="-31.170214"
       originy="-62.019406"
       spacingx="1"
       spacingy="0.99999998"
       empcolor="#0099e5"
       empopacity="0.30196078"
       color="#0099e5"
       opacity="0.14901961"
       empspacing="5"
       dotted="false"
       gridanglex="30"
       gridanglez="30"
       visible="true" /></sodipodi:namedview><defs
     id="defs1" /><g
     inkscape:label="Layer 1"
     inkscape:groupmode="layer"
     id="layer1"
     transform="translate(-31.170215,-62.019407)"><path
       id="path62"
       style="font-variation-settings:'wght' 700;fill:none;fill-opacity:1;stroke:#000000;stroke-width:2.42527;stroke-linecap:round;stroke-linejoin:round;stroke-dasharray:none;stroke-opacity:1"
       d="m 66.73607,100.24523 2.352575,2.35257 4.095951,-4.023969 c 1.168372,-0.805052 2.521195,1.965329 1.53185,3.194419 l -4.622649,4.65601 c -0.654827,0.42384 -1.349996,0.68629 -2.28235,0 L 64.7215,103.43965 c -0.755321,-1.60334 1.43165,-3.68357 2.01457,-3.19442 z m -3.947298,-2.854425 c -1.115181,-1.244906 -2.482163,-2.316099 -4.057553,-3.145074 -4.572617,-2.406128 -10.20631,-2.406125 -14.778926,4e-6 -4.572617,2.406128 -7.389462,6.852835 -7.389462,11.665095 H 62.2033 m 5.991481,-26.144084 c -0.742604,0.471066 -3.041683,-1.98426 -3.921072,-1.98978 -0.815045,-0.0051 -2.954592,2.46227 -3.582506,1.942608 -0.677484,-0.56069 0.947214,-3.505981 0.680715,-4.344039 -0.246997,-0.776733 -3.254776,-2.049099 -2.954584,-2.806863 0.323893,-0.817591 3.627093,-0.182556 4.34178,-0.694984 0.662392,-0.474932 0.943027,-3.728682 1.756471,-3.677345 0.877662,0.05539 1.294453,3.393156 2.002649,3.914516 0.656379,0.483209 3.837602,-0.255354 4.040143,0.534139 0.218533,0.851825 -2.827073,2.279641 -3.104072,3.114287 -0.256725,0.773572 1.428739,3.570866 0.740476,4.007461 z M 55.184554,74.802698 c -0.742603,0.471066 -3.041682,-1.98426 -3.921072,-1.98978 -0.815043,-0.0051 -2.95459,2.462269 -3.582505,1.942608 -0.677485,-0.560691 0.947215,-3.505982 0.680715,-4.344039 -0.246998,-0.776733 -3.254775,-2.049099 -2.954583,-2.806864 0.323892,-0.817591 3.627091,-0.182556 4.341779,-0.694984 0.662393,-0.474932 0.943027,-3.728682 1.756471,-3.677344 0.877662,0.05539 1.294454,3.393156 2.002649,3.914515 0.656378,0.483209 3.837601,-0.255353 4.040143,0.534139 0.218533,0.851825 -2.827073,2.279641 -3.104072,3.114288 -0.256725,0.773572 1.428739,3.570865 0.740475,4.007461 z m -13.010225,4.965735 c -0.742605,0.471066 -3.041684,-1.98426 -3.921073,-1.989779 -0.815044,-0.0051 -2.954591,2.462268 -3.582506,1.942607 -0.677484,-0.56069 0.947214,-3.505981 0.680715,-4.344039 -0.246997,-0.776733 -3.254776,-2.049099 -2.954583,-2.806864 0.323893,-0.817591 3.627092,-0.182556 4.341779,-0.694984 0.662393,-0.474932 0.943028,-3.728682 1.756471,-3.677344 0.877663,0.05539 1.294453,3.393156 2.00265,3.914515 0.656379,0.48321 3.837601,-0.255353 4.040142,0.53414 0.218534,0.851825 -2.827072,2.279641 -3.104071,3.114287 -0.256726,0.773572 1.428738,3.570865 0.740476,4.007461 z m 36.412768,22.425927 c -5e-6,4.7565 -3.855915,8.61241 -8.61242,8.61241 -4.756503,0 -8.612412,-3.85591 -8.612417,-8.61241 -6e-6,-4.756511 3.855906,-8.612428 8.612417,-8.612429 4.756512,-10e-7 8.612426,3.855917 8.61242,8.612429 z M 59.171636,84.714965 c 0,4.29059 -3.47821,7.768801 -7.7688,7.768802 -4.290592,2e-6 -7.768805,-3.47821 -7.768805,-7.768802 0,-4.290592 3.478213,-7.768804 7.768805,-7.768802 4.29059,10e-7 7.7688,3.478212 7.7688,7.768802 z"
       inkscape:export-filename="customer-centric.svg"
       inkscape:export-xdpi="25.4"
       inkscape:export-ydpi="25.4"
       sodipodi:nodetypes="cccccccccssccsssssssssssssssssssssssssssssssssssssssssss" /></g></svg>
