<?xml version="1.0" encoding="UTF-8" standalone="no"?>
<!-- Created with Inkscape (http://www.inkscape.org/) -->

<svg
   width="99.410965mm"
   height="100.5431mm"
   viewBox="0 0 99.410965 100.5431"
   version="1.1"
   id="svg1"
   xml:space="preserve"
   xmlns:inkscape="http://www.inkscape.org/namespaces/inkscape"
   xmlns:sodipodi="http://sodipodi.sourceforge.net/DTD/sodipodi-0.dtd"
   xmlns="http://www.w3.org/2000/svg"
   xmlns:svg="http://www.w3.org/2000/svg"><sodipodi:namedview
     id="namedview1"
     pagecolor="#ffffff"
     bordercolor="#000000"
     borderopacity="0.25"
     inkscape:showpageshadow="2"
     inkscape:pageopacity="0.0"
     inkscape:pagecheckerboard="0"
     inkscape:deskcolor="#d1d1d1"
     inkscape:document-units="mm"
     showgrid="true"><inkscape:grid
       id="grid1"
       units="mm"
       originx="-113.67171"
       originy="-37.924979"
       spacingx="1"
       spacingy="0.99999998"
       empcolor="#0099e5"
       empopacity="0.30196078"
       color="#0099e5"
       opacity="0.14901961"
       empspacing="5"
       dotted="false"
       gridanglex="30"
       gridanglez="30"
       visible="true" /></sodipodi:namedview><defs
     id="defs1" /><g
     inkscape:label="Layer 1"
     inkscape:groupmode="layer"
     id="layer1"
     transform="translate(-113.6717,-37.924977)"><path
       id="path38"
       style="font-variation-settings:'wght' 700;opacity:1;fill:none;fill-opacity:1;stroke:#000000;stroke-width:2.5;stroke-linecap:round;stroke-linejoin:round;stroke-dasharray:none;stroke-dashoffset:0;stroke-opacity:1"
       d="m 137.72215,117.15527 c 4.07423,6.8646 6.90561,6.68658 11.63658,5.6001 l 23.92775,-7.70924 h 13.01843 c 4.74342,1.00499 3.32046,3.72174 3.20006,4.50918 m -61.74666,17.45489 v -11.70932 c -0.49616,3.01431 8.03411,12.45368 14.40028,11.27294 9.92835,-2.07271 20.24417,-6.3138 28.29147,-8.65472 v 9.30928 l 0.14546,-9.30928 c 7.74836,-2.41107 14.58916,-0.97372 21.8186,-1.30911 7.38688,-0.94831 5.41771,-3.95641 6.76377,-6.54558 m -69.565,-31.527887 c -6.26717,6.229024 -12.82367,12.387067 -14.69119,18.727637 1.85379,6.36635 5.30885,11.58537 8.00015,17.34579 8.58184,2.77514 13.23477,-3.68467 14.83666,-7.34559 l -5.38192,-9.16382 m 26.94597,-20.582218 6.36376,1.309118 m -21.63678,-1.16366 -2.03641,-4.327359 c -2.64418,-0.576513 -4.57495,-1.845199 -6.36376,-3.6728 l -7.70924,7.454696 9.60019,7.891063 6.54558,-7.418333 3.60007,6.945595 3.93779,-12.52616 1.62596,-1.00138 6.03648,6.472857 -3.23643,5.600107 -6.7274,-10.145652 m 9.84687,-20.645227 c 0.46159,10.338946 -1.61398,13.446921 -4.66479,17.491403 M 128.10736,61.982626 c -2.30589,4.314086 -3.63792,9.125816 3.39418,10.593952 4.14594,12.496009 16.12595,13.634265 23.06449,7.123785 M 126.4617,50.874404 c 0.13946,5.541504 -0.67701,10.80933 1.54281,11.108222 m 29.72477,-8.022605 c 1.05997,3.017048 1.46848,5.519826 1.43996,8.536874 1.89085,-0.07117 3.36678,0.06513 6.27409,-0.514269 M 136.23282,51.28582 c 1.46509,-19.725629 23.05505,-10.5244 20.98219,-0.205708 m 0.10285,0 c 0.87063,-17.210396 -32.15489,-14.647369 -30.85616,0.102854 m 39.08448,0 c 7.28732,0.51512 9.11583,9.690937 0,10.79966 m -32.81039,0 c 6.25476,0.818085 5.78503,-7.160198 14.29669,-10.79966 l 18.41085,0.102854 m -37.3941,10.741095 H 146.2314 C 153.5,63.285147 153.87195,51.56175 165.57723,51.11761 m 29.85587,24.873213 v 11.927504 l -6.54558,-4.509178 m -6.58269,-7.418326 v 11.927504 l 6.54558,-4.509178 m -16.87305,24.898161 h 10.32747 m -10.03656,-4.67958 h 6.69104 m -13.23662,13.87334 V 76.84093 c 0,-0.632128 0.50889,-1.141026 1.14102,-1.141026 h 43.82794 c 0.63212,0 1.14102,0.508898 1.14102,1.141026 v 41.79154 c 0,0.63213 -0.5089,1.14103 -1.14102,1.14103 h -20.89152"
       inkscape:export-filename="delivery-man.svg"
       inkscape:export-xdpi="25.42"
       inkscape:export-ydpi="25.42" /></g></svg>
