<?xml version="1.0" encoding="UTF-8" standalone="no"?>
<!-- Created with Inkscape (http://www.inkscape.org/) -->

<svg
   width="49.909302mm"
   height="99.909302mm"
   viewBox="0 0 49.909302 99.909302"
   version="1.1"
   id="svg1"
   xml:space="preserve"
   xmlns:inkscape="http://www.inkscape.org/namespaces/inkscape"
   xmlns:sodipodi="http://sodipodi.sourceforge.net/DTD/sodipodi-0.dtd"
   xmlns="http://www.w3.org/2000/svg"
   xmlns:svg="http://www.w3.org/2000/svg"><sodipodi:namedview
     id="namedview1"
     pagecolor="#ffffff"
     bordercolor="#000000"
     borderopacity="0.25"
     inkscape:showpageshadow="2"
     inkscape:pageopacity="0.0"
     inkscape:pagecheckerboard="0"
     inkscape:deskcolor="#d1d1d1"
     inkscape:document-units="mm"
     showgrid="true"><inkscape:grid
       id="grid1"
       units="mm"
       originx="-69.208001"
       originy="-103.49324"
       spacingx="1"
       spacingy="0.99999998"
       empcolor="#0099e5"
       empopacity="0.30196078"
       color="#0099e5"
       opacity="0.14901961"
       empspacing="5"
       dotted="false"
       gridanglex="30"
       gridanglez="30"
       visible="true" /></sodipodi:namedview><defs
     id="defs1" /><g
     inkscape:label="Layer 1"
     inkscape:groupmode="layer"
     id="layer1"
     transform="translate(-69.207998,-103.49324)"><path
       id="path18"
       style="font-variation-settings:'wght' 700;fill:none;stroke:#000000;stroke-width:2.5;stroke-linecap:round;stroke-linejoin:round;stroke-dasharray:none;stroke-dashoffset:0"
       d="m 117.8673,201.17886 -7.9847,-0.0754 c -1.62534,-0.30739 -2.82243,-1.12796 -2.94446,-3.23682 V 153.34806 108.8295 c 0.1221,-2.10889 1.31912,-2.92945 2.94446,-3.23684 l 7.9847,-0.0754 m -47.409295,95.73695 7.984706,-0.0754 c 1.625331,-0.30739 2.82243,-1.12795 2.944449,-3.23682 v -44.5186 -44.51856 c -0.122087,-2.10888 -1.319118,-2.92945 -2.944449,-3.23684 l -7.984706,-0.0754 m 23.664198,-0.84935 v 6.5176 m 0,6.51762 v 6.51761 m 0,6.5176 v 6.51761 m 0,6.51761 v 6.51761 m 0,6.16278 v 6.51761 m 0,6.51761 v 6.51761 m 0,6.5176 v 6.51761 m 0,6.51762 v 6.5176"
       sodipodi:nodetypes="cccccccccccccccccccccccccccccc"
       inkscape:export-filename="door-to-door.svg"
       inkscape:export-xdpi="300"
       inkscape:export-ydpi="300" /></g></svg>
