<?xml version="1.0" encoding="UTF-8" standalone="no"?>
<!-- Created with Inkscape (http://www.inkscape.org/) -->

<svg
   width="81.645035mm"
   height="100.03253mm"
   viewBox="0 0 81.645035 100.03253"
   version="1.1"
   id="svg1"
   xml:space="preserve"
   xmlns:inkscape="http://www.inkscape.org/namespaces/inkscape"
   xmlns:sodipodi="http://sodipodi.sourceforge.net/DTD/sodipodi-0.dtd"
   xmlns="http://www.w3.org/2000/svg"
   xmlns:svg="http://www.w3.org/2000/svg"><sodipodi:namedview
     id="namedview1"
     pagecolor="#ffffff"
     bordercolor="#000000"
     borderopacity="0.25"
     inkscape:showpageshadow="2"
     inkscape:pageopacity="0.0"
     inkscape:pagecheckerboard="0"
     inkscape:deskcolor="#d1d1d1"
     inkscape:document-units="mm"
     showgrid="true"><inkscape:grid
       id="grid1"
       units="mm"
       originx="-29.075203"
       originy="-107.15958"
       spacingx="1"
       spacingy="0.99999998"
       empcolor="#0099e5"
       empopacity="0.30196078"
       color="#0099e5"
       opacity="0.14901961"
       empspacing="5"
       dotted="false"
       gridanglex="30"
       gridanglez="30"
       visible="true" /></sodipodi:namedview><defs
     id="defs1" /><g
     inkscape:label="Layer 1"
     inkscape:groupmode="layer"
     id="layer1"
     transform="translate(-29.075202,-107.15958)"><path
       id="path9"
       style="font-variation-settings:'wght' 700;opacity:1;fill:none;stroke:#000000;stroke-width:2.5;stroke-linecap:round;stroke-linejoin:round;stroke-dasharray:none"
       d="m 77.616943,114.69864 c -1.285852,0.60191 -2.556685,1.25141 -3.785987,1.96311 -0.95357,0.55206 -2.592069,1.62765 -3.435435,2.38379 -0.271808,0.24367 -0.448298,0.57797 -0.701106,0.8413 -0.309211,0.32209 -0.674035,0.58774 -0.981554,0.91145 -1.222699,1.28705 -2.127386,4.60222 -1.472328,6.23987 0.635316,1.5883 2.353579,2.99666 3.785987,3.85611 3.228265,1.93696 8.23946,2.02911 9.535078,6.23986 0.344303,1.11898 0.206185,2.4716 -0.350553,3.50555 -0.320182,0.59461 -0.767917,1.13798 -1.051659,1.75277 -0.309698,0.67101 -0.473625,1.40018 -0.701112,2.10332 -0.09101,0.28127 -0.214577,0.55316 -0.280447,0.84134 -0.121555,0.53187 -0.167233,1.07882 -0.28044,1.61254 -0.05062,0.23868 -0.165363,0.46131 -0.210338,0.70113 -0.03086,0.16459 0.02568,0.59126 0,0.77121 -0.03047,0.21329 -0.106613,0.41818 -0.140222,0.63101 -0.03665,0.23199 -0.0293,0.4698 -0.07012,0.70109 -0.0296,0.16752 -0.108865,0.32356 -0.140223,0.49076 -0.0918,0.4896 -0.0701,0.97833 -0.0701,1.47236 0,0.23342 -0.083,0.62548 0,0.84133 0.360782,0.93802 0.878323,1.33333 1.752773,1.89297 0.193866,0.12402 0.431802,0.16522 0.630999,0.28045 0.246877,0.14293 0.459197,0.3396 0.701107,0.49078 1.271965,0.795 -0.632166,-0.5563 0.981553,0.56088 0.231374,0.16018 0.387915,0.4191 0.631,0.56088 0.626325,0.36538 2.279177,0.53811 2.944658,0.42068 0.559741,-0.0988 1.44601,-0.76 1.752767,-0.98156 0.162484,-0.11728 -0.064,-0.25503 0.280443,-0.1402 0.07385,0.0246 0.250354,0.93897 0.42067,0.98155 0.128241,0.0321 0.170451,-0.20706 0.28044,-0.28045 0.152414,-0.10149 0.452445,0.068 0.560889,0.14021 0.234956,0.15659 0.243037,0.5101 0.350554,0.77122 0.317134,0.77018 0.722842,1.98719 0.911444,2.80443 0.03714,0.16101 0.02664,0.33137 0.0701,0.49079 0.103979,0.38122 0.344301,0.75559 0.490774,1.12178 0.03582,0.0895 0.04669,0.18686 0.0701,0.28045 0.09346,0.2337 0.179553,0.4705 0.280445,0.7011 0.104731,0.23938 0.258813,0.45645 0.350556,0.70111 0.03382,0.0902 0.03431,0.19087 0.07013,0.28043 0.06278,0.15702 0.669957,1.27498 0.84133,1.33212 0.446438,0.14882 0.669695,-0.47698 0.841329,-0.77122 0.291914,-0.50043 0.553092,-1.02828 0.630999,-1.61254 0.05913,-0.44353 -0.137176,-2.1064 0.140223,-2.38379 0.03694,-0.037 0.103269,-0.0332 0.140226,-0.0701 0.208726,-0.20873 0.437206,-0.54278 0.701105,-0.70112 0.0401,-0.024 0.10014,0.0239 0.140224,0 0.542898,-0.32572 0.01011,-0.0803 0.280444,-0.35056 0.150733,-0.15071 0.415861,-0.20557 0.560884,-0.35054 0.0596,-0.0597 0.08061,-0.15071 0.140224,-0.21032 0.129064,-0.12908 0.272137,-0.24447 0.420662,-0.35059 0.212383,-0.15176 0.585104,-0.23453 0.771222,-0.42065 0.0596,-0.0597 0.09347,-0.1402 0.140223,-0.21033 0.09346,-0.0465 0.196831,-0.0776 0.280446,-0.14021 0.0187,-0.0147 -0.0187,-0.0561 0,-0.0701 0.227572,-0.17069 0.34125,-0.11555 0.560884,-0.28045 0.214764,-0.16101 -0.114956,0.0447 0.140225,-0.21032 0.265947,-0.26594 0.135556,-0.0395 0.420667,-0.21034 0.05668,-0.034 0.08353,-0.10612 0.140224,-0.1402 0.131774,-0.0789 0.3941,-0.0918 0.490777,-0.1402 0.08936,-0.0446 0.187771,-0.17952 0.280442,-0.21033 0.20724,-0.0691 1.976764,0.0564 2.033214,0 0.0167,-0.0169 -0.0167,-0.0537 0,-0.0701 0.033,-0.033 0.10708,0.033 0.14023,0 0.0167,-0.0169 -0.0167,-0.0537 0,-0.0703 0.10117,-0.10117 0.49794,0.0666 0.631,0 0.14124,-0.0705 0.0249,-0.21031 0.35054,-0.21031 m -30.638442,21.38375 c 0,-0.88808 0,-1.77618 0,-2.6642 0,-0.92957 0.01199,-1.57646 -0.280447,-2.45389 -0.08409,-0.25228 -0.110008,-0.52046 -0.210332,-0.77124 -0.15193,-0.3798 0.03292,0.12507 -0.210329,-0.28043 -0.0989,-0.1648 -0.137176,-0.41761 -0.280445,-0.5609 -0.03694,-0.037 -0.108865,-0.0284 -0.140224,-0.0701 -0.04433,-0.0591 -0.03209,-0.14695 -0.0701,-0.21035 -0.119456,-0.19905 -0.372927,-0.39681 -0.56089,-0.49079 -0.05912,-0.0295 -0.0775,-0.11937 -0.140224,-0.1402 -0.295801,-0.0986 -0.645286,-0.0701 -0.981552,-0.0701 -0.607626,0 -1.215252,0 -1.822883,0 -0.269833,0 -0.573304,0.0382 -0.841329,0 -0.708999,-0.10138 0.01075,-0.0169 -0.420668,-0.14019 -0.158891,-0.0455 -0.334002,-0.0169 -0.490775,-0.0702 -0.350539,-0.11692 -0.675423,-0.36955 -0.981553,-0.56089 -0.124332,-0.0777 -0.801898,-0.38123 -0.841329,-0.42067 -0.11241,-0.11245 -0.128139,-0.29736 -0.210332,-0.42064 -0.01303,-0.019 -0.05356,0.0169 -0.07013,0 -0.08655,-0.0865 -0.08494,-0.26764 -0.140224,-0.35057 -0.03665,-0.0552 -0.103549,-0.085 -0.140223,-0.14021 -0.08281,-0.12424 -0.109131,-0.47554 -0.140224,-0.631 -0.02207,-0.11034 0.02723,-0.24148 0,-0.35053 -0.02538,-0.10139 -0.11487,-0.1791 -0.140225,-0.28047 -0.02892,-0.11555 -0.04123,-0.23492 -0.0701,-0.35054 -0.09112,-0.36447 0.01534,-1.06008 -0.07013,-1.40221 -0.08627,-0.34507 -0.193257,-0.7029 -0.280445,-1.05168 -0.03743,-0.14965 -0.146383,-0.29278 -0.210332,-0.42068 -0.11126,-0.2225 -0.139362,-0.48948 -0.280446,-0.70108 -0.474764,-0.71216 -0.965745,-1.41254 -1.472327,-2.10334 -0.626745,-0.85464 -1.187775,-1.73061 -1.892991,-2.52397 -0.238111,-0.26789 -1.199863,-1.05486 -1.542443,-1.19191 -0.379443,-0.15176 0.110628,0.19066 -0.280439,-0.07 -0.128283,-0.0856 -0.0069,-0.0893 -0.210337,-0.14021 -0.111114,-0.0277 -0.305838,0 -0.420661,0 -0.05106,0 -0.37822,-0.0424 -0.420671,0 -0.0166,0.0169 0.01661,0.0537 0,0.0702 -0.08254,0.0825 -0.255177,0.0225 -0.350554,0.0701 -0.20614,0.10289 -0.347213,0.15701 -0.560884,0.21032 -0.101398,0.0255 -0.179047,0.11506 -0.280443,0.14019 -0.09733,0.0244 -0.261191,-0.0445 -0.350556,0 -0.320871,0.1604 0.297509,-0.029 -0.210329,0.14022 -0.08868,0.0294 -0.189747,-0.0228 -0.280445,0 -0.03205,0.009 -0.03877,0.0597 -0.07013,0.0703 -0.04433,0.0147 -0.09488,-0.01 -0.140222,0 -0.310383,0.0775 -0.590227,0.22689 -0.911444,0.28044 -0.2337,0.0388 -0.0584,-0.0584 -0.350553,0 -0.153739,0.0307 -0.271942,0.16081 -0.420668,0.21033 -0.08868,0.0296 -0.187898,-0.0127 -0.280446,0 -0.428502,0.0612 -0.837263,0.13955 -1.26199,0.21032 -0.243585,0.0404 -0.52457,0 -0.771222,0 -0.649325,0 -1.33194,0.0561 -1.963107,-0.0701 -0.310215,-0.062 -0.608535,0.031 -0.91144,-0.0701 -0.102269,-0.0342 -0.240572,0 -0.350557,0 -0.03997,0 -0.35454,0.033 -0.420661,0 -0.0296,-0.0147 -0.03877,-0.0597 -0.07012,-0.0701 -0.238124,-0.0796 -0.453761,0.0537 -0.701107,-0.0702 -0.112188,-0.0561 -0.308488,0.0561 -0.420671,0 -0.114658,-0.0573 -0.355212,-0.14946 -0.420659,-0.28043 -0.01054,-0.021 0.01661,-0.0537 0,-0.0703 -0.01661,-0.0169 -0.05363,0.0169 -0.07012,0 -0.145058,-0.14504 0.221677,0.008 -0.0701,-0.1402 -0.13087,-0.0655 -0.359901,0.0653 -0.490776,0 -0.192983,-0.0964 -0.09883,-0.14021 -0.350553,-0.14021 m 7.221458,-33.23271 c 0.02647,0.41259 -0.06148,0.8672 0.0701,1.26199 0.02159,0.0647 0.238379,0.3225 0.280445,0.35054 0.01954,0.0127 0.05356,-0.0169 0.07013,0 0.02575,0.0257 0.113572,0.22716 0.140222,0.28046 0.07672,0.15345 0.06532,-0.01 0.140224,0.1402 0.03653,0.073 0.475616,0.39224 0.560892,0.42066 0.04433,0.0147 0.10014,-0.0239 0.140223,0 0.08502,0.0512 0.13291,0.14838 0.210333,0.21034 0.149849,0.11975 0.389394,0.2648 0.560884,0.35054 0.287353,0.14357 0.927645,0.32905 1.051665,0.7011 0.202907,0.60873 -0.176522,-0.20074 0.0701,0.21035 0.08066,0.13432 0.160761,0.27194 0.210339,0.42064 0.04138,0.12424 0.0521,1.43825 0,1.54249 -0.08508,0.17003 -0.265498,0.32062 -0.35056,0.49075 -0.02112,0.0421 0.03242,0.17782 0,0.21033 -0.09347,0.0936 -0.06727,-0.14881 -0.140224,0.0701 -0.06059,0.18181 -0.123997,0.48559 -0.07013,0.70111 0.02335,0.07 0.04672,0.1402 0.07013,0.21031 0.02335,0 0.05965,-0.021 0.0701,0 0.03703,0.0741 0.0097,1.23281 0,1.262 -0.02819,0.0846 -0.121518,0.23603 -0.210329,0.28044 -0.254045,0.12697 -0.496299,0.1646 -0.771222,0.21036 -0.142642,-0.0244 -0.227144,0.11554 -0.350553,0.14021 -0.07948,0.0169 -0.259324,-0.0304 -0.350554,0 -0.04277,0.0147 -0.167549,0.1259 -0.210336,0.1402 -0.11304,0.0377 -0.23597,0.0375 -0.350555,0.0701 -0.144303,0.0413 -0.294064,0.16815 -0.420661,0.21031 -0.06291,0.0443 -0.143819,-0.0223 -0.210337,0 -0.329805,0.11 -0.697804,0.0702 -1.051663,0.0702 -0.136166,0 -0.36548,0.0419 -0.490776,0 -0.06269,-0.021 -0.08522,-0.10354 -0.140224,-0.14019 -0.13131,-0.0875 -0.219252,-0.0528 -0.350553,-0.1402 -0.130575,-0.087 -0.218996,-0.21469 -0.350553,-0.28046 -0.129083,-0.0645 -0.119158,-0.2968 -0.280447,-0.35054 -0.04433,-0.0147 -0.09841,0.021 -0.140224,0 -0.140222,-0.0702 -0.210331,-0.28045 -0.350554,-0.35057 -0.228233,-0.11405 -0.550656,-0.18517 -0.771221,-0.35055 -0.05288,-0.0398 -0.08522,-0.10354 -0.140223,-0.1402 -0.06081,-0.0406 -0.234899,-0.0947 -0.280441,-0.1402 -0.0596,-0.0596 -0.102538,-0.13495 -0.140224,-0.21033 -0.02119,-0.0421 0.03241,-0.17783 0,-0.21033 -0.03504,-0.0351 -0.175286,0.0353 -0.210333,0 -0.01661,-0.0169 0.01661,-0.0537 0,-0.0702 -0.03305,-0.033 -0.107182,0.033 -0.140223,0 -0.01661,-0.0169 0.01661,-0.0537 0,-0.0702 -0.03503,-0.0351 -0.175284,0.0353 -0.210337,0 -0.03305,-0.033 0.03305,-0.10708 0,-0.1402 -0.03305,-0.033 -0.107183,0.033 -0.140221,0 -0.04678,-0.0467 0.04673,-0.23369 0,-0.28044 -0.05302,-0.053 -0.140226,-0.0304 -0.140226,-0.1402 m 18.244953,66.56435 h 18.049971 c 2.391229,0 4.316293,1.70797 4.316293,3.82955 l -0.008,5.18443 -26.701597,0.0307 0.02677,-5.2152 c 0.01075,-2.12154 1.925067,-3.82955 4.316297,-3.82955 z m 3.492635,-9.64676 c 3.511022,0.49675 7.022042,0.45559 10.533063,0.18393 l 0.02629,9.43118 H 66.472482 Z m 38.70105,-22.80108 c -1.60841,2.75342 -3.59447,5.34678 -5.958147,7.70497 -14.768954,14.7347 -38.6864,14.70693 -53.421109,-0.062 -14.734706,-14.76893 -14.70695,-38.68641 0.06199,-53.42109 2.37865,-2.37314 4.994601,-4.36332 7.771249,-5.97069 1.137279,-0.6583 1.613531,-2.07601 1.018316,-3.24783 -0.516648,-1.01714 -1.893167,-1.37241 -3.034258,-0.7206 -3.180935,1.8171 -6.176111,4.08141 -8.894059,6.79303 -16.506505,16.46826 -16.537494,43.1995 -0.06933,59.70595 16.468225,16.5065 43.199461,16.53756 59.705938,0.0694 l -2e-5,1e-5 c 2.72762,-2.72126 5.00535,-5.72277 6.83307,-8.91209 0.65642,-1.14537 0.16498,-2.57238 -1.02388,-3.14656 -1.02207,-0.49354 -2.32396,0.0676 -2.98978,1.20762 z m -57.577681,-47.152 3.329183,3.35408 m 46.325424,46.3624 3.334324,3.41201 m 3.30456,3.31189 4.2647,4.13626 c 0.85717,0.85918 0.85557,2.24094 -0.004,3.0981 -0.85919,0.85716 -2.24094,0.85559 -3.09809,-0.004 l -4.26473,-4.13627 m -3.359525,-3.33221 -3.481355,-3.52939 m -46.150222,-46.24953 -3.347753,-3.35896 m -3.2485,-3.25579 -3.390622,-3.55968 c -0.837052,-0.87877 -0.855356,-2.2407 0.0044,-3.09811 0.859368,-0.85695 2.240916,-0.85556 3.098111,0.003 l 3.427742,3.59689 m 50.116074,54.0343 c -12.327453,12.2989 -32.291062,12.27576 -44.589955,-0.0518 -12.298897,-12.32742 -12.275745,-32.29104 0.05172,-44.58993 12.327447,-12.29888 32.291024,-12.27573 44.589913,0.0517 12.298912,12.32745 12.275762,32.29105 -0.05172,44.58997 z"
       inkscape:export-filename="globe.svg"
       inkscape:export-xdpi="96"
       inkscape:export-ydpi="96" /></g></svg>
