<?xml version="1.0" encoding="UTF-8" standalone="no"?>
<!-- Created with Inkscape (http://www.inkscape.org/) -->

<svg
   width="28.760147mm"
   height="26.3472mm"
   viewBox="0 0 28.760147 26.3472"
   version="1.1"
   id="svg1"
   xml:space="preserve"
   sodipodi:docname="logo.svg"
   inkscape:export-filename="logo.png"
   inkscape:export-xdpi="300"
   inkscape:export-ydpi="300"
   inkscape:version="1.3.2 (091e20e, 2023-11-25, custom)"
   xmlns:inkscape="http://www.inkscape.org/namespaces/inkscape"
   xmlns:sodipodi="http://sodipodi.sourceforge.net/DTD/sodipodi-0.dtd"
   xmlns="http://www.w3.org/2000/svg"
   xmlns:svg="http://www.w3.org/2000/svg"><sodipodi:namedview
     id="namedview1"
     pagecolor="#ffffff"
     bordercolor="#000000"
     borderopacity="0.25"
     inkscape:showpageshadow="2"
     inkscape:pageopacity="0.0"
     inkscape:pagecheckerboard="0"
     inkscape:deskcolor="#d1d1d1"
     inkscape:document-units="mm"
     showgrid="true"
     inkscape:zoom="7.9031958"
     inkscape:cx="54.40837"
     inkscape:cy="49.789985"
     inkscape:window-width="1920"
     inkscape:window-height="1001"
     inkscape:window-x="-9"
     inkscape:window-y="-9"
     inkscape:window-maximized="1"
     inkscape:current-layer="g1"><inkscape:grid
       id="grid9"
       units="mm"
       originx="-108.85495"
       originy="-43.886513"
       spacingx="1"
       spacingy="0.99999998"
       empcolor="#0099e5"
       empopacity="0.30196078"
       color="#0099e5"
       opacity="0.14901961"
       empspacing="5"
       dotted="false"
       gridanglex="30"
       gridanglez="30"
       visible="true" /></sodipodi:namedview><defs
     id="defs1"><rect
       x="388.67422"
       y="160.46184"
       width="349.45023"
       height="363.7135"
       id="rect8" /></defs><g
     inkscape:label="Layer 1"
     inkscape:groupmode="layer"
     id="layer1"
     transform="translate(-108.85495,-43.886514)"><g
       id="g1"
       inkscape:export-filename=".\g1.svg"
       inkscape:export-xdpi="300"
       inkscape:export-ydpi="300"><path
         style="font-variation-settings:'wght' 700;fill:none;stroke:none;stroke-width:0.936786;stroke-linecap:round;stroke-linejoin:round;stroke-dasharray:none;stroke-opacity:1"
         id="path10"
         sodipodi:type="arc"
         sodipodi:cx="58.199829"
         sodipodi:cy="-123.23081"
         sodipodi:rx="12.033887"
         sodipodi:ry="12.142298"
         sodipodi:start="0.064871739"
         sodipodi:end="0.052510876"
         sodipodi:open="true"
         sodipodi:arc-type="arc"
         d="m 70.208404,-122.44367 a 12.033887,12.142298 0 0 1 -12.751574,11.33199 12.033887,12.142298 0 0 1 -11.270167,-12.83137 12.033887,12.142298 0 0 1 12.681919,-11.4113 12.033887,12.142298 0 0 1 11.348547,12.76085"
         transform="rotate(90)" /><path
         style="font-variation-settings:'wght' 700;fill:none;stroke:#000000;stroke-width:0.7;stroke-linecap:round;stroke-linejoin:round;stroke-dasharray:none;stroke-opacity:1"
         id="path7"
         sodipodi:type="arc"
         sodipodi:cx="123.2463"
         sodipodi:cy="58.144424"
         sodipodi:rx="11.064012"
         sodipodi:ry="11.163687"
         sodipodi:start="0.064871739"
         sodipodi:end="0.052510876"
         sodipodi:open="true"
         sodipodi:arc-type="arc"
         d="m 134.28704,58.868124 a 11.064012,11.163687 0 0 1 -11.72386,10.418688 11.064012,11.163687 0 0 1 -10.36184,-11.797223 11.064012,11.163687 0 0 1 11.65981,-10.4916 11.064012,11.163687 0 0 1 10.43391,11.732381" /><path
         style="font-variation-settings:'wght' 700;fill:none;stroke:#07c8f9;stroke-width:0.7;stroke-linecap:round;stroke-linejoin:round;stroke-dasharray:none;stroke-opacity:1"
         id="path6"
         sodipodi:type="arc"
         sodipodi:cx="123.24129"
         sodipodi:cy="58.127895"
         sodipodi:rx="9.9694262"
         sodipodi:ry="10.05924"
         sodipodi:start="0.064871739"
         sodipodi:end="0.052510876"
         sodipodi:open="true"
         sodipodi:arc-type="arc"
         d="m 133.18974,58.779998 a 9.9694262,10.05924 0 0 1 -10.56399,9.387946 9.9694262,10.05924 0 0 1 -9.33672,-10.6301 9.9694262,10.05924 0 0 1 10.50628,-9.453644 9.9694262,10.05924 0 0 1 9.40166,10.571672" /><g
         id="g6"
         transform="matrix(0.14619333,0,0,0.14619333,117.04314,49.18226)"
         style="fill:#ff2a2a"><path
           fill="#000000"
           d="m 58.387,32.316 c 0,0 -36.86,-5.887 -38.597,-5.597 -1.737,0.29 -3.763,1.342 -4.921,2.793 -1.158,1.452 -1.158,1.839 0,2.224 1.158,0.386 34.448,14.86 34.448,14.86 l -11.77,18.528 h -9.746 c 0,0 -2.895,-0.289 -3.763,1.062 -0.869,1.351 -2.798,3.763 -2.798,3.763 0,0 -1.447,1.353 0.869,1.737 2.316,0.387 12.737,1.641 12.737,1.641 l -1.834,3.088 c 0,0 -1.158,1.93 -0.289,2.316 0.868,0.385 2.219,0.289 2.895,-0.869 0.676,-1.157 2.123,-2.509 2.123,-2.509 l 5.112,10.423 c 0,0 0.772,1.543 2.316,0 1.544,-1.545 2.026,-2.414 2.026,-2.414 0,0 1.352,-2.026 0.386,-4.439 -0.965,-2.41 -3.281,-9.647 -3.281,-9.647 0,0 28.562,-32.327 33.966,-44.195 5.402,-11.868 -0.192,-14.185 -7.43,-8.105 -7.238,6.08 -12.449,15.34 -12.449,15.34 z"
           id="path1"
           style="fill:#ff2a2a" /><path
           fill="#000000"
           d="M 61.185,55.185 71.221,42.64 c 0,0 14.377,27.598 15.438,29.432 1.062,1.832 0.675,4.632 0,6.271 -0.675,1.639 -1.735,4.439 -4.246,1.157 C 79.905,76.22 61.185,55.185 61.185,55.185 Z"
           id="path2"
           style="fill:#ff2a2a" /></g><path
         style="font-variation-settings:'wght' 700;fill:#ff2a2a;stroke-width:0.172256;stroke-linecap:round;stroke-linejoin:round;stroke-opacity:0.490798"
         d="m 120.36797,59.807679 c 0.12101,1.704036 0.95326,2.385964 2.79528,1.852687 -7.75978,8.198935 -11.84485,10.336775 -11.63618,0.520052 1.64435,9.326478 4.82964,2.671301 8.8409,-2.372739 z"
         id="path8"
         sodipodi:nodetypes="cccc" /><g
         id="g8"
         transform="matrix(0.34451294,0,0,0.34451294,71.353014,28.767041)"><text
           xml:space="preserve"
           transform="scale(0.26458333)"
           id="text8"
           style="font-size:82.9191px;font-family:Montserrat;-inkscape-font-specification:'Montserrat, @wght=700';font-variation-settings:'wght' 700;text-align:center;letter-spacing:0px;white-space:pre;shape-inside:url(#rect8);display:inline;fill:#ff2a2a;stroke:#07c8f9;stroke-width:9.44882;stroke-linecap:round;stroke-linejoin:round;stroke-dasharray:none;stroke-opacity:1" /></g><path
         d="m 111.66255,62.060214 -2.37578,-0.469505 -0.1124,-0.492941 1.93674,-1.456045 0.11942,0.52375 -1.72415,1.222832 -0.045,-0.197176 2.08451,0.357659 z m -0.57171,-0.375247 -0.40916,-0.04607 -0.25289,-1.109116 0.34804,-0.221963 z m 0.0247,-2.283555 -2.21123,0.05705 -0.0247,-0.957146 q -0.008,-0.296937 0.0847,-0.514268 0.0892,-0.21725 0.26627,-0.338775 0.17704,-0.121524 0.42659,-0.127962 0.24639,-0.0064 0.42947,0.105877 0.18307,0.112234 0.28654,0.324513 0.10031,0.21236 0.10797,0.509297 l 0.0174,0.672845 -0.23647,-0.221492 0.84027,-0.02168 z m -0.79661,-0.49153 -0.23737,0.233715 -0.0166,-0.644415 q -0.006,-0.236917 -0.11022,-0.351189 -0.1041,-0.114271 -0.28415,-0.109626 -0.18322,0.0047 -0.28129,0.124214 -0.0981,0.119487 -0.092,0.356404 l 0.0166,0.644416 -0.2491,-0.221166 z m 0.94843,-2.535406 q -0.0412,0.262225 -0.14757,0.491817 -0.10953,0.229103 -0.24494,0.358183 l -0.3539,-0.231477 q 0.12194,-0.124797 0.21739,-0.304932 0.0928,-0.183747 0.12369,-0.380415 0.0235,-0.149843 0.01,-0.244783 -0.0165,-0.09855 -0.0627,-0.150587 -0.0462,-0.05203 -0.11489,-0.06282 -0.0874,-0.01372 -0.14814,0.04712 -0.0639,0.06035 -0.1127,0.167829 -0.052,0.106992 -0.10164,0.239938 -0.0523,0.129334 -0.11755,0.259829 -0.0648,0.127374 -0.1511,0.228976 -0.0863,0.101602 -0.20997,0.155761 -0.12316,0.05104 -0.29798,0.0236 -0.1873,-0.0294 -0.32458,-0.153307 -0.13992,-0.127518 -0.1986,-0.344641 -0.0613,-0.220734 -0.0128,-0.529785 0.0323,-0.206034 0.11365,-0.397984 0.0782,-0.19244 0.19897,-0.330214 l 0.35948,0.216359 q -0.11142,0.139244 -0.17602,0.285838 -0.0677,0.146104 -0.0907,0.292825 -0.023,0.146721 -0.003,0.245763 0.0196,0.09904 0.0694,0.148445 0.0467,0.04891 0.1185,0.06018 0.0843,0.01323 0.14814,-0.04712 0.0607,-0.06084 0.10959,-0.16832 0.0489,-0.107482 0.10114,-0.236816 0.0528,-0.132455 0.11443,-0.260319 0.0622,-0.130986 0.14846,-0.232587 0.0863,-0.101602 0.20949,-0.152639 0.12365,-0.05416 0.29534,-0.02721 0.18418,0.02891 0.32098,0.155938 0.13679,0.127028 0.1981,0.347763 0.0618,0.217612 0.0128,0.529785 z m 0.64121,-2.636727 -2.30146,-0.345983 0.23823,-0.474413 2.03301,0.317253 -0.11912,0.237207 -1.45585,-1.466576 0.21271,-0.423583 2.03443,0.314429 -0.11487,0.228735 -1.46152,-1.45528 0.2198,-0.437703 1.65199,1.639324 -0.24675,0.491356 -1.78719,-0.271605 0.0652,-0.129899 1.2781,1.285381 z m 2.23737,-3.465115 q -0.17413,0.196128 -0.38689,0.307254 -0.21066,0.108763 -0.43554,0.128837 -0.22279,0.01771 -0.43958,-0.05223 -0.21471,-0.0723 -0.39902,-0.235947 -0.18431,-0.163644 -0.28152,-0.368275 -0.0951,-0.206994 -0.10181,-0.432671 -0.007,-0.225677 0.0764,-0.447732 0.0831,-0.222055 0.25509,-0.41582 0.17413,-0.196128 0.3827,-0.302528 0.21066,-0.108764 0.43344,-0.126474 0.22488,-0.02007 0.44168,0.04987 0.21444,0.06784 0.40111,0.233584 0.18432,0.163644 0.2818,0.372736 0.0951,0.206994 0.1018,0.432671 0.006,0.221216 -0.0766,0.443271 -0.081,0.219692 -0.253,0.413457 z m -0.32819,-0.28716 q 0.0986,-0.111061 0.14262,-0.236785 0.0461,-0.128087 0.0382,-0.261917 -0.008,-0.133829 -0.0713,-0.257655 -0.0612,-0.126188 -0.17937,-0.231088 -0.11815,-0.104899 -0.25069,-0.150746 -0.13045,-0.04821 -0.26428,-0.04026 -0.13174,0.0056 -0.25346,0.06654 -0.12173,0.06095 -0.22034,0.172012 -0.0986,0.11106 -0.14471,0.239148 -0.044,0.125724 -0.0361,0.259554 0.008,0.133829 0.0692,0.260017 0.0633,0.123826 0.18146,0.228726 0.11579,0.102801 0.2486,0.153109 0.13255,0.04585 0.26428,0.04026 0.13383,-0.008 0.25556,-0.0689 0.12173,-0.06095 0.22033,-0.172012 z m 1.41294,-0.882261 -1.31833,-1.776175 0.76883,-0.570648 q 0.23851,-0.177033 0.46944,-0.22644 0.22904,-0.05194 0.43027,0.023 0.20124,0.07495 0.35002,0.275402 0.1469,0.197916 0.16036,0.412231 0.0116,0.211777 -0.10446,0.415965 -0.11604,0.204188 -0.35455,0.381221 l -0.54047,0.401149 0.049,-0.315755 0.50096,0.674947 z m 1.12914,-0.838081 -0.92241,-0.314915 0.43897,-0.325816 0.92748,0.311148 z m -1.18515,-0.09629 -0.32583,-0.05724 0.51763,-0.384199 q 0.19031,-0.141249 0.22392,-0.292129 0.0317,-0.153417 -0.0756,-0.298048 -0.10924,-0.147169 -0.26339,-0.158683 -0.15415,-0.01151 -0.34445,0.129737 l -0.51763,0.384199 0.0377,-0.330979 z m 1.95938,-0.398614 -0.99086,-1.97762 0.45767,-0.229313 0.80402,1.604697 0.99163,-0.496847 0.18685,0.372923 z m 1.71885,-0.842402 -0.6099,-2.126219 0.96591,-0.277071 q 0.34627,-0.09933 0.64886,-0.04148 0.30173,0.05481 0.51852,0.249037 0.2168,0.194228 0.31003,0.519235 0.0923,0.321971 0.0123,0.604623 -0.0809,0.279615 -0.3068,0.489065 -0.22679,0.206413 -0.57306,0.305741 z m 0.37619,-0.545131 0.44954,-0.128951 q 0.21262,-0.06099 0.34488,-0.184401 0.13442,-0.127318 0.17678,-0.30055 0.0454,-0.174103 -0.0121,-0.374575 -0.0584,-0.203509 -0.18828,-0.324039 -0.12774,-0.124439 -0.30834,-0.158106 -0.17844,-0.03757 -0.39106,0.02341 l -0.44954,0.128951 z m 3.57639,-0.251829 -0.61551,-2.244452 0.53024,0.02574 0.53309,1.987357 -0.26512,-0.01287 0.7515,-1.924993 0.47343,0.02298 0.53624,1.987511 -0.25565,-0.01241 0.73887,-1.925606 0.48922,0.02375 -0.83004,2.174273 -0.54918,-0.02666 -0.4753,-1.744112 0.14519,0.007 -0.65779,1.689103 z m 3.07539,0.322443 0.52362,-2.149094 0.49736,0.121183 -0.52362,2.149093 z m 1.01634,0.227733 0.83737,-2.047343 0.93007,0.380402 q 0.33343,0.13637 0.53525,0.369132 0.20302,0.229838 0.25303,0.516586 0.05,0.286748 -0.078,0.599699 -0.1268,0.310026 -0.36462,0.482468 -0.23662,0.169517 -0.54371,0.194135 -0.30589,0.02169 -0.63932,-0.114677 z m 0.63292,-0.195206 0.43286,0.177043 q 0.20474,0.08374 0.385,0.0687 0.18439,-0.01676 0.3249,-0.126585 0.14343,-0.108623 0.22238,-0.301658 0.0802,-0.19596 0.0528,-0.37104 -0.0233,-0.176809 -0.14426,-0.315057 -0.11687,-0.139977 -0.3216,-0.223713 l -0.43287,-0.177042 z m 2.87465,0.408469 0.88932,0.585768 -0.21901,0.332506 -0.88932,-0.585768 z m -0.46893,0.780872 1.00544,0.662249 -0.22597,0.343062 -1.4303,-0.942097 1.21673,-1.847257 1.396,0.9195 -0.22597,0.343062 -0.97113,-0.639652 z m 2.44873,2.673542 q -0.17132,-0.190167 -0.25833,-0.4095 -0.0825,-0.2191 -0.0754,-0.442472 0.007,-0.223372 0.10079,-0.431049 0.0957,-0.205329 0.2812,-0.372417 0.18547,-0.167089 0.39964,-0.240944 0.21629,-0.07151 0.4392,-0.05541 0.22502,0.01845 0.432,0.125449 0.20932,0.104888 0.38276,0.297403 0.19247,0.213645 0.27174,0.452711 0.0837,0.239299 0.0463,0.485704 l -0.44535,-0.04112 q 0.0201,-0.171235 -0.026,-0.316837 -0.0438,-0.147716 -0.15374,-0.269799 -0.10364,-0.115039 -0.22792,-0.177456 -0.12428,-0.06242 -0.25816,-0.0694 -0.13389,-0.007 -0.2661,0.03982 -0.1301,0.04915 -0.24748,0.154904 -0.11739,0.105752 -0.17981,0.230033 -0.0603,0.126628 -0.0673,0.260511 -0.007,0.133884 0.0422,0.263982 0.0491,0.130098 0.15279,0.245137 0.10998,0.122083 0.25,0.183083 0.14236,0.05888 0.31711,0.05457 l -0.005,0.447209 q -0.24896,0.01163 -0.4806,-0.09442 -0.22953,-0.103704 -0.42411,-0.319696 z m 1.32553,1.847314 q -0.1322,-0.226521 -0.1716,-0.463296 -0.0378,-0.234047 0.0131,-0.45401 0.0525,-0.217233 0.18643,-0.401502 0.13553,-0.18154 0.3484,-0.305776 0.21288,-0.124236 0.4376,-0.152942 0.22632,-0.02598 0.44287,0.03789 0.21655,0.06387 0.40173,0.211908 0.18519,0.148037 0.31579,0.371829 0.1322,0.226521 0.16842,0.457838 0.0378,0.234047 -0.0147,0.45128 -0.0509,0.219963 -0.18484,0.404232 -0.13121,0.182676 -0.34681,0.308505 -0.21288,0.124236 -0.44192,0.151806 -0.22632,0.02598 -0.44287,-0.03789 -0.21223,-0.06273 -0.39742,-0.210771 -0.18359,-0.145308 -0.31419,-0.3691 z m 0.37503,-0.222531 q 0.0749,0.128271 0.18065,0.209224 0.10737,0.08368 0.23703,0.117774 0.12966,0.03409 0.26704,0.01246 0.13897,-0.01891 0.27543,-0.09855 0.13646,-0.07964 0.22128,-0.191338 0.0864,-0.10897 0.1205,-0.238628 0.0357,-0.126929 0.0156,-0.261581 -0.02,-0.134651 -0.0949,-0.262922 -0.0749,-0.12827 -0.18224,-0.211953 -0.10579,-0.08095 -0.23544,-0.115045 -0.12966,-0.03409 -0.26863,-0.01518 -0.13739,0.02164 -0.27384,0.101276 -0.13373,0.07805 -0.22287,0.188609 -0.0848,0.111699 -0.12051,0.238628 -0.0341,0.129659 -0.014,0.26431 0.02,0.134651 0.0949,0.262922 z m 0.67132,2.561484 q -0.14501,-0.447946 0.0228,-0.781256 0.16778,-0.333309 0.63076,-0.483182 l 1.17849,-0.381495 0.15766,0.48703 -1.16045,0.375655 q -0.30064,0.09732 -0.39302,0.263401 -0.0924,0.166082 -0.0204,0.388552 0.072,0.22247 0.2442,0.30291 0.17218,0.08044 0.47281,-0.01688 l 1.16046,-0.375656 0.15571,0.481017 -1.17849,0.381494 q -0.46298,0.149873 -0.79426,-0.02189 -0.33127,-0.171758 -0.47628,-0.619705 z m 0.44235,1.443232 2.19821,-0.246289 0.10661,0.951511 q 0.0331,0.295189 -0.0403,0.519636 -0.0703,0.224096 -0.23626,0.360342 -0.16598,0.136246 -0.41407,0.164042 -0.24494,0.02744 -0.43695,-0.06869 -0.18888,-0.09649 -0.30701,-0.299473 -0.11814,-0.202985 -0.15121,-0.498174 l -0.0749,-0.668884 0.24829,0.201121 -0.83532,0.09359 z m 0.15657,1.397434 0.73607,-0.63892 0.0609,0.543272 -0.73536,0.645201 z m 0.67922,-0.975962 0.21334,-0.252841 0.0718,0.640621 q 0.0264,0.235523 0.1399,0.340455 0.11664,0.10458 0.29564,0.08452 0.18214,-0.02041 0.26961,-0.147857 0.0875,-0.12745 0.0611,-0.362972 l -0.0718,-0.640622 0.26713,0.19901 z m -0.65912,1.892852 2.21102,0.06465 -0.015,0.511693 -2.21102,-0.06465 z m 1.19851,1.715889 -0.17129,1.051037 -0.39297,-0.06404 0.17129,-1.051037 z m -0.90431,-0.108958 -0.19366,1.188264 -0.40544,-0.06608 0.27549,-1.690391 2.18316,0.355793 -0.26888,1.649847 -0.40544,-0.06608 0.18704,-1.14772 z m -0.7046,1.521313 2.07974,0.753319 -0.32608,0.900229 q -0.10116,0.279278 -0.26644,0.447948 -0.16231,0.169747 -0.37148,0.218334 -0.20917,0.04859 -0.44388,-0.03643 -0.23175,-0.08394 -0.36128,-0.255212 -0.12656,-0.170195 -0.14251,-0.404511 -0.016,-0.234317 0.0852,-0.513596 l 0.22922,-0.632833 0.13346,0.290323 -0.7903,-0.286261 z m -0.47889,1.322117 0.94297,-0.246586 -0.18617,0.513992 -0.94513,0.252528 z m 1.04137,-0.573917 0.30329,-0.132126 -0.21954,0.606094 q -0.0807,0.222829 -0.0255,0.367195 0.0582,0.145443 0.22758,0.206784 0.17232,0.06242 0.30721,-0.01307 0.13489,-0.07549 0.21561,-0.29832 l 0.21953,-0.606095 0.15129,0.296781 z"
         id="text9"
         style="font-size:3.15995px;font-family:Montserrat;-inkscape-font-specification:'Montserrat, @wght=700';font-variation-settings:'wght' 700;text-align:center;letter-spacing:0px;text-anchor:middle;fill:#ff2a2a;stroke-width:0.44179;stroke-linecap:round;stroke-linejoin:round"
         aria-label="APS WORLD WIDE COURIER" /></g></g></svg>
