<?xml version="1.0" encoding="UTF-8" standalone="no"?>
<!-- Created with Inkscape (http://www.inkscape.org/) -->

<svg
   width="133.34584mm"
   height="133.27751mm"
   viewBox="0 0 133.34584 133.27751"
   version="1.1"
   id="svg1"
   xml:space="preserve"
   xmlns:inkscape="http://www.inkscape.org/namespaces/inkscape"
   xmlns:sodipodi="http://sodipodi.sourceforge.net/DTD/sodipodi-0.dtd"
   xmlns="http://www.w3.org/2000/svg"
   xmlns:svg="http://www.w3.org/2000/svg"><sodipodi:namedview
     id="namedview1"
     pagecolor="#ffffff"
     bordercolor="#000000"
     borderopacity="0.25"
     inkscape:showpageshadow="2"
     inkscape:pageopacity="0.0"
     inkscape:pagecheckerboard="0"
     inkscape:deskcolor="#d1d1d1"
     inkscape:document-units="mm" /><defs
     id="defs1" /><g
     inkscape:label="Layer 1"
     inkscape:groupmode="layer"
     id="layer1"
     transform="translate(-42.510794,-7.617573)"><path
       style="fill:#000000"
       d="m 47.027665,140.55916 c -2.203905,-0.59922 -3.858704,-2.2517 -4.461967,-4.45572 -0.205281,-0.74999 0.140851,-6.79554 1.450316,-25.33126 1.855535,-26.265439 1.712605,-25.138787 3.41948,-26.95422 1.593532,-1.694881 2.525969,-1.989133 6.683045,-2.108987 l 3.736103,-0.107716 0.183351,-3.080316 c 0.349641,-5.874023 1.5188,-9.221178 4.193189,-12.004565 6.139711,-6.389942 15.93571,-6.389942 22.075421,0 2.674389,2.783387 3.843548,6.130542 4.19319,12.004565 l 0.18335,3.080316 3.736103,0.107716 c 4.152963,0.119735 5.068807,0.408051 6.699257,2.108987 1.655447,1.727018 1.576277,1.102441 3.412307,26.91826 0.93766,13.18409 1.633,24.38225 1.5452,24.8848 -0.35632,2.03957 -1.75898,3.8254 -3.68733,4.69463 -0.993604,0.44788 -2.619848,0.48021 -26.590621,0.52859 -19.97071,0.0403 -25.80198,-0.0218 -26.770394,-0.28508 z M 97.9901,133.7151 C 97.9261,133.24216 97.217962,123.27067 96.41645,111.55625 95.614938,99.841822 94.893582,89.751275 94.813437,89.132812 L 94.667718,88.008333 H 73.268893 51.870067 l -0.146656,1.124479 c -0.08066,0.618463 -0.799772,10.649478 -1.598024,22.291148 -0.798252,11.64166 -1.502129,21.61315 -1.56417,22.15885 L 48.448414,134.575 H 73.277435 98.106456 Z M 82.521591,81.459895 c -0.257533,-6.62177 -0.869073,-8.894362 -2.954627,-10.979915 -1.887184,-1.887184 -3.329399,-2.447688 -6.298071,-2.447688 -2.968673,0 -4.410888,0.560504 -6.298072,2.447688 -1.704989,1.704989 -2.359767,3.365603 -2.686251,6.812728 -0.151608,1.600729 -0.275751,3.237839 -0.275873,3.638021 l -2.21e-4,0.727604 h 9.260417 c 5.093228,0 9.256943,-0.0893 9.252698,-0.198438 z m 38.397079,59.119435 c -0.49569,-0.17368 -1.15053,-0.65263 -1.45521,-1.06432 -0.5533,-0.74767 -0.5539,-0.77622 -0.51333,-24.60625 0.0409,-24.025514 0.28766,-35.18789 1.03629,-46.876468 0.59495,-9.289059 1.58804,-18.725112 2.06849,-19.6542 0.50354,-0.973751 2.06256,-1.754959 3.02859,-1.517602 2.12971,0.523274 2.79016,1.832232 2.42877,4.813579 -1.48739,12.27029 -2.38159,31.352508 -2.38375,50.868961 -10e-4,11.52899 0.01,11.77955 0.57362,12.94418 0.70651,1.45945 2.14,2.92682 3.5349,3.61844 1.01104,0.50129 1.84747,0.52524 22.79233,0.65268 21.55613,0.13116 21.74919,0.13705 22.48959,0.68673 1.61718,1.20062 1.61718,3.77594 -1e-5,4.97654 -0.73731,0.54738 -0.96184,0.55538 -17.64369,0.62808 l -16.89688,0.0736 -0.0834,6.3238 c -0.0782,5.93312 -0.11761,6.3699 -0.63734,7.07011 -0.94308,1.27057 -1.71398,1.3779 -9.89709,1.3779 -5.16253,0 -7.82486,-0.0996 -8.44189,-0.3158 z m 12.67522,-10.21661 v -4.21227 l -1.78594,-0.18248 c -1.96737,-0.20102 -4.48985,-0.94742 -5.82083,-1.72237 l -0.8599,-0.50067 v 5.41503 5.41504 h 4.23334 4.23333 z m 10.98021,-21.38619 c -1.20539,-0.28192 -11.80199,-5.97141 -12.29939,-6.60375 -0.94183,-1.19734 -0.5754,-3.345685 0.71485,-4.191089 1.34485,-0.881182 2.28331,-0.605092 8.47546,2.493429 3.79693,1.89997 6.02008,3.16504 6.29241,3.58067 0.49834,0.76056 0.57465,2.48959 0.14529,3.29185 -0.54504,1.01841 -2.14572,1.70554 -3.32862,1.42889 z m 14.44457,-0.13904 c -1.84084,-0.66167 -2.58344,-3.08251 -1.42465,-4.6443 0.93885,-1.26536 1.94491,-1.40659 9.38476,-1.31737 6.41506,0.0769 6.83593,0.11241 7.54063,0.63591 1.61654,1.20086 1.61653,3.77569 -1e-5,4.97654 -0.70777,0.52576 -1.10463,0.55751 -7.67292,0.6138 -4.93177,0.0423 -7.1861,-0.0339 -7.82781,-0.26458 z M 110.33534,82.364634 c -0.49569,-0.170184 -1.15054,-0.645579 -1.45521,-1.056432 -0.53498,-0.721429 -0.55395,-1.035579 -0.55395,-9.174869 0,-8.141865 0.0188,-8.453211 0.55444,-9.174868 1.2003,-1.617198 3.77553,-1.617491 4.97654,-5.65e-4 0.52895,0.71213 0.55813,1.1075 0.63472,8.601123 0.0871,8.520159 -0.0347,9.514794 -1.27091,10.378777 -0.93226,0.651567 -1.83998,0.785834 -2.88563,0.426834 z m 24.34166,0.0099 c -1.83913,-0.651533 -2.58395,-3.07715 -1.42465,-4.639628 1.02948,-1.387505 1.02802,-1.387416 21.53029,-1.308757 18.80711,0.07216 18.9966,0.07818 19.73627,0.627293 1.61724,1.20059 1.61724,3.775953 0,4.976541 -0.74034,0.549605 -0.9133,0.554914 -19.84375,0.609134 -14.358,0.04112 -19.32054,-0.02453 -19.99816,-0.264583 z m -6.52763,-43.424779 c -2.21322,-0.963714 -3.79957,-3.251242 -3.81009,-5.494187 -0.0106,-2.255448 2.86872,-15.282495 3.90737,-17.678436 1.82869,-4.218432 6.15904,-7.3729678 10.91353,-7.950196 1.37615,-0.1670744 8.47641,-0.2424906 18.42545,-0.1957078 15.95865,0.075041 16.19705,0.083919 16.93333,0.6305504 1.61714,1.2005927 1.61718,3.7758614 7e-5,4.9765414 -0.73615,0.546583 -0.99665,0.556312 -18.38854,0.686729 -19.43438,0.145734 -18.47026,0.05959 -20.48735,1.830613 -0.52523,0.461162 -1.19456,1.339259 -1.48739,1.951327 -0.76038,1.589321 -3.78524,15.043293 -3.45617,15.372362 0.064,0.06402 1.5451,-0.174171 3.29129,-0.529306 12.84169,-2.611697 22.62012,-3.636002 33.38666,-3.497302 l 6.66385,0.08585 0.80733,0.773949 c 1.42533,1.366382 1.32523,3.53711 -0.2132,4.623873 -0.62912,0.444414 -1.49365,0.502436 -9.42391,0.632482 -10.86322,0.178142 -17.56295,0.927091 -29.06726,3.249367 -4.80684,0.970315 -6.69841,1.096063 -7.99497,0.531494 z"
       id="path1" /></g></svg>
