<?xml version="1.0" encoding="UTF-8" standalone="no"?>
<!-- Created with Inkscape (http://www.inkscape.org/) -->

<svg
   width="89.325005mm"
   height="88.627213mm"
   viewBox="0 0 89.325005 88.627213"
   version="1.1"
   id="svg1"
   xml:space="preserve"
   xmlns:inkscape="http://www.inkscape.org/namespaces/inkscape"
   xmlns:sodipodi="http://sodipodi.sourceforge.net/DTD/sodipodi-0.dtd"
   xmlns="http://www.w3.org/2000/svg"
   xmlns:svg="http://www.w3.org/2000/svg"><sodipodi:namedview
     id="namedview1"
     pagecolor="#ffffff"
     bordercolor="#000000"
     borderopacity="0.25"
     inkscape:showpageshadow="2"
     inkscape:pageopacity="0.0"
     inkscape:pagecheckerboard="0"
     inkscape:deskcolor="#d1d1d1"
     inkscape:document-units="mm" /><defs
     id="defs1" /><g
     inkscape:label="Layer 1"
     inkscape:groupmode="layer"
     id="layer1"
     transform="translate(-69.373861,-9.7448866)"><path
       style="fill:#000000;stroke-width:0.659966"
       d="m 138.68586,97.942462 c -1.06071,-0.493899 -1.5675,-1.135116 -2.29066,-2.898249 -1.87535,-4.572293 -6.02345,-13.058142 -9.41224,-19.254784 -3.73752,-6.834313 -7.88921,-13.770236 -8.20194,-13.702377 -0.27159,0.05893 -13.33909,12.016829 -13.33909,12.206424 0,0.08521 1.02151,3.726191 2.27001,8.09107 1.24851,4.364873 2.27001,8.109773 2.27001,8.321992 0,0.779862 -0.73756,1.867058 -2.31826,3.417193 -1.27942,1.254676 -1.75995,1.61476 -2.28685,1.713603 -0.8279,0.155317 -1.84293,-0.132052 -2.32848,-0.659227 -0.20051,-0.217703 -2.57945,-3.696063 -5.286532,-7.729698 -2.707083,-4.033629 -4.994691,-7.409357 -5.083582,-7.501614 -0.101569,-0.105416 -0.56637,0.232341 -1.251105,0.909143 -1.172391,1.158816 -2.023919,1.615915 -3.010278,1.615915 -1.234969,0 -2.722687,-0.96534 -3.357549,-2.178615 -0.348682,-0.666368 -0.345544,-2.090008 0.0065,-2.925216 0.150924,-0.358111 0.6366,-1.038325 1.079277,-1.51158 l 0.804869,-0.860471 -4.766931,-3.218458 c -2.621811,-1.770155 -5.721383,-3.8559 -6.887935,-4.634994 -2.132731,-1.424366 -2.644644,-1.928874 -2.988729,-2.945497 -0.208602,-0.61633 -0.05127,-1.588811 0.356395,-2.202851 0.551178,-0.830211 2.437143,-2.740589 3.212726,-3.254315 0.598516,-0.39644 1.01715,-0.539644 1.577565,-0.539644 0.419569,0 4.124284,0.825062 8.2327,1.833469 4.108419,1.008408 7.588369,1.833469 7.733231,1.833469 0.23514,0 11.509368,-11.827445 11.639528,-12.210674 0.0601,-0.176941 -4.34089,-2.942429 -9.01368,-5.664006 -7.026841,-4.09264 -16.138578,-8.744535 -21.946455,-11.204509 -3.285674,-1.391674 -3.599622,-1.589596 -4.233136,-2.668698 -0.62083,-1.057497 -0.656942,-2.548449 -0.08802,-3.634262 0.776509,-1.482009 3.232572,-3.109434 5.499195,-3.64385 1.507046,-0.355326 3.565138,-0.326234 7.209153,0.101903 l 3.102605,0.364527 2.549368,-2.530583 c 2.965936,-2.944084 3.569521,-3.321154 5.343227,-3.338022 1.593687,-0.01515 2.647072,0.393828 3.557067,1.381057 1.257645,1.364383 1.535834,3.266779 0.740588,5.064561 l -0.332016,0.750573 0.636419,0.09557 c 0.350033,0.05256 1.761219,0.227206 3.135985,0.388101 l 2.49955,0.292535 2.38969,-2.342282 c 1.31434,-1.288255 2.70401,-2.490365 3.08817,-2.671356 0.87184,-0.41076 2.393,-0.536337 3.35594,-0.277044 1.85079,0.498365 3.26644,2.431054 3.24616,4.431735 -0.006,0.595037 -0.12782,1.360544 -0.27064,1.701125 l -0.25966,0.619238 4.5599,0.747975 c 2.50794,0.411386 4.71706,0.783634 4.90913,0.827216 0.27536,0.06248 1.56817,-1.219128 6.11157,-6.058627 6.7426,-7.182022 7.97106,-8.234007 11.87389,-10.168144 5.4301,-2.6910031 10.49308,-3.2280073 13.37261,-1.418362 3.95495,2.485497 3.33734,10.133951 -1.39634,17.292047 -1.59622,2.413747 -2.83688,3.7025 -8.65856,8.994171 -3.63673,3.305635 -5.43084,5.051495 -5.46715,5.32011 -0.0297,0.219902 0.26494,2.549929 0.65481,5.177838 0.38987,2.627909 0.70886,4.830212 0.70886,4.894007 0,0.06379 0.32419,0.0016 0.72042,-0.138189 1.60541,-0.566423 3.50568,-0.163557 4.70124,0.996682 0.9863,0.957179 1.38021,1.894106 1.38282,3.289158 0.003,1.723562 -0.45253,2.483776 -3.13183,5.223859 -1.98176,2.02672 -2.27872,2.403542 -2.2017,2.793857 0.049,0.248141 0.22128,1.614063 0.38293,3.035384 0.25457,2.238475 0.33128,2.568234 0.57329,2.464758 2.40797,-1.029595 4.50041,-0.640465 5.94755,1.10607 0.69635,0.840421 1.12896,2.291872 0.98851,3.316563 -0.20379,1.486858 -0.70039,2.224595 -3.33354,4.952289 -2.37359,2.458797 -2.54018,2.675015 -2.45577,3.186964 0.0498,0.302067 0.24881,1.973656 0.44222,3.714641 0.29107,2.619987 0.31899,3.400418 0.16199,4.529198 -0.32394,2.329074 -1.13576,4.089541 -2.74858,5.960473 -1.28459,1.490171 -2.91918,1.8498 -4.68039,1.029739 z m 2.66869,-2.457992 c 0.58414,-0.409153 1.56852,-2.016494 1.98641,-3.243544 0.33999,-0.998271 0.37132,-1.3527 0.27708,-3.133665 -0.0584,-1.104447 -0.26979,-3.147453 -0.46968,-4.540015 -0.19989,-1.392569 -0.36906,-2.72838 -0.37594,-2.968476 -0.0367,-1.280388 -0.85022,-7.558536 -1.0207,-7.877075 -0.10966,-0.2049 -0.15227,-0.60808 -0.0947,-0.895957 0.11012,-0.55065 -0.66008,-7.650868 -0.94073,-8.672191 -0.0899,-0.327123 -0.12528,-0.656498 -0.0787,-0.731944 0.0853,-0.138087 -0.48202,-5.454512 -0.79016,-7.404092 -0.0911,-0.576233 -0.50016,-3.424659 -0.90908,-6.329834 -0.40892,-2.905175 -0.78597,-5.282137 -0.83791,-5.282137 -0.17262,0 -17.11772,15.54747 -17.11772,15.70586 0,0.08559 0.62696,1.143277 1.39325,2.350412 5.41113,8.524137 12.02743,21.011949 15.92136,30.050466 0.662,1.53662 1.33451,2.892079 1.49446,3.012127 0.39169,0.293968 1.11229,0.275549 1.56271,-0.03993 z m -35.15423,-3.659685 1.19492,-1.119581 -2.03021,-7.128805 c -1.11662,-3.920841 -2.06369,-7.225174 -2.1046,-7.342964 -0.0508,-0.146341 -0.5881,0.03359 -1.69665,0.568178 -1.712392,0.825803 -4.600082,1.654067 -5.766804,1.654067 -0.537305,0 -0.672591,0.05775 -0.596946,0.254892 0.160035,0.417033 9.57073,14.238439 9.69301,14.236017 0.0618,-0.0013 0.65007,-0.506036 1.30728,-1.121804 z M 93.106465,75.554323 c 2.3187,-2.36406 4.24235,-4.412912 4.274781,-4.55301 0.08332,-0.359972 -0.479558,-0.927206 -0.920093,-0.927206 -0.516106,0 -9.098904,8.604648 -8.910766,8.933463 0.301337,0.526647 0.677913,0.845041 0.999467,0.845041 0.214568,0 1.902246,-1.592004 4.556611,-4.298288 z m 55.432365,-0.809238 c 0.57111,-2.080538 -1.58042,-3.342572 -3.37062,-1.977114 -0.50681,0.386562 -0.61227,0.579048 -0.61227,1.117501 0,0.652905 0.26044,3.085264 0.4511,4.213034 l 0.10197,0.603223 1.62504,-1.650913 c 1.15336,-1.171737 1.67721,-1.840976 1.80478,-2.305731 z m -50.318206,0.548016 c 1.686115,-0.51936 3.660416,-1.487551 4.405356,-2.160367 0.34829,-0.314566 1.4976,-1.35142 2.55403,-2.304121 1.75296,-1.580833 11.13893,-10.151593 13.0089,-11.879024 0.43217,-0.39923 7.22911,-6.594258 15.10429,-13.766727 16.03393,-14.603189 16.98266,-15.502941 18.35143,-17.403995 2.74873,-3.817655 4.56953,-9.183332 4.09424,-12.065196 -0.23396,-1.418506 -0.74636,-2.168626 -1.82423,-2.670518 -2.99601,-1.39505 -9.97569,0.785277 -14.7173,4.597421 -0.69032,0.555 -11.10798,11.442286 -23.15036,24.19397 -23.303213,24.675798 -22.594257,23.874144 -23.614446,26.702336 -0.239819,0.664845 -0.43604,1.260602 -0.43604,1.323899 0,0.06329 0.451819,-0.330795 1.00404,-0.875767 0.552227,-0.544971 1.296187,-1.112196 1.653249,-1.260501 1.326486,-0.550956 3.385911,-0.18833 4.212994,0.741831 0.81853,0.920548 1.030624,2.769774 0.461502,4.023908 -0.189008,0.416505 -0.868081,1.300504 -1.509047,1.96443 -0.640972,0.663926 -1.082206,1.207144 -0.980532,1.207144 0.101681,0 0.723548,-0.165928 1.381924,-0.368723 z M 148.08993,24.579329 c -0.43124,-0.181324 -0.58335,-0.401235 -0.80507,-1.163921 -0.40549,-1.394861 -1.03278,-1.877909 -2.76988,-2.132998 -1.27881,-0.187788 -1.78245,-1.282465 -1.02162,-2.220514 0.28257,-0.348385 0.48181,-0.408837 1.28644,-0.390312 2.1954,0.05054 4.15107,1.319884 4.83022,3.135107 0.45004,1.202832 0.4537,1.826683 0.014,2.385673 -0.44041,0.55989 -0.86695,0.667479 -1.5341,0.386965 z M 89.174883,71.391987 c 0.245347,-1.996431 0.829793,-3.902508 1.76608,-5.759802 0.384325,-0.762378 0.680822,-1.402269 0.658878,-1.421982 -0.09164,-0.08234 -13.622694,-3.216133 -13.886569,-3.216133 -0.315246,0 -2.658771,2.236905 -2.647709,2.527251 0.0061,0.159955 13.550819,9.495358 13.803503,9.513758 0.05663,0.004 0.194252,-0.735269 0.305817,-1.643092 z M 146.08281,56.857562 c 0.071,-0.739058 0.0186,-0.931505 -0.38361,-1.409549 -0.54851,-0.651867 -1.37708,-0.862925 -2.25291,-0.573873 -1.02642,0.338747 -1.06489,0.466742 -0.83119,2.764997 0.35082,3.450046 0.16388,3.295931 1.89639,1.563416 1.39617,-1.396165 1.49421,-1.542477 1.57132,-2.344991 z M 114.90198,39.324255 c 4.35284,-4.619445 7.93348,-8.450086 7.95697,-8.512536 0.0651,-0.172919 -10.97167,-1.910611 -14.53585,-2.288616 -4.1648,-0.441704 -3.62035,-0.380773 -12.485054,-1.397231 -4.273725,-0.490041 -8.47761,-0.966973 -9.34196,-1.059851 -0.86435,-0.09288 -2.907358,-0.32513 -4.540018,-0.516116 -3.781377,-0.44234 -4.997606,-0.442141 -6.432503,0.0011 -1.467543,0.453278 -3.271713,1.657263 -3.488209,2.327801 -0.284909,0.882436 0.220087,1.279284 3.297885,2.591625 3.389169,1.445107 13.253615,6.345224 17.170549,8.52939 4.110423,2.292061 9.31376,5.381045 12.05555,7.156844 1.30175,0.843118 2.38068,1.54052 2.3976,1.549784 0.0169,0.0093 3.5922,-3.762703 7.94504,-8.382148 z m -2.229,-13.441419 c 0.91444,-1.086755 0.43872,-2.907259 -0.84382,-3.229157 -0.99285,-0.249187 -1.64606,0.06613 -3.17216,1.531248 -0.8079,0.775612 -1.4689,1.466586 -1.4689,1.535496 0,0.06891 1.04115,0.243938 2.31366,0.38895 1.27251,0.145012 2.4049,0.274244 2.51641,0.287183 0.11151,0.01294 0.40618,-0.218235 0.65481,-0.51372 z M 94.670123,23.659933 c 0.357016,-0.365615 0.720644,-0.914148 0.808063,-1.218962 0.195284,-0.680909 -0.03669,-1.613888 -0.507111,-2.039619 -0.479486,-0.43393 -1.744443,-0.546746 -2.378143,-0.212098 -0.487933,0.257669 -3.733934,3.411877 -3.561272,3.46056 0.06334,0.01786 3.372871,0.466301 4.806516,0.651283 0.100559,0.01298 0.474939,-0.275549 0.831947,-0.641164 z"
       id="path1" /></g></svg>
