<?xml version="1.0" encoding="UTF-8" standalone="no"?>
<!-- Created with Inkscape (http://www.inkscape.org/) -->

<svg
   width="99.592087mm"
   height="84.881111mm"
   viewBox="0 0 99.592087 84.881111"
   version="1.1"
   id="svg1"
   xml:space="preserve"
   xmlns:inkscape="http://www.inkscape.org/namespaces/inkscape"
   xmlns:sodipodi="http://sodipodi.sourceforge.net/DTD/sodipodi-0.dtd"
   xmlns="http://www.w3.org/2000/svg"
   xmlns:svg="http://www.w3.org/2000/svg"><sodipodi:namedview
     id="namedview1"
     pagecolor="#ffffff"
     bordercolor="#000000"
     borderopacity="0.25"
     inkscape:showpageshadow="2"
     inkscape:pageopacity="0.0"
     inkscape:pagecheckerboard="0"
     inkscape:deskcolor="#d1d1d1"
     inkscape:document-units="mm"
     showgrid="true"><inkscape:grid
       id="grid12"
       units="mm"
       originx="-71.41155"
       originy="-16.502399"
       spacingx="1"
       spacingy="0.99999998"
       empcolor="#0099e5"
       empopacity="0.30196078"
       color="#0099e5"
       opacity="0.14901961"
       empspacing="5"
       dotted="false"
       gridanglex="30"
       gridanglez="30"
       visible="true" /></sodipodi:namedview><defs
     id="defs1" /><g
     inkscape:label="Layer 1"
     inkscape:groupmode="layer"
     id="layer1"
     transform="translate(-71.41155,-16.502398)"><path
       id="path46"
       style="font-variation-settings:'wght' 700;opacity:1;fill:none;fill-opacity:1;stroke:#000000;stroke-width:2.1147;stroke-linecap:round;stroke-linejoin:round;stroke-dasharray:none;stroke-opacity:1"
       d="m 121.27633,30.758378 v -13.19863 m 0,49.90732 v 4.107387 m 0,3.0075 v 4.107391 m 0,3.144984 v 4.107386 m 0,3.419959 v 4.10739 m 0,3.428545 v 3.42855 M 169.94628,99.638726 137.08719,66.092212 M 72.468895,99.776215 105.32799,66.229697 M 157.02262,45.19438 h 10.5864 c 2.01645,1.2832 2.01646,2.5664 0,3.8496 l -11.92422,2.146475 m -11.37967,1.87459 -11.75497,2.028309 M 85.530041,45.19438 H 74.943639 c -2.016454,1.2832 -2.01646,2.5664 0,3.8496 l 11.905658,2.030864 m 11.198932,1.939037 11.954271,2.079473 m 45.72819,-2.955941 c 0,3.158971 -2.56086,5.719824 -5.71983,5.719822 -3.15897,-2e-6 -5.71982,-2.560853 -5.71982,-5.719822 0,-3.15897 2.56085,-5.71982 5.71982,-5.719823 3.92537,-2e-6 5.71983,3.437745 5.71983,5.719823 z m -57.606535,0 c 0,3.158971 -2.560849,5.719824 -5.719823,5.719822 -3.15897,-2e-6 -5.71982,-2.560853 -5.71982,-5.719822 0,-3.15897 2.56085,-5.719821 5.71982,-5.719823 3.158974,-10e-7 5.719823,2.560851 5.719823,5.719823 z m 0.879487,-6.805547 h 7.630458 m 29.2501,0 h 7.66482 M 100.24101,34.882951 h 10.82701 m 20.31352,0 h 11.75503 m -27.90961,3.024689 c 4.07874,0.552373 8.15748,0.766674 12.23622,-0.137486 l 3.02468,4.399545 c -6.04936,2.461602 -12.09873,2.066086 -18.1481,0.137485 z m 20.62194,7.49297 c 0,8.048204 -6.52437,14.572563 -14.57257,14.572563 -8.0482,0 -14.57255,-6.524359 -14.57255,-14.572563 0,-8.048204 6.52435,-14.572562 14.57255,-14.572562 8.0482,0 14.57257,6.524358 14.57257,14.572562 z"
       sodipodi:nodetypes="ccccccccccccccccccccccccccccsssssssssscccccccccccccsssss"
       inkscape:export-filename="plane5.svg"
       inkscape:export-xdpi="25.4"
       inkscape:export-ydpi="25.4" /></g></svg>
