<?xml version="1.0" encoding="UTF-8" standalone="no"?>
<!-- Created with Inkscape (http://www.inkscape.org/) -->

<svg
   width="97.523499mm"
   height="97.506203mm"
   viewBox="0 0 97.523499 97.506203"
   version="1.1"
   id="svg1"
   xml:space="preserve"
   xmlns:inkscape="http://www.inkscape.org/namespaces/inkscape"
   xmlns:sodipodi="http://sodipodi.sourceforge.net/DTD/sodipodi-0.dtd"
   xmlns="http://www.w3.org/2000/svg"
   xmlns:svg="http://www.w3.org/2000/svg"><sodipodi:namedview
     id="namedview1"
     pagecolor="#ffffff"
     bordercolor="#000000"
     borderopacity="0.25"
     inkscape:showpageshadow="2"
     inkscape:pageopacity="0.0"
     inkscape:pagecheckerboard="0"
     inkscape:deskcolor="#d1d1d1"
     inkscape:document-units="mm"
     showgrid="true"
     inkscape:zoom="2"
     inkscape:cx="590"
     inkscape:cy="397.75"
     inkscape:window-width="1920"
     inkscape:window-height="1001"
     inkscape:window-x="-9"
     inkscape:window-y="-9"
     inkscape:window-maximized="1"
     inkscape:current-layer="layer1"><inkscape:grid
       id="grid1"
       units="mm"
       originx="-112.85222"
       originy="-47.746653"
       spacingx="1"
       spacingy="0.99999998"
       empcolor="#0099e5"
       empopacity="0.30196078"
       color="#0099e5"
       opacity="0.14901961"
       empspacing="5"
       dotted="false"
       gridanglex="30"
       gridanglez="30"
       visible="true" /></sodipodi:namedview><defs
     id="defs1" /><g
     inkscape:label="Layer 1"
     inkscape:groupmode="layer"
     id="layer1"
     transform="translate(-112.85222,-47.746652)"><path
       id="path30"
       style="font-variation-settings:'wght' 700;fill:none;stroke:none;stroke-width:2.5;stroke-linecap:round;stroke-linejoin:round;stroke-dasharray:none;stroke-dashoffset:0;stroke-opacity:1"
       d="m 195.96572,57.324731 c 4.59858,0.286199 4.51188,2.644216 4.84993,4.814416 m -6.81013,44.086763 4.77102,-4.76142 c 3.95731,-3.949372 -2.32276,-9.073766 -5.15473,-5.429727 l -0.79606,1.024358 m 3.25255,30.238599 4.77101,-4.76144 c 3.95731,-3.94937 -2.32275,-9.07376 -5.15472,-5.42973 l -0.79608,1.02436 m -26.56618,-15.09307 c 0.6052,-1.12602 19.80517,33.58762 21.6379,40.75464 0.30748,1.2025 2.46814,1.7499 3.59857,1.30886 1.59191,-0.62106 2.30965,-2.13722 2.82053,-3.86516 0.34759,-1.17554 0.50242,-3.35135 0.37252,-4.58236 -2.62829,-24.90677 -3.69703,-36.4759 -5.77088,-54.565599 m -39.51742,-16.986867 4.77101,-4.761431 c 3.95732,-3.949363 8.94555,2.464281 5.30469,5.280059 l -1.02348,0.791529 m -29.86887,-3.675697 4.77101,-4.761435 c 3.95731,-3.94936 8.94555,2.464283 5.30467,5.28006 l -1.02346,0.791532 m 14.58847,27.046717 c 1.1216,-0.597291 -32.96919,-20.450027 -40.03497,-22.39451 -1.1855,-0.326248 -1.69922,-2.517264 -1.24846,-3.654237 0.63474,-1.601124 2.14368,-2.30715 3.85943,-2.801397 1.16723,-0.336244 3.32145,-0.464822 4.53743,-0.317721 24.60293,2.976272 36.03286,4.20501 53.89975,6.53338 m -36.77908,54.720987 c 0.14547,0.34683 8.22353,13.67131 11.03691,17.69648 0.71283,1.01988 1.76191,1.3168 2.61408,0.45238 l 3.31319,-3.36071 c 0.85216,-0.86442 0.41386,-1.97242 0.11624,-3.17723 l -4.05891,-16.42976 m -16.59979,1.4229 c -0.34121,-0.15151 -13.41753,-8.48777 -17.36292,-11.38317 -0.99969,-0.73363 -1.2799,-1.79784 -0.41395,-2.64813 l 3.36679,-3.30584 c 0.86597,-0.85027 1.95632,-0.39301 3.14424,-0.0767 l 16.1995,4.31354 m -7.76405,16.06531 9.49354,-9.47446 c 0.88009,-0.87834 2.28775,-0.86954 3.15621,0.0198 0.86847,0.88926 0.8591,2.31223 -0.0209,3.19055 l -9.49355,9.47447 c -0.8801,0.87833 -2.28776,0.86953 -3.15621,-0.0197 -0.86848,-0.88924 -0.85912,-2.31223 0.0209,-3.19056 z m 4.37448,-4.58245 c -0.75416,-0.75983 0.19119,-7.80202 3.31392,-11.32904 0.26589,-0.30029 1.26279,-1.29653 1.28218,-1.27667 l 1e-5,2e-5 48.22293,-52.13552 c 1.96158,-2.120711 13.61124,-6.880816 17.1335,-5.395922 1.88438,0.794414 2.73406,1.310166 3.77776,3.761017 0.91156,2.140563 -2.54102,14.209222 -6.2214,17.64114 l -51.28412,47.821915 c -1.2248,1.14212 -10.19483,6.9885 -12.95586,4.20666"
       inkscape:export-filename="plane-2.svg"
       inkscape:export-xdpi="25.4"
       inkscape:export-ydpi="25.4" /></g></svg>
