<svg xmlns="http://www.w3.org/2000/svg" xmlns:xlink="http://www.w3.org/1999/xlink">
    <path fill="#000000" d="M58.387,32.316c0,0-36.86-5.887-38.597-5.597s-3.763,1.342-4.921,2.793c-1.158,1.452-1.158,1.839,0,2.224  c1.158,0.386,34.448,14.86,34.448,14.86l-11.77,18.528h-9.746c0,0-2.895-0.289-3.763,1.062c-0.869,1.351-2.798,3.763-2.798,3.763  s-1.447,1.353,0.869,1.737c2.316,0.387,12.737,1.641,12.737,1.641l-1.834,3.088c0,0-1.158,1.93-0.289,2.316  c0.868,0.385,2.219,0.289,2.895-0.869c0.676-1.157,2.123-2.509,2.123-2.509l5.112,10.423c0,0,0.772,1.543,2.316,0  c1.544-1.545,2.026-2.414,2.026-2.414s1.352-2.026,0.386-4.439c-0.965-2.41-3.281-9.647-3.281-9.647s28.562-32.327,33.966-44.195  c5.402-11.868-0.192-14.185-7.43-8.105S58.387,32.316,58.387,32.316z"></path>
      <path fill="#000000" d="M61.185,55.185L71.221,42.64c0,0,14.377,27.598,15.438,29.432c1.062,1.832,0.675,4.632,0,6.271  s-1.735,4.439-4.246,1.157C79.905,76.22,61.185,55.185,61.185,55.185z"></path>
</svg>