<?xml version="1.0" encoding="UTF-8" standalone="no"?>
<!-- Created with Inkscape (http://www.inkscape.org/) -->

<svg
   width="49.890285mm"
   height="50.000095mm"
   viewBox="0 0 49.890285 50.000095"
   version="1.1"
   id="svg1"
   xml:space="preserve"
   xmlns:inkscape="http://www.inkscape.org/namespaces/inkscape"
   xmlns:sodipodi="http://sodipodi.sourceforge.net/DTD/sodipodi-0.dtd"
   xmlns="http://www.w3.org/2000/svg"
   xmlns:svg="http://www.w3.org/2000/svg"><sodipodi:namedview
     id="namedview1"
     pagecolor="#ffffff"
     bordercolor="#000000"
     borderopacity="0.25"
     inkscape:showpageshadow="2"
     inkscape:pageopacity="0.0"
     inkscape:pagecheckerboard="0"
     inkscape:deskcolor="#d1d1d1"
     inkscape:document-units="mm"
     showgrid="true"
     inkscape:zoom="1.4022026"
     inkscape:cx="476.39336"
     inkscape:cy="500.28435"
     inkscape:window-width="1920"
     inkscape:window-height="1001"
     inkscape:window-x="-9"
     inkscape:window-y="-9"
     inkscape:window-maximized="1"
     inkscape:current-layer="layer1"><inkscape:grid
       id="grid1"
       units="mm"
       originx="-124.083"
       originy="-80.10256"
       spacingx="1"
       spacingy="0.99999998"
       empcolor="#0099e5"
       empopacity="0.30196078"
       color="#0099e5"
       opacity="0.14901961"
       empspacing="5"
       dotted="false"
       gridanglex="30"
       gridanglez="30"
       visible="true" /></sodipodi:namedview><defs
     id="defs1" /><g
     inkscape:label="Layer 1"
     inkscape:groupmode="layer"
     id="layer1"
     transform="translate(-124.083,-80.102564)"><path
       id="path37"
       style="font-variation-settings:'wght' 700;fill:none;fill-opacity:1;stroke:#000000;stroke-width:0.669774;stroke-linecap:round;stroke-linejoin:round;stroke-dasharray:none;stroke-opacity:1"
       d="m 137.84195,126.16469 h 9.25078 m -12.79807,0 h 1.94753 m -4.31239,-10.08544 h 2.2953 m -9.80722,-0.0696 h 6.39904 m 13.70229,-12.79808 5.70349,-0.0695 m -9.32034,0 h 1.87798 m -7.79013,-10.224553 h 9.66811 m 5.99058,15.603223 0.99595,-0.0461 m 0.99595,-0.0461 0.99595,-0.0461 m 0.99594,-0.0461 0.99596,-0.0461 m 0.99595,-0.0461 0.99594,-0.0461 m 0.99595,-0.0461 0.99595,-0.0461 m 0.99595,-0.0461 0.99594,-0.0461 m 0.99596,-0.0461 0.99594,-0.0461 m 0.99595,-0.0461 0.99595,-0.0461 m 0.99595,-0.0461 c 4.41325,0.37982 4.19638,3.76763 0,3.88543 m -1.0021,-0.0431 -1.0021,-0.043 m -1.00209,-0.043 -1.0021,-0.0431 m -1.00209,-0.043 -1.0021,-0.0431 m -1.0021,-0.043 -1.00209,-0.0431 m -1.0021,-0.043 -1.00209,-0.0431 m -1.0021,-0.043 -1.0021,-0.043 m -1.0021,-0.0431 -1.00209,-0.043 m -1.0021,-0.0431 -1.00209,-0.043 m -16.96802,-1.18028 h 7.13149 m -8.23563,9.65111 1.56992,0.39317 c 0.43408,0.10871 0.60202,0.003 0.85177,-0.36772 l 5.59016,-7.60379 -6.29146,-0.19644 -2.23566,6.82464 c -0.13931,0.42526 0.0812,0.84142 0.51527,0.95014 z m 0.0984,-19.34219 1.56992,-0.393179 c 0.43409,-0.10871 0.60202,-0.0035 0.85178,0.367719 l 5.59015,7.60379 -6.29145,0.19644 -2.23567,-6.82463 c -0.13931,-0.42526 0.0812,-0.84143 0.51527,-0.95014 z m 16.5475,12.29773 -3.63951,8.70533 -2.36077,0.0492 -0.5115,1.02299 -0.66889,1.33777 2.55751,0.0492 -2.11486,5.21336 c -0.19555,0.43006 -0.20407,0.81336 0.63937,0.98366 h 3.04933 c 0.59981,0.003 1.08864,-0.21627 1.42629,-0.73774 l 3.83625,-5.45928 5.02158,-0.0492 c 0.94641,-0.5964 1.2693,-1.29671 0,-2.2624 l -3.34937,-0.14755 5.60682,-8.26268 m -9.44306,-5.65597 -3.63952,-8.705333 -2.36077,-0.0492 -0.5115,-1.022999 -0.66888,-1.337769 2.5575,-0.0492 -2.11486,-5.213355 c -0.19554,-0.430055 -0.20407,-0.813352 0.63938,-0.983657 h 3.04932 c 0.59981,-0.003 1.08864,0.21627 1.42629,0.737742 l 3.83625,5.45927 5.02158,0.0492 c 1.30718,1.110644 0.69129,1.696804 0,2.262403 l -3.34937,0.14755 5.60682,8.262688 m -7.77267,0.40682 -20.11388,1.01947 c -0.5159,-0.0106 -0.70965,0.1936 -0.83611,0.44265 v 2.01648 c 0.10763,0.29866 0.12798,0.64096 0.73774,0.68856 l 20.21687,1.0786 m 4.57409,0.24404 11.16155,0.59548 c 2.67726,-0.55933 4.54394,-1.24119 6.34456,-2.70504 0.32788,-0.45904 0.32788,-1.04924 0,-1.77058 -2.09846,-1.23611 -3.29588,-1.96176 -6.29538,-2.40995 l -11.16568,0.56595 M 131.46767,92.979027 h 1.91812 m 18.05003,-1.131199 h 4.32808 m -4.72153,-6.295381 h 8.45941 m -12.00057,0 h 1.81976 m 13.37768,-2.901776 v -2.213219 h 3.98379 v 2.213219 m 0.78095,2.794196 0.57818,1.767524 -1.85642,0.457766 m 5.13662,5.28214 c 0,3.662572 -2.96911,6.631679 -6.63168,6.631674 -3.66258,0 -6.63168,-2.969102 -6.63168,-6.631674 0,-3.66258 2.9691,-6.631682 6.63168,-6.631684 1.18058,0 2.2891,0.308491 3.24937,0.84926 m -2.34516,4.912985 3.89507,-3.895066 m -3.62081,4.79928 c 0,0.670059 -0.54319,1.213249 -1.21325,1.213249 -0.67006,0 -1.21324,-0.54319 -1.21324,-1.213249 0,-0.670055 0.54318,-1.213244 1.21324,-1.213244 0.67006,0 1.21325,0.543189 1.21325,1.213244 z m -10.19632,0 c 0,-4.961216 4.02186,-8.983075 8.98307,-8.983075 4.96122,0 8.98308,4.021859 8.98308,8.983075 0,4.961216 -4.02186,8.983068 -8.98308,8.983068 -2.79362,0 -5.28941,-1.27522 -6.93699,-3.275318"
       sodipodi:nodetypes="ccccccccccccccccccccccccccccccccccccccccccccccccccsscccsssscccssccccccccccccccccccccccccccccccccccccccccccccccccccccccccccssscccssssscsssc"
       inkscape:export-filename="plane-4.svg"
       inkscape:export-xdpi="25.4"
       inkscape:export-ydpi="25.4" /></g></svg>
