<?xml version="1.0" encoding="UTF-8" standalone="no"?>
<!-- Created with Inkscape (http://www.inkscape.org/) -->

<svg
   width="42.219566mm"
   height="50mm"
   viewBox="0 0 42.219566 50"
   version="1.1"
   id="svg1"
   xml:space="preserve"
   xmlns:inkscape="http://www.inkscape.org/namespaces/inkscape"
   xmlns:sodipodi="http://sodipodi.sourceforge.net/DTD/sodipodi-0.dtd"
   xmlns="http://www.w3.org/2000/svg"
   xmlns:svg="http://www.w3.org/2000/svg"><sodipodi:namedview
     id="namedview1"
     pagecolor="#ffffff"
     bordercolor="#000000"
     borderopacity="0.25"
     inkscape:showpageshadow="2"
     inkscape:pageopacity="0.0"
     inkscape:pagecheckerboard="0"
     inkscape:deskcolor="#d1d1d1"
     inkscape:document-units="mm"
     showgrid="true"><inkscape:grid
       id="grid1"
       units="mm"
       originx="-146.731"
       originy="-92.529603"
       spacingx="1"
       spacingy="0.99999998"
       empcolor="#0099e5"
       empopacity="0.30196078"
       color="#0099e5"
       opacity="0.14901961"
       empspacing="5"
       dotted="false"
       gridanglex="30"
       gridanglez="30"
       visible="true" /></sodipodi:namedview><defs
     id="defs1" /><g
     inkscape:label="Layer 1"
     inkscape:groupmode="layer"
     id="layer1"
     transform="translate(-146.731,-92.529604)"><path
       id="path58"
       style="font-variation-settings:'wght' 700;fill:none;fill-opacity:1;stroke:#000000;stroke-width:2.42565;stroke-linecap:round;stroke-linejoin:round;stroke-dasharray:none;stroke-opacity:1"
       d="m 164.83543,129.88831 5.56925,1.40993 m -16.21427,-2.96087 5.28727,-3.31334 c 0.83211,-0.51151 1.72966,-0.82673 2.74938,-0.77547 5.20426,0.11707 7.38469,1.64524 9.86955,3.03137 2.86766,2.81553 -0.0772,3.07351 -1.62143,3.94782 1.56393,0.61834 3.61331,0.14687 5.56924,-1.26895 l 7.82514,-4.2298 c 3.47442,-1.15872 4.70616,2.54824 3.24286,3.94782 l -14.16985,8.6006 c -1.22834,0.54479 -2.5569,0.78892 -4.15931,0.2115 l -8.81211,-2.53789 -1.12794,0.70497 m -8.10713,-7.19067 1.40993,2.39688 m -3.43036,-3.33747 2.44624,-1.40539 c 0.7447,-0.42784 1.68864,-0.17276 2.11648,0.57194 l 5.68983,9.90373 c 0.42783,0.74469 0.17274,1.68865 -0.57195,2.11648 l -2.44624,1.4054 c -0.74469,0.42783 -1.68864,0.17275 -2.11649,-0.57194 l -5.68981,-9.90373 c -0.42784,-0.74471 -0.17276,-1.68865 0.57194,-2.11649 z m 24.93193,-13.79325 7.96614,7.96614 0.91646,-4.44129 4.51179,-0.91646 -7.40217,-7.26117 m -12.12549,4.3003 -7.40216,7.47266 -0.91646,-4.44129 -4.51179,-0.91646 7.40216,-7.26117 m 4.98011,-2.60498 c -0.26149,-1.572 0.48078,-3.17108 1.52866,-2.87255 l 1.26894,1.33943 2.89037,-3.03136 c 1.29094,-0.39798 1.38419,1.84049 1.3866,2.73104 l -3.58293,3.67613 c -0.59591,0.64517 -0.97492,0.20581 -1.39178,-0.0443 z m 10.41596,-1.27235 c 0,3.7141 -3.01087,6.72497 -6.72497,6.72497 -3.7141,0 -6.72496,-3.01087 -6.72496,-6.72497 0,-3.71409 3.01087,-6.724961 6.72496,-6.724965 3.7141,-10e-7 6.72497,3.010865 6.72497,6.724965 z m 1.4465,8.01106 c -0.66245,0.6694 -3.82896,-0.0133 -4.69546,0.35564 -0.85183,0.36268 -2.50726,3.10045 -3.43307,3.10528 -0.94178,0.005 -2.69808,-2.7169 -3.57167,-3.06873 -0.85879,-0.34587 -3.96526,0.41945 -4.62332,-0.23178 -0.6694,-0.66246 0.0133,-3.82896 -0.35564,-4.69547 -0.36268,-0.85182 -3.10045,-2.50726 -3.10528,-3.43307 -0.005,-0.94176 2.71689,-2.69808 3.06873,-3.57167 0.34587,-0.85879 -0.41945,-3.965252 0.23178,-4.623312 0.66246,-0.669406 3.82896,0.01329 4.69547,-0.355639 0.85183,-0.362686 2.50726,-3.100451 3.43307,-3.105281 0.94177,-0.0049 2.69807,2.71689 3.57167,3.068727 0.85879,0.345873 3.96525,-0.419452 4.62331,0.23178 0.66941,0.66246 -0.0133,3.828955 0.35564,4.695465 0.36269,0.85183 3.10045,2.50726 3.10528,3.43307 0.005,0.94178 -2.7169,2.69808 -3.06873,3.57167 -0.34587,0.8588 0.41946,3.96526 -0.23178,4.62332 z"
       inkscape:export-filename="Reliable.svg"
       inkscape:export-xdpi="25.4"
       inkscape:export-ydpi="25.4"
       sodipodi:nodetypes="ccccccccccccccccssscssccsccccccccccccccccccssssssscssscssssssscss" /></g></svg>
