<?xml version="1.0" encoding="UTF-8" standalone="no"?>
<!-- Created with Inkscape (http://www.inkscape.org/) -->

<svg
   width="51.565521mm"
   height="51.565529mm"
   viewBox="0 0 51.565521 51.565529"
   version="1.1"
   id="svg1"
   xml:space="preserve"
   xmlns:inkscape="http://www.inkscape.org/namespaces/inkscape"
   xmlns:sodipodi="http://sodipodi.sourceforge.net/DTD/sodipodi-0.dtd"
   xmlns="http://www.w3.org/2000/svg"
   xmlns:svg="http://www.w3.org/2000/svg"><sodipodi:namedview
     id="namedview1"
     pagecolor="#ffffff"
     bordercolor="#000000"
     borderopacity="0.25"
     inkscape:showpageshadow="2"
     inkscape:pageopacity="0.0"
     inkscape:pagecheckerboard="0"
     inkscape:deskcolor="#d1d1d1"
     inkscape:document-units="mm"
     showgrid="true"><inkscape:grid
       id="grid1"
       units="mm"
       originx="-26.069953"
       originy="-123.06982"
       spacingx="1"
       spacingy="0.99999998"
       empcolor="#0099e5"
       empopacity="0.30196078"
       color="#0099e5"
       opacity="0.14901961"
       empspacing="5"
       dotted="false"
       gridanglex="30"
       gridanglez="30"
       visible="true" /></sodipodi:namedview><defs
     id="defs1" /><g
     inkscape:label="Layer 1"
     inkscape:groupmode="layer"
     id="layer1"
     transform="translate(-26.069953,-123.06982)"><path
       id="path84"
       style="font-variation-settings:'wght' 700;fill:none;fill-opacity:1;stroke:#000000;stroke-width:2.5;stroke-linecap:round;stroke-linejoin:miter;stroke-dasharray:none;stroke-opacity:1"
       d="m 47.546441,145.53129 h 8.578113 m 20.260921,3.32129 c 0,13.54907 -10.98369,24.53277 -24.532761,24.53277 -5.647213,0 -10.848763,-1.90809 -14.995123,-5.11471 m -9.074495,-14.64951 c -0.303862,-1.54251 -0.463144,-3.13693 -0.463144,-4.76855 0,-13.54907 10.983694,-24.53276 24.532762,-24.53276 4.70787,0 9.106021,1.32611 12.841276,3.62517 m 10.957365,14.92707 c 0.47951,1.91424 0.73412,3.91765 0.73412,5.98052 m -23.490186,0.83062 a 1.0597957,1.0597957 0 0 1 -1.059795,1.0598 1.0597957,1.0597957 0 0 1 -1.059795,-1.0598 1.0597957,1.0597957 0 0 1 1.059795,-1.0598 1.0597957,1.0597957 0 0 1 1.059795,1.0598 z m -0.28654,1.03001 0.5486,3.21929 c 0.0263,0.1543 -0.12601,0.28253 -0.282525,0.28253 h -2.129615 c -0.156515,0 -0.282525,-0.12601 -0.282525,-0.28253 l 0.62341,-3.24423 z M 71.14924,130.2264 a 3.6102549,3.6102541 0 0 1 -3.610255,3.61025 3.6102549,3.6102541 0 0 1 -3.610255,-3.61025 3.6102549,3.6102541 0 0 1 3.610255,-3.61025 3.6102549,3.6102541 0 0 1 3.610255,3.61025 z m -33.514484,35.70888 a 3.6102549,3.6102541 0 0 1 -3.610255,3.61026 3.6102549,3.6102541 0 0 1 -3.610255,-3.61026 3.6102549,3.6102541 0 0 1 3.610255,-3.61025 3.6102549,3.6102541 0 0 1 3.610255,3.61025 z m 7.87937,-17.98021 v 7.07203 c 0,1.19081 0.958665,2.14948 2.149475,2.14948 h 8.268973 c 1.19081,0 2.14948,-0.95867 2.14948,-2.14948 v -7.07203 c 0,-1.19081 -0.75918,-2.14947 -1.96688,-2.42009 -0.0169,-1.88523 -0.82757,-3.37719 -2.143565,-4.1845 -1.31599,-0.80731 -2.93736,-0.80731 -4.25335,0 -1.315988,0.80731 -2.126673,2.29927 -2.146773,4.1845 -1.21091,0.27062 -2.05736,1.22928 -2.05736,2.42009 z M 34.779924,136.97042 c 6.320207,0.0443 11.644947,-2.56595 16.205375,-5.82729 0.565905,-0.4047 1.221015,-0.49338 1.7773,-0.0756 6.636711,4.98475 13.524106,6.58815 16.011861,5.45411 0.633055,-0.28858 0.935165,0.97704 0.973025,1.67173 0.72908,13.37799 -6.681925,24.68332 -16.903596,29.66646 -0.625365,0.30487 -1.14731,0.37076 -1.777305,0.0756 -10.423048,-4.884 -17.18976,-14.71418 -17.109055,-29.69226 0.0038,-0.69571 0.126684,-1.27763 0.822395,-1.27275 z"
       inkscape:export-filename="security.svg"
       inkscape:export-xdpi="24.629999"
       inkscape:export-ydpi="24.629999" /></g></svg>
