<?xml version="1.0" encoding="UTF-8" standalone="no"?>
<!-- Created with Inkscape (http://www.inkscape.org/) -->

<svg
   width="99.999992mm"
   height="100.00003mm"
   viewBox="0 0 99.999992 100.00003"
   version="1.1"
   id="svg1"
   xml:space="preserve"
   xmlns:inkscape="http://www.inkscape.org/namespaces/inkscape"
   xmlns:sodipodi="http://sodipodi.sourceforge.net/DTD/sodipodi-0.dtd"
   xmlns="http://www.w3.org/2000/svg"
   xmlns:svg="http://www.w3.org/2000/svg"><sodipodi:namedview
     id="namedview1"
     pagecolor="#ffffff"
     bordercolor="#000000"
     borderopacity="0.25"
     inkscape:showpageshadow="2"
     inkscape:pageopacity="0.0"
     inkscape:pagecheckerboard="0"
     inkscape:deskcolor="#d1d1d1"
     inkscape:document-units="mm"
     showgrid="true"
     inkscape:zoom="5.6088103"
     inkscape:cx="341.24884"
     inkscape:cy="323.68718"
     inkscape:window-width="1920"
     inkscape:window-height="1001"
     inkscape:window-x="-9"
     inkscape:window-y="-9"
     inkscape:window-maximized="1"
     inkscape:current-layer="layer1"><inkscape:grid
       id="grid1"
       units="mm"
       originx="-85.021367"
       originy="-44.792675"
       spacingx="1"
       spacingy="0.99999998"
       empcolor="#0099e5"
       empopacity="0.30196078"
       color="#0099e5"
       opacity="0.14901961"
       empspacing="5"
       dotted="false"
       gridanglex="30"
       gridanglez="30"
       visible="true" /></sodipodi:namedview><defs
     id="defs1" /><g
     inkscape:label="Layer 1"
     inkscape:groupmode="layer"
     id="layer1"
     transform="translate(-85.021368,-44.792676)"><path
       id="rect41"
       style="font-variation-settings:'wght' 700;opacity:0.93128;fill:none;stroke:#000000;stroke-width:2.7529;stroke-linecap:round;stroke-linejoin:round"
       d="m 111.21379,121.13503 h 46.35179 c 2.35967,0 4.25936,2.08394 4.25936,4.67249 v 10.44441 c 0,2.58857 -1.89969,4.6725 -4.25936,4.6725 h -46.35179 c -2.35968,0 -4.25935,-2.08393 -4.25935,-4.6725 v -10.44441 c 0,-2.58855 1.89967,-4.67249 4.25935,-4.67249 z m -0.56564,-17.3491 h 27.439 c 2.20199,0 3.9747,1.94467 3.9747,4.36023 v 28.72625 c 0,2.41557 -1.77271,4.36024 -3.9747,4.36024 h -27.439 c -2.20199,0 -3.97469,-1.94467 -3.97469,-4.36024 v -28.72625 c 0,-2.41556 1.7727,-4.36023 3.97469,-4.36023 z m -9.85044,38.82969 -0.0329,-51.210426 68.97071,-0.02443 0.0328,51.210426 m -82.622007,0.82507 -0.748498,-57.56096 49.067025,-39.686213 48.18007,39.471436 -0.40572,57.642997"
       inkscape:export-filename="warehouse.svg"
       inkscape:export-xdpi="300"
       inkscape:export-ydpi="300" /></g></svg>
